  0
SECTION
  2
HEADER
  9
$ACADVER
  1
AC1024
  9
$ACADMAINTVER
 70
     6
  9
$DWGCODEPAGE
  3
ANSI_1252
  9
$INSBASE
 10
0.0
 20
0.0
 30
0.0
  9
$EXTMIN
 10
1.000000000000000E+20
 20
1.000000000000000E+20
 30
1.000000000000000E+20
  9
$EXTMAX
 10
-1.000000000000000E+20
 20
-1.000000000000000E+20
 30
-1.000000000000000E+20
  9
$LIMMIN
 10
0.0
 20
0.0
  9
$LIMMAX
 10
12.0
 20
9.0
  9
$ORTHOMODE
 70
     0
  9
$REGENMODE
 70
     1
  9
$FILLMODE
 70
     1
  9
$QTEXTMODE
 70
     0
  9
$MIRRTEXT
 70
     1
  9
$LTSCALE
 40
1.0
  9
$ATTMODE
 70
     1
  9
$TEXTSIZE
 40
0.2
  9
$TRACEWID
 40
0.05
  9
$TEXTSTYLE
  7
Standard
  9
$CLAYER
  8
0
  9
$CELTYPE
  6
ByLayer
  9
$CECOLOR
 62
   256
  9
$CELTSCALE
 40
1.0
  9
$DISPSILH
 70
     0
  9
$DIMSCALE
 40
1.0
  9
$DIMASZ
 40
0.18
  9
$DIMEXO
 40
0.0625
  9
$DIMDLI
 40
0.38
  9
$DIMRND
 40
0.0
  9
$DIMDLE
 40
0.0
  9
$DIMEXE
 40
0.18
  9
$DIMTP
 40
0.0
  9
$DIMTM
 40
0.0
  9
$DIMTXT
 40
0.18
  9
$DIMCEN
 40
0.09
  9
$DIMTSZ
 40
0.0
  9
$DIMTOL
 70
     0
  9
$DIMLIM
 70
     0
  9
$DIMTIH
 70
     1
  9
$DIMTOH
 70
     1
  9
$DIMSE1
 70
     0
  9
$DIMSE2
 70
     0
  9
$DIMTAD
 70
     0
  9
$DIMZIN
 70
     0
  9
$DIMBLK
  1

  9
$DIMASO
 70
     1
  9
$DIMSHO
 70
     1
  9
$DIMPOST
  1

  9
$DIMAPOST
  1

  9
$DIMALT
 70
     0
  9
$DIMALTD
 70
     2
  9
$DIMALTF
 40
25.4
  9
$DIMLFAC
 40
1.0
  9
$DIMTOFL
 70
     0
  9
$DIMTVP
 40
0.0
  9
$DIMTIX
 70
     0
  9
$DIMSOXD
 70
     0
  9
$DIMSAH
 70
     0
  9
$DIMBLK1
  1

  9
$DIMBLK2
  1

  9
$DIMSTYLE
  2
Standard
  9
$DIMCLRD
 70
     0
  9
$DIMCLRE
 70
     0
  9
$DIMCLRT
 70
     0
  9
$DIMTFAC
 40
1.0
  9
$DIMGAP
 40
0.09
  9
$DIMJUST
 70
     0
  9
$DIMSD1
 70
     0
  9
$DIMSD2
 70
     0
  9
$DIMTOLJ
 70
     1
  9
$DIMTZIN
 70
     0
  9
$DIMALTZ
 70
     0
  9
$DIMALTTZ
 70
     0
  9
$DIMUPT
 70
     0
  9
$DIMDEC
 70
     4
  9
$DIMTDEC
 70
     4
  9
$DIMALTU
 70
     2
  9
$DIMALTTD
 70
     2
  9
$DIMTXSTY
  7
Standard
  9
$DIMAUNIT
 70
     0
  9
$DIMADEC
 70
     0
  9
$DIMALTRND
 40
0.0
  9
$DIMAZIN
 70
     0
  9
$DIMDSEP
 70
    46
  9
$DIMATFIT
 70
     3
  9
$DIMFRAC
 70
     0
  9
$DIMLDRBLK
  1

  9
$DIMLUNIT
 70
     2
  9
$DIMLWD
 70
    -2
  9
$DIMLWE
 70
    -2
  9
$DIMTMOVE
 70
     0
  9
$DIMFXL
 40
1.0
  9
$DIMFXLON
 70
     0
  9
$DIMJOGANG
 40
0.7853981633974483
  9
$DIMTFILL
 70
     0
  9
$DIMTFILLCLR
 70
     0
  9
$DIMARCSYM
 70
     0
  9
$DIMLTYPE
  6

  9
$DIMLTEX1
  6

  9
$DIMLTEX2
  6

  9
$DIMTXTDIRECTION
 70
     0
  9
$LUNITS
 70
     2
  9
$LUPREC
 70
     4
  9
$SKETCHINC
 40
0.1
  9
$FILLETRAD
 40
0.5
  9
$AUNITS
 70
     0
  9
$AUPREC
 70
     0
  9
$MENU
  1
.
  9
$ELEVATION
 40
0.0
  9
$PELEVATION
 40
0.0
  9
$THICKNESS
 40
0.0
  9
$LIMCHECK
 70
     0
  9
$CHAMFERA
 40
0.5
  9
$CHAMFERB
 40
0.5
  9
$CHAMFERC
 40
1.0
  9
$CHAMFERD
 40
0.0
  9
$SKPOLY
 70
     0
  9
$TDCREATE
 40
2458380.522063183
  9
$TDUCREATE
 40
2458380.81372985
  9
$TDUPDATE
 40
2458380.522063264
  9
$TDUUPDATE
 40
2458380.813729931
  9
$TDINDWG
 40
0.0000000116
  9
$TDUSRTIMER
 40
0.0000000116
  9
$USRTIMER
 70
     1
  9
$ANGBASE
 50
0.0
  9
$ANGDIR
 70
     0
  9
$PDMODE
 70
     0
  9
$PDSIZE
 40
0.0
  9
$PLINEWID
 40
0.0
  9
$SPLFRAME
 70
     0
  9
$SPLINETYPE
 70
     6
  9
$SPLINESEGS
 70
     8
  9
$HANDSEED
  5
F7
  9
$SURFTAB1
 70
     6
  9
$SURFTAB2
 70
     6
  9
$SURFTYPE
 70
     6
  9
$SURFU
 70
     6
  9
$SURFV
 70
     6
  9
$UCSBASE
  2

  9
$UCSNAME
  2

  9
$UCSORG
 10
0.0
 20
0.0
 30
0.0
  9
$UCSXDIR
 10
1.0
 20
0.0
 30
0.0
  9
$UCSYDIR
 10
0.0
 20
1.0
 30
0.0
  9
$UCSORTHOREF
  2

  9
$UCSORTHOVIEW
 70
     0
  9
$UCSORGTOP
 10
0.0
 20
0.0
 30
0.0
  9
$UCSORGBOTTOM
 10
0.0
 20
0.0
 30
0.0
  9
$UCSORGLEFT
 10
0.0
 20
0.0
 30
0.0
  9
$UCSORGRIGHT
 10
0.0
 20
0.0
 30
0.0
  9
$UCSORGFRONT
 10
0.0
 20
0.0
 30
0.0
  9
$UCSORGBACK
 10
0.0
 20
0.0
 30
0.0
  9
$PUCSBASE
  2

  9
$PUCSNAME
  2

  9
$PUCSORG
 10
0.0
 20
0.0
 30
0.0
  9
$PUCSXDIR
 10
1.0
 20
0.0
 30
0.0
  9
$PUCSYDIR
 10
0.0
 20
1.0
 30
0.0
  9
$PUCSORTHOREF
  2

  9
$PUCSORTHOVIEW
 70
     0
  9
$PUCSORGTOP
 10
0.0
 20
0.0
 30
0.0
  9
$PUCSORGBOTTOM
 10
0.0
 20
0.0
 30
0.0
  9
$PUCSORGLEFT
 10
0.0
 20
0.0
 30
0.0
  9
$PUCSORGRIGHT
 10
0.0
 20
0.0
 30
0.0
  9
$PUCSORGFRONT
 10
0.0
 20
0.0
 30
0.0
  9
$PUCSORGBACK
 10
0.0
 20
0.0
 30
0.0
  9
$USERI1
 70
     0
  9
$USERI2
 70
     0
  9
$USERI3
 70
     0
  9
$USERI4
 70
     0
  9
$USERI5
 70
     0
  9
$USERR1
 40
0.0
  9
$USERR2
 40
0.0
  9
$USERR3
 40
0.0
  9
$USERR4
 40
0.0
  9
$USERR5
 40
0.0
  9
$WORLDVIEW
 70
     1
  9
$SHADEDGE
 70
     3
  9
$SHADEDIF
 70
    70
  9
$TILEMODE
 70
     1
  9
$MAXACTVP
 70
    64
  9
$PINSBASE
 10
0.0
 20
0.0
 30
0.0
  9
$PLIMCHECK
 70
     0
  9
$PEXTMIN
 10
1.000000000000000E+20
 20
1.000000000000000E+20
 30
1.000000000000000E+20
  9
$PEXTMAX
 10
-1.000000000000000E+20
 20
-1.000000000000000E+20
 30
-1.000000000000000E+20
  9
$PLIMMIN
 10
0.0
 20
0.0
  9
$PLIMMAX
 10
12.0
 20
9.0
  9
$UNITMODE
 70
     0
  9
$VISRETAIN
 70
     1
  9
$PLINEGEN
 70
     0
  9
$PSLTSCALE
 70
     1
  9
$TREEDEPTH
 70
  3020
  9
$CMLSTYLE
  2
Standard
  9
$CMLJUST
 70
     0
  9
$CMLSCALE
 40
1.0
  9
$PROXYGRAPHICS
 70
     1
  9
$MEASUREMENT
 70
     0
  9
$CELWEIGHT
370
    -1
  9
$ENDCAPS
280
     0
  9
$JOINSTYLE
280
     0
  9
$LWDISPLAY
290
     1
  9
$INSUNITS
 70
     1
  9
$HYPERLINKBASE
  1

  9
$STYLESHEET
  1

  9
$XEDIT
290
     1
  9
$CEPSNTYPE
380
     0
  9
$PSTYLEMODE
290
     1
  9
$FINGERPRINTGUID
  2
{CC9ECA43-1C48-433F-AFF8-0EB1733C19B8}
  9
$VERSIONGUID
  2
{FAEB1C32-E019-11D5-929B-00C0DF256EC4}
  9
$EXTNAMES
290
     1
  9
$PSVPSCALE
 40
0.0
  9
$OLESTARTUP
290
     0
  9
$SORTENTS
280
   127
  9
$INDEXCTL
280
     0
  9
$HIDETEXT
280
     1
  9
$XCLIPFRAME
280
     2
  9
$HALOGAP
280
     0
  9
$OBSCOLOR
 70
   257
  9
$OBSLTYPE
280
     0
  9
$INTERSECTIONDISPLAY
280
     0
  9
$INTERSECTIONCOLOR
 70
   257
  9
$DIMASSOC
280
     2
  9
$PROJECTNAME
  1

  9
$CAMERADISPLAY
290
     0
  9
$LENSLENGTH
 40
50.0
  9
$CAMERAHEIGHT
 40
0.0
  9
$STEPSPERSEC
 40
2.0
  9
$STEPSIZE
 40
6.0
  9
$3DDWFPREC
 40
2.0
  9
$PSOLWIDTH
 40
0.25
  9
$PSOLHEIGHT
 40
4.0
  9
$LOFTANG1
 40
1.570796326794897
  9
$LOFTANG2
 40
1.570796326794897
  9
$LOFTMAG1
 40
0.0
  9
$LOFTMAG2
 40
0.0
  9
$LOFTPARAM
 70
     7
  9
$LOFTNORMALS
280
     1
  9
$LATITUDE
 40
37.795
  9
$LONGITUDE
 40
-122.394
  9
$NORTHDIRECTION
 40
0.0
  9
$TIMEZONE
 70
 -8000
  9
$LIGHTGLYPHDISPLAY
280
     1
  9
$TILEMODELIGHTSYNCH
280
     1
  9
$CMATERIAL
347
3C
  9
$SOLIDHIST
280
     1
  9
$SHOWHIST
280
     1
  9
$DWFFRAME
280
     2
  9
$DGNFRAME
280
     2
  9
$REALWORLDSCALE
290
     1
  9
$INTERFERECOLOR
 62
   256
  9
$CSHADOW
280
     0
  9
$SHADOWPLANELOCATION
 40
0.0
  0
ENDSEC
  0
SECTION
  2
CLASSES
  0
CLASS
  1
ACDBDICTIONARYWDFLT
  2
AcDbDictionaryWithDefault
  3
ObjectDBX Classes
 90
        0
 91
        4
280
     0
281
     0
  0
CLASS
  1
VISUALSTYLE
  2
AcDbVisualStyle
  3
ObjectDBX Classes
 90
     4095
 91
        4
280
     0
281
     0
  0
CLASS
  1
MATERIAL
  2
AcDbMaterial
  3
ObjectDBX Classes
 90
     1153
 91
        4
280
     0
281
     0
  0
CLASS
  1
SUN
  2
AcDbSun
  3
SCENEOE
 90
     1024
 91
        4
280
     0
281
     0
  0
ENDSEC
  0
SECTION
  2
TABLES
  0
TABLE
  2
VPORT
  5
8
330
0
100
AcDbSymbolTable
 70
     1
  0
VPORT
  5
29
330
8
100
AcDbSymbolTableRecord
100
AcDbViewportTableRecord
  2
*Active
 70
     0
 10
0.0
 20
0.0
 11
1.0
 21
1.0
 12
0.0
 22
0.0
 13
0.0
 23
0.0
 14
0.5
 24
0.5
 15
0.5
 25
0.5
 16
0.0
 26
0.0
 36
1.0
 17
6.3499999984125
 27
-6.3499999984125
 37
0.0
 40
12.699999996825
 41
1.0
 42
50.0
 43
0.0
 44
0.0
 50
0.0
 51
0.0
 71
     0
 72
   100
 73
     1
 74
     3
 75
     0
 76
     0
 77
     0
 78
     0
281
     0
 65
     1
110
0.0
120
0.0
130
0.0
111
1.0
121
0.0
131
0.0
112
0.0
122
1.0
132
0.0
 79
     0
146
0.0
 60
     3
 61
     5
292
     1
282
     1
141
0.0
142
0.0
 63
   250
361
3F
  0
ENDTAB
  0
TABLE
  2
LTYPE
  5
5
330
0
100
AcDbSymbolTable
 70
     1
  0
LTYPE
  5
14
330
5
100
AcDbSymbolTableRecord
100
AcDbLinetypeTableRecord
  2
ByBlock
 70
     0
  3

 72
    65
 73
     0
 40
0.0
  0
LTYPE
  5
15
330
5
100
AcDbSymbolTableRecord
100
AcDbLinetypeTableRecord
  2
ByLayer
 70
     0
  3

 72
    65
 73
     0
 40
0.0
  0
LTYPE
  5
16
330
5
100
AcDbSymbolTableRecord
100
AcDbLinetypeTableRecord
  2
Continuous
 70
     0
  3
Solid line
 72
    65
 73
     0
 40
0.0
  0
ENDTAB
  0
TABLE
  2
LAYER
  5
2
330
0
100
AcDbSymbolTable
 70
     2
  0
LAYER
  5
10
330
2
100
AcDbSymbolTableRecord
100
AcDbLayerTableRecord
  2
0
 70
     0
 62
     7
  6
Continuous
370
    -3
390
F
347
3E
  0
LAYER
  5
40
330
2
100
AcDbSymbolTableRecord
100
AcDbLayerTableRecord
  2
Layer 1
 70
     0
 62
     7
  6
Continuous
370
    -3
390
F
347
3E
  0
ENDTAB
  0
TABLE
  2
STYLE
  5
3
330
0
100
AcDbSymbolTable
 70
     1
  0
STYLE
  5
11
330
3
100
AcDbSymbolTableRecord
100
AcDbTextStyleTableRecord
  2
Standard
 70
     0
 40
0.0
 41
1.0
 50
0.0
 71
     0
 42
0.2
  3
txt
  4

  0
ENDTAB
  0
TABLE
  2
VIEW
  5
6
330
0
100
AcDbSymbolTable
 70
     0
  0
ENDTAB
  0
TABLE
  2
UCS
  5
7
330
0
100
AcDbSymbolTable
 70
     0
  0
ENDTAB
  0
TABLE
  2
APPID
  5
9
330
0
100
AcDbSymbolTable
 70
     1
  0
APPID
  5
12
330
9
100
AcDbSymbolTableRecord
100
AcDbRegAppTableRecord
  2
ACAD
 70
     0
  0
ENDTAB
  0
TABLE
  2
DIMSTYLE
  5
A
330
0
100
AcDbSymbolTable
 70
     1
100
AcDbDimStyleTable
  0
DIMSTYLE
105
27
330
A
100
AcDbSymbolTableRecord
100
AcDbDimStyleTableRecord
  2
Standard
 70
     0
178
     0
340
11
  0
ENDTAB
  0
TABLE
  2
BLOCK_RECORD
  5
1
330
0
100
AcDbSymbolTable
 70
     1
  0
BLOCK_RECORD
  5
1F
330
1
100
AcDbSymbolTableRecord
100
AcDbBlockTableRecord
  2
*Model_Space
340
22
 70
     0
280
     1
281
     0
  0
BLOCK_RECORD
  5
1B
330
1
100
AcDbSymbolTableRecord
100
AcDbBlockTableRecord
  2
*Paper_Space
340
1E
 70
     0
280
     1
281
     0
  0
BLOCK_RECORD
  5
23
330
1
100
AcDbSymbolTableRecord
100
AcDbBlockTableRecord
  2
*Paper_Space0
340
26
 70
     0
280
     1
281
     0
  0
ENDTAB
  0
ENDSEC
  0
SECTION
  2
BLOCKS
  0
BLOCK
  5
20
330
1F
100
AcDbEntity
  8
0
100
AcDbBlockBegin
  2
*Model_Space
 70
     0
 10
0.0
 20
0.0
 30
0.0
  3
*Model_Space
  1

  0
ENDBLK
  5
21
330
1F
100
AcDbEntity
  8
0
100
AcDbBlockEnd
  0
BLOCK
  5
1C
330
1B
100
AcDbEntity
 67
     1
  8
0
100
AcDbBlockBegin
  2
*Paper_Space
 70
     0
 10
0.0
 20
0.0
 30
0.0
  3
*Paper_Space
  1

  0
ENDBLK
  5
1D
330
1B
100
AcDbEntity
 67
     1
  8
0
100
AcDbBlockEnd
  0
BLOCK
  5
24
330
23
100
AcDbEntity
  8
0
100
AcDbBlockBegin
  2
*Paper_Space0
 70
     0
 10
0.0
 20
0.0
 30
0.0
  3
*Paper_Space0
  1

  0
ENDBLK
  5
25
330
23
100
AcDbEntity
  8
0
100
AcDbBlockEnd
  0
ENDSEC
  0
SECTION
  2
ENTITIES
  0
POLYLINE
  5
41
330
1F
100
AcDbEntity
  8
Layer 1
370
     0
100
AcDb2dPolyline
 66
     1
 10
0.0
 20
0.0
 30
0.0
  0
VERTEX
  5
42
330
41
100
AcDbEntity
  8
Layer 1
370
     0
100
AcDbVertex
100
AcDb2dVertex
 10
1.127666402973291
 20
-0.3548615564620869
 30
0.0
  0
VERTEX
  5
43
330
41
100
AcDbEntity
  8
Layer 1
370
     0
100
AcDbVertex
100
AcDb2dVertex
 10
1.022397290418977
 20
-0.3723173507430863
 30
0.0
  0
VERTEX
  5
44
330
41
100
AcDbEntity
  8
Layer 1
370
     0
100
AcDbVertex
100
AcDb2dVertex
 10
0.8249042008506507
 20
-0.4050657960632833
 30
0.0
  0
VERTEX
  5
45
330
41
100
AcDbEntity
  8
Layer 1
370
     0
100
AcDbVertex
100
AcDb2dVertex
 10
0.6970720742767799
 20
-0.4262630095650494
 30
0.0
  0
VERTEX
  5
46
330
41
100
AcDbEntity
  8
Layer 1
370
     0
100
AcDbVertex
100
AcDb2dVertex
 10
0.585149696624393
 20
-0.4477936990447342
 30
0.0
  0
VERTEX
  5
47
330
41
100
AcDbEntity
  8
Layer 1
370
     0
100
AcDbVertex
100
AcDb2dVertex
 10
0.5374817692760773
 20
-0.467198763542162
 30
0.0
  0
VERTEX
  5
48
330
41
100
AcDbEntity
  8
Layer 1
370
     0
100
AcDbVertex
100
AcDb2dVertex
 10
0.4963142628437223
 20
-0.4981500639918376
 30
0.0
  0
VERTEX
  5
49
330
41
100
AcDbEntity
  8
Layer 1
370
     0
100
AcDbVertex
100
AcDb2dVertex
 10
0.453555966989011
 20
-0.5502449908279187
 30
0.0
  0
VERTEX
  5
4A
330
41
100
AcDbEntity
  8
Layer 1
370
     0
100
AcDbVertex
100
AcDb2dVertex
 10
0.4275387720871442
 20
-0.6049321163752337
 30
0.0
  0
VERTEX
  5
4B
330
41
100
AcDbEntity
  8
Layer 1
370
     0
100
AcDbVertex
100
AcDb2dVertex
 10
0.4148098889988378
 20
-0.6786696043309215
 30
0.0
  0
VERTEX
  5
4C
330
41
100
AcDbEntity
  8
Layer 1
370
     0
100
AcDbVertex
100
AcDb2dVertex
 10
0.4230055149146787
 20
-0.7454878973160366
 30
0.0
  0
VERTEX
  5
4D
330
41
100
AcDbEntity
  8
Layer 1
370
     0
100
AcDbVertex
100
AcDb2dVertex
 10
0.4519965290554046
 20
-0.8183045122489104
 30
0.0
  0
VERTEX
  5
4E
330
41
100
AcDbEntity
  8
Layer 1
370
     0
100
AcDbVertex
100
AcDb2dVertex
 10
0.5495633229791723
 20
-1.036252453222607
 30
0.0
  0
VERTEX
  5
4F
330
41
100
AcDbEntity
  8
Layer 1
370
     0
100
AcDbVertex
100
AcDb2dVertex
 10
0.6182026178486391
 20
-1.189580967197073
 30
0.0
  0
VERTEX
  5
50
330
41
100
AcDbEntity
  8
Layer 1
370
     0
100
AcDbVertex
100
AcDb2dVertex
 10
0.6661468531537648
 20
-1.296680478364863
 30
0.0
  0
VERTEX
  5
51
330
41
100
AcDbEntity
  8
Layer 1
370
     0
100
AcDbVertex
100
AcDb2dVertex
 10
0.6970720742767799
 20
-1.336357354708483
 30
0.0
  0
VERTEX
  5
52
330
41
100
AcDbEntity
  8
Layer 1
370
     0
100
AcDbVertex
100
AcDb2dVertex
 10
0.7465151607402913
 20
-1.357722698998631
 30
0.0
  0
VERTEX
  5
53
330
41
100
AcDbEntity
  8
Layer 1
370
     0
100
AcDbVertex
100
AcDb2dVertex
 10
0.7989250094761259
 20
-1.350401050850336
 30
0.0
  0
VERTEX
  5
54
330
41
100
AcDbEntity
  8
Layer 1
370
     0
100
AcDbVertex
100
AcDb2dVertex
 10
0.8249042008506507
 20
-1.335385578648805
 30
0.0
  0
VERTEX
  5
55
330
41
100
AcDbEntity
  8
Layer 1
370
     0
100
AcDbVertex
100
AcDb2dVertex
 10
0.8573533435218579
 20
-1.295478691427809
 30
0.0
  0
VERTEX
  5
56
330
41
100
AcDbEntity
  8
Layer 1
370
     0
100
AcDbVertex
100
AcDb2dVertex
 10
0.8812596514013159
 20
-1.236799653484657
 30
0.0
  0
VERTEX
  5
57
330
41
100
AcDbEntity
  8
Layer 1
370
     0
100
AcDbVertex
100
AcDb2dVertex
 10
0.9051658597951237
 20
-1.167254093871586
 30
0.0
  0
VERTEX
  5
58
330
41
100
AcDbEntity
  8
Layer 1
370
     0
100
AcDbVertex
100
AcDb2dVertex
 10
0.9451441777297094
 20
-1.068385529908779
 30
0.0
  0
VERTEX
  5
59
330
41
100
AcDbEntity
  8
Layer 1
370
     0
100
AcDbVertex
100
AcDb2dVertex
 10
0.9451441777297094
 20
-2.029829504964528
 30
0.0
  0
VERTEX
  5
5A
330
41
100
AcDbEntity
  8
Layer 1
370
     0
100
AcDbVertex
100
AcDb2dVertex
 10
0.7863012723535109
 20
-2.143864958324109
 30
0.0
  0
VERTEX
  5
5B
330
41
100
AcDbEntity
  8
Layer 1
370
     0
100
AcDbVertex
100
AcDb2dVertex
 10
0.9385791181291504
 20
-2.163507210747584
 30
0.0
  0
VERTEX
  5
5C
330
41
100
AcDbEntity
  8
Layer 1
370
     0
100
AcDbVertex
100
AcDb2dVertex
 10
0.6970720742767799
 20
-2.349828556599422
 30
0.0
  0
VERTEX
  5
5D
330
41
100
AcDbEntity
  8
Layer 1
370
     0
100
AcDbVertex
100
AcDb2dVertex
 10
0.9451441777297094
 20
-2.381827526597585
 30
0.0
  0
VERTEX
  5
5E
330
41
100
AcDbEntity
  8
Layer 1
370
     0
100
AcDbVertex
100
AcDb2dVertex
 10
0.9307324840812495
 20
-2.475024312822996
 30
0.0
  0
VERTEX
  5
5F
330
41
100
AcDbEntity
  8
Layer 1
370
     0
100
AcDbVertex
100
AcDb2dVertex
 10
0.9052507210746925
 20
-2.576455329280615
 30
0.0
  0
VERTEX
  5
60
330
41
100
AcDbEntity
  8
Layer 1
370
     0
100
AcDbVertex
100
AcDb2dVertex
 10
0.8692708318476171
 20
-2.679418027168967
 30
0.0
  0
VERTEX
  5
61
330
41
100
AcDbEntity
  8
Layer 1
370
     0
100
AcDbVertex
100
AcDb2dVertex
 10
0.8428932998359697
 20
-2.740196212825019
 30
0.0
  0
VERTEX
  5
62
330
41
100
AcDbEntity
  8
Layer 1
370
     0
100
AcDbVertex
100
AcDb2dVertex
 10
0.8030209341437583
 20
-2.832318354804269
 30
0.0
  0
VERTEX
  5
63
330
41
100
AcDbEntity
  8
Layer 1
370
     0
100
AcDbVertex
100
AcDb2dVertex
 10
0.7390460748237221
 20
-2.919561321407655
 30
0.0
  0
VERTEX
  5
64
330
41
100
AcDbEntity
  8
Layer 1
370
     0
100
AcDbVertex
100
AcDb2dVertex
 10
0.6671118641876282
 20
-3.01198828749081
 30
0.0
  0
VERTEX
  5
65
330
41
100
AcDbEntity
  8
Layer 1
370
     0
100
AcDbVertex
100
AcDb2dVertex
 10
0.5770167428079112
 20
-3.106791568373483
 30
0.0
  0
VERTEX
  5
66
330
41
100
AcDbEntity
  8
Layer 1
370
     0
100
AcDbVertex
100
AcDb2dVertex
 10
0.5005518053677309
 20
-3.191048372998209
 30
0.0
  0
VERTEX
  5
67
330
41
100
AcDbEntity
  8
Layer 1
370
     0
100
AcDbVertex
100
AcDb2dVertex
 10
0.4296692080444122
 20
-3.286515621266445
 30
0.0
  0
VERTEX
  5
68
330
41
100
AcDbEntity
  8
Layer 1
370
     0
100
AcDbVertex
100
AcDb2dVertex
 10
0.3531601487079458
 20
-3.418818634011734
 30
0.0
  0
VERTEX
  5
69
330
41
100
AcDbEntity
  8
Layer 1
370
     0
100
AcDbVertex
100
AcDb2dVertex
 10
0.3163596021593879
 20
-3.499679395682598
 30
0.0
  0
VERTEX
  5
6A
330
41
100
AcDbEntity
  8
Layer 1
370
     0
100
AcDbVertex
100
AcDb2dVertex
 10
0.2799890326920806
 20
-3.602219677400811
 30
0.0
  0
VERTEX
  5
6B
330
41
100
AcDbEntity
  8
Layer 1
370
     0
100
AcDbVertex
100
AcDb2dVertex
 10
0.2530742283001944
 20
-3.708267426027367
 30
0.0
  0
VERTEX
  5
6C
330
41
100
AcDbEntity
  8
Layer 1
370
     0
100
AcDbVertex
100
AcDb2dVertex
 10
0.233147446850226
 20
-3.845050676597403
 30
0.0
  0
VERTEX
  5
6D
330
41
100
AcDbEntity
  8
Layer 1
370
     0
100
AcDbVertex
100
AcDb2dVertex
 10
0.228699939812112
 20
-4.014274215613665
 30
0.0
  0
VERTEX
  5
6E
330
41
100
AcDbEntity
  8
Layer 1
370
     0
100
AcDbVertex
100
AcDb2dVertex
 10
0.228699939812112
 20
-4.275069939805513
 30
0.0
  0
VERTEX
  5
6F
330
41
100
AcDbEntity
  8
Layer 1
370
     0
100
AcDbVertex
100
AcDb2dVertex
 10
0.228699939812112
 20
-4.56644318269118
 30
0.0
  0
VERTEX
  5
70
330
41
100
AcDbEntity
  8
Layer 1
370
     0
100
AcDbVertex
100
AcDb2dVertex
 10
3.621192299742096
 20
-4.595688787186906
 30
0.0
  0
VERTEX
  5
71
330
41
100
AcDbEntity
  8
Layer 1
370
     0
100
AcDbVertex
100
AcDb2dVertex
 10
3.485019095322535
 20
-4.239430987981818
 30
0.0
  0
VERTEX
  5
72
330
41
100
AcDbEntity
  8
Layer 1
370
     0
100
AcDbVertex
100
AcDb2dVertex
 10
3.574604750567792
 20
-4.175398426971089
 30
0.0
  0
VERTEX
  5
73
330
41
100
AcDbEntity
  8
Layer 1
370
     0
100
AcDbVertex
100
AcDb2dVertex
 10
3.646889051289262
 20
-4.111114764120179
 30
0.0
  0
VERTEX
  5
74
330
41
100
AcDbEntity
  8
Layer 1
370
     0
100
AcDbVertex
100
AcDb2dVertex
 10
3.701402425107598
 20
-4.052999610974987
 30
0.0
  0
VERTEX
  5
75
330
41
100
AcDbEntity
  8
Layer 1
370
     0
100
AcDbVertex
100
AcDb2dVertex
 10
3.765521339683033
 20
-3.970334179185106
 30
0.0
  0
VERTEX
  5
76
330
41
100
AcDbEntity
  8
Layer 1
370
     0
100
AcDbVertex
100
AcDb2dVertex
 10
3.821316884862675
 20
-3.880509360380509
 30
0.0
  0
VERTEX
  5
77
330
41
100
AcDbEntity
  8
Layer 1
370
     0
100
AcDbVertex
100
AcDb2dVertex
 10
3.880225137797809
 20
-3.756011794614268
 30
0.0
  0
VERTEX
  5
78
330
41
100
AcDbEntity
  8
Layer 1
370
     0
100
AcDbVertex
100
AcDb2dVertex
 10
3.921107382562691
 20
-3.634375038877879
 30
0.0
  0
VERTEX
  5
79
330
41
100
AcDbEntity
  8
Layer 1
370
     0
100
AcDbVertex
100
AcDb2dVertex
 10
3.941554872028282
 20
-3.5466557348693
 30
0.0
  0
VERTEX
  5
7A
330
41
100
AcDbEntity
  8
Layer 1
370
     0
100
AcDbVertex
100
AcDb2dVertex
 10
3.955072587413835
 20
-3.446422326950433
 30
0.0
  0
VERTEX
  5
7B
330
41
100
AcDbEntity
  8
Layer 1
370
     0
100
AcDbVertex
100
AcDb2dVertex
 10
3.927685773243579
 20
-3.456951492701115
 30
0.0
  0
VERTEX
  5
7C
330
41
100
AcDbEntity
  8
Layer 1
370
     0
100
AcDbVertex
100
AcDb2dVertex
 10
3.802108191004722
 20
-3.477691867989769
 30
0.0
  0
VERTEX
  5
7D
330
41
100
AcDbEntity
  8
Layer 1
370
     0
100
AcDbVertex
100
AcDb2dVertex
 10
3.678330105629887
 20
-3.49631399431617
 30
0.0
  0
VERTEX
  5
7E
330
41
100
AcDbEntity
  8
Layer 1
370
     0
100
AcDbVertex
100
AcDb2dVertex
 10
3.739146095841916
 20
-3.460083301705928
 30
0.0
  0
VERTEX
  5
7F
330
41
100
AcDbEntity
  8
Layer 1
370
     0
100
AcDbVertex
100
AcDb2dVertex
 10
3.801387118842496
 20
-3.396210713658376
 30
0.0
  0
VERTEX
  5
80
330
41
100
AcDbEntity
  8
Layer 1
370
     0
100
AcDbVertex
100
AcDb2dVertex
 10
3.856929572468538
 20
-3.314124089517442
 30
0.0
  0
VERTEX
  5
81
330
41
100
AcDbEntity
  8
Layer 1
370
     0
100
AcDbVertex
100
AcDb2dVertex
 10
3.910194997997304
 20
-3.20465502857595
 30
0.0
  0
VERTEX
  5
82
330
41
100
AcDbEntity
  8
Layer 1
370
     0
100
AcDbVertex
100
AcDb2dVertex
 10
3.941875613839965
 20
-3.116499181431606
 30
0.0
  0
VERTEX
  5
83
330
41
100
AcDbEntity
  8
Layer 1
370
     0
100
AcDbVertex
100
AcDb2dVertex
 10
3.83383915237394
 20
-3.136403513569537
 30
0.0
  0
VERTEX
  5
84
330
41
100
AcDbEntity
  8
Layer 1
370
     0
100
AcDbVertex
100
AcDb2dVertex
 10
3.629719017854638
 20
-3.191009374614141
 30
0.0
  0
VERTEX
  5
85
330
41
100
AcDbEntity
  8
Layer 1
370
     0
100
AcDbVertex
100
AcDb2dVertex
 10
3.668095019530328
 20
-3.134510067779474
 30
0.0
  0
VERTEX
  5
86
330
41
100
AcDbEntity
  8
Layer 1
370
     0
100
AcDbVertex
100
AcDb2dVertex
 10
3.692885655562413
 20
-3.083988457128485
 30
0.0
  0
VERTEX
  5
87
330
41
100
AcDbEntity
  8
Layer 1
370
     0
100
AcDbVertex
100
AcDb2dVertex
 10
3.712288545455185
 20
-2.973374714026602
 30
0.0
  0
VERTEX
  5
88
330
41
100
AcDbEntity
  8
Layer 1
370
     0
100
AcDbVertex
100
AcDb2dVertex
 10
3.707770702045857
 20
-2.873922666588135
 30
0.0
  0
VERTEX
  5
89
330
41
100
AcDbEntity
  8
Layer 1
370
     0
100
AcDbVertex
100
AcDb2dVertex
 10
3.692364748575458
 20
-2.78245931873942
 30
0.0
  0
VERTEX
  5
8A
330
41
100
AcDbEntity
  8
Layer 1
370
     0
100
AcDbVertex
100
AcDb2dVertex
 10
3.675033813644731
 20
-2.705405542178178
 30
0.0
  0
VERTEX
  5
8B
330
41
100
AcDbEntity
  8
Layer 1
370
     0
100
AcDbVertex
100
AcDb2dVertex
 10
3.661809193482722
 20
-2.668419905998008
 30
0.0
  0
VERTEX
  5
8C
330
41
100
AcDbEntity
  8
Layer 1
370
     0
100
AcDbVertex
100
AcDb2dVertex
 10
3.63834641546891
 20
-2.601819201763988
 30
0.0
  0
VERTEX
  5
8D
330
41
100
AcDbEntity
  8
Layer 1
370
     0
100
AcDbVertex
100
AcDb2dVertex
 10
3.574604750567792
 20
-2.693274789730131
 30
0.0
  0
VERTEX
  5
8E
330
41
100
AcDbEntity
  8
Layer 1
370
     0
100
AcDbVertex
100
AcDb2dVertex
 10
3.486104139195676
 20
-2.820397097520966
 30
0.0
  0
VERTEX
  5
8F
330
41
100
AcDbEntity
  8
Layer 1
370
     0
100
AcDbVertex
100
AcDb2dVertex
 10
3.50496119756622
 20
-2.746087555444054
 30
0.0
  0
VERTEX
  5
90
330
41
100
AcDbEntity
  8
Layer 1
370
     0
100
AcDbVertex
100
AcDb2dVertex
 10
3.508776539472413
 20
-2.715185381835381
 30
0.0
  0
VERTEX
  5
91
330
41
100
AcDbEntity
  8
Layer 1
370
     0
100
AcDbVertex
100
AcDb2dVertex
 10
3.506815610522088
 20
-2.660291906420116
 30
0.0
  0
VERTEX
  5
92
330
41
100
AcDbEntity
  8
Layer 1
370
     0
100
AcDbVertex
100
AcDb2dVertex
 10
3.498403606220726
 20
-2.599212542574929
 30
0.0
  0
VERTEX
  5
93
330
41
100
AcDbEntity
  8
Layer 1
370
     0
100
AcDbVertex
100
AcDb2dVertex
 10
3.481977221366668
 20
-2.540305618008688
 30
0.0
  0
VERTEX
  5
94
330
41
100
AcDbEntity
  8
Layer 1
370
     0
100
AcDbVertex
100
AcDb2dVertex
 10
3.455802407995954
 20
-2.469602741554705
 30
0.0
  0
VERTEX
  5
95
330
41
100
AcDbEntity
  8
Layer 1
370
     0
100
AcDbVertex
100
AcDb2dVertex
 10
3.420498656568499
 20
-2.400480493482817
 30
0.0
  0
VERTEX
  5
96
330
41
100
AcDbEntity
  8
Layer 1
370
     0
100
AcDbVertex
100
AcDb2dVertex
 10
3.361211120276249
 20
-2.305777352827433
 30
0.0
  0
VERTEX
  5
97
330
41
100
AcDbEntity
  8
Layer 1
370
     0
100
AcDbVertex
100
AcDb2dVertex
 10
3.315021955708414
 20
-2.245502507040149
 30
0.0
  0
VERTEX
  5
98
330
41
100
AcDbEntity
  8
Layer 1
370
     0
100
AcDbVertex
100
AcDb2dVertex
 10
3.320461036455239
 20
-2.395039224051144
 30
0.0
  0
VERTEX
  5
99
330
41
100
AcDbEntity
  8
Layer 1
370
     0
100
AcDbVertex
100
AcDb2dVertex
 10
3.319020483901606
 20
-2.443115675816476
 30
0.0
  0
VERTEX
  5
9A
330
41
100
AcDbEntity
  8
Layer 1
370
     0
100
AcDbVertex
100
AcDb2dVertex
 10
3.310055630882512
 20
-2.516056979926362
 30
0.0
  0
VERTEX
  5
9B
330
41
100
AcDbEntity
  8
Layer 1
370
     0
100
AcDbVertex
100
AcDb2dVertex
 10
3.299868297906255
 20
-2.555176338555173
 30
0.0
  0
VERTEX
  5
9C
330
41
100
AcDbEntity
  8
Layer 1
370
     0
100
AcDbVertex
100
AcDb2dVertex
 10
3.285982840015379
 20
-2.523814537337223
 30
0.0
  0
VERTEX
  5
9D
330
41
100
AcDbEntity
  8
Layer 1
370
     0
100
AcDbVertex
100
AcDb2dVertex
 10
3.270461526619326
 20
-2.501533066438092
 30
0.0
  0
VERTEX
  5
9E
330
41
100
AcDbEntity
  8
Layer 1
370
     0
100
AcDbVertex
100
AcDb2dVertex
 10
3.241987278748399
 20
-2.472329373955501
 30
0.0
  0
VERTEX
  5
9F
330
41
100
AcDbEntity
  8
Layer 1
370
     0
100
AcDbVertex
100
AcDb2dVertex
 10
3.225704513839175
 20
-2.45846459083401
 30
0.0
  0
VERTEX
  5
A0
330
41
100
AcDbEntity
  8
Layer 1
370
     0
100
AcDbVertex
100
AcDb2dVertex
 10
3.206688158950186
 20
-2.445968129049823
 30
0.0
  0
VERTEX
  5
A1
330
41
100
AcDbEntity
  8
Layer 1
370
     0
100
AcDbVertex
100
AcDb2dVertex
 10
3.155822991106418
 20
-2.418815106212546
 30
0.0
  0
VERTEX
  5
A2
330
41
100
AcDbEntity
  8
Layer 1
370
     0
100
AcDbVertex
100
AcDb2dVertex
 10
3.107960746120771
 20
-2.401960634418089
 30
0.0
  0
VERTEX
  5
A3
330
41
100
AcDbEntity
  8
Layer 1
370
     0
100
AcDbVertex
100
AcDb2dVertex
 10
3.048576295999864
 20
-2.388214725311024
 30
0.0
  0
VERTEX
  5
A4
330
41
100
AcDbEntity
  8
Layer 1
370
     0
100
AcDbVertex
100
AcDb2dVertex
 10
2.996767065122161
 20
-2.381110115892593
 30
0.0
  0
VERTEX
  5
A5
330
41
100
AcDbEntity
  8
Layer 1
370
     0
100
AcDbVertex
100
AcDb2dVertex
 10
2.903415699940835
 20
-2.377952360639651
 30
0.0
  0
VERTEX
  5
A6
330
41
100
AcDbEntity
  8
Layer 1
370
     0
100
AcDbVertex
100
AcDb2dVertex
 10
2.94453976308368
 20
-2.425302410188474
 30
0.0
  0
VERTEX
  5
A7
330
41
100
AcDbEntity
  8
Layer 1
370
     0
100
AcDbVertex
100
AcDb2dVertex
 10
3.035286244597896
 20
-2.52147481193571
 30
0.0
  0
VERTEX
  5
A8
330
41
100
AcDbEntity
  8
Layer 1
370
     0
100
AcDbVertex
100
AcDb2dVertex
 10
3.118066984148594
 20
-2.6206058773945
 30
0.0
  0
VERTEX
  5
A9
330
41
100
AcDbEntity
  8
Layer 1
370
     0
100
AcDbVertex
100
AcDb2dVertex
 10
3.145020836667324
 20
-2.652974735127136
 30
0.0
  0
VERTEX
  5
AA
330
41
100
AcDbEntity
  8
Layer 1
370
     0
100
AcDbVertex
100
AcDb2dVertex
 10
3.191475075038981
 20
-2.725508545918
 30
0.0
  0
VERTEX
  5
AB
330
41
100
AcDbEntity
  8
Layer 1
370
     0
100
AcDbVertex
100
AcDb2dVertex
 10
3.140532043074676
 20
-2.721919301785981
 30
0.0
  0
VERTEX
  5
AC
330
41
100
AcDbEntity
  8
Layer 1
370
     0
100
AcDbVertex
100
AcDb2dVertex
 10
3.039344169603301
 20
-2.718988652813198
 30
0.0
  0
VERTEX
  5
AD
330
41
100
AcDbEntity
  8
Layer 1
370
     0
100
AcDbVertex
100
AcDb2dVertex
 10
2.859843163590536
 20
-2.707400561552707
 30
0.0
  0
VERTEX
  5
AE
330
41
100
AcDbEntity
  8
Layer 1
370
     0
100
AcDbVertex
100
AcDb2dVertex
 10
2.871185326265873
 20
-2.744253238594265
 30
0.0
  0
VERTEX
  5
AF
330
41
100
AcDbEntity
  8
Layer 1
370
     0
100
AcDbVertex
100
AcDb2dVertex
 10
2.90509263045496
 20
-2.802558210404707
 30
0.0
  0
VERTEX
  5
B0
330
41
100
AcDbEntity
  8
Layer 1
370
     0
100
AcDbVertex
100
AcDb2dVertex
 10
2.939433585679589
 20
-2.854973293033369
 30
0.0
  0
VERTEX
  5
B1
330
41
100
AcDbEntity
  8
Layer 1
370
     0
100
AcDbVertex
100
AcDb2dVertex
 10
2.971428682752097
 20
-2.898285713195087
 30
0.0
  0
VERTEX
  5
B2
330
41
100
AcDbEntity
  8
Layer 1
370
     0
100
AcDbVertex
100
AcDb2dVertex
 10
3.009353218441001
 20
-2.932704572717769
 30
0.0
  0
VERTEX
  5
B3
330
41
100
AcDbEntity
  8
Layer 1
370
     0
100
AcDbVertex
100
AcDb2dVertex
 10
3.056023343201237
 20
-2.969241308771522
 30
0.0
  0
VERTEX
  5
B4
330
41
100
AcDbEntity
  8
Layer 1
370
     0
100
AcDbVertex
100
AcDb2dVertex
 10
3.12634234665369
 20
-3.005348927480141
 30
0.0
  0
VERTEX
  5
B5
330
41
100
AcDbEntity
  8
Layer 1
370
     0
100
AcDbVertex
100
AcDb2dVertex
 10
3.179712202455562
 20
-3.022456015459347
 30
0.0
  0
VERTEX
  5
B6
330
41
100
AcDbEntity
  8
Layer 1
370
     0
100
AcDbVertex
100
AcDb2dVertex
 10
3.267540627242536
 20
-3.031943521843396
 30
0.0
  0
VERTEX
  5
B7
330
41
100
AcDbEntity
  8
Layer 1
370
     0
100
AcDbVertex
100
AcDb2dVertex
 10
2.97345082855365
 20
-3.093244405228522
 30
0.0
  0
VERTEX
  5
B8
330
41
100
AcDbEntity
  8
Layer 1
370
     0
100
AcDbVertex
100
AcDb2dVertex
 10
3.024222347216698
 20
-3.17367916924504
 30
0.0
  0
VERTEX
  5
B9
330
41
100
AcDbEntity
  8
Layer 1
370
     0
100
AcDbVertex
100
AcDb2dVertex
 10
3.088647876638126
 20
-3.235344369166883
 30
0.0
  0
VERTEX
  5
BA
330
41
100
AcDbEntity
  8
Layer 1
370
     0
100
AcDbVertex
100
AcDb2dVertex
 10
3.177702278386342
 20
-3.285499275624975
 30
0.0
  0
VERTEX
  5
BB
330
41
100
AcDbEntity
  8
Layer 1
370
     0
100
AcDbVertex
100
AcDb2dVertex
 10
3.256484585364447
 20
-3.313981029118802
 30
0.0
  0
VERTEX
  5
BC
330
41
100
AcDbEntity
  8
Layer 1
370
     0
100
AcDbVertex
100
AcDb2dVertex
 10
3.413151440602082
 20
-3.335118551216424
 30
0.0
  0
VERTEX
  5
BD
330
41
100
AcDbEntity
  8
Layer 1
370
     0
100
AcDbVertex
100
AcDb2dVertex
 10
3.153281331117365
 20
-3.385369560835246
 30
0.0
  0
VERTEX
  5
BE
330
41
100
AcDbEntity
  8
Layer 1
370
     0
100
AcDbVertex
100
AcDb2dVertex
 10
3.073455618394596
 20
-3.399693906062306
 30
0.0
  0
VERTEX
  5
BF
330
41
100
AcDbEntity
  8
Layer 1
370
     0
100
AcDbVertex
100
AcDb2dVertex
 10
3.198087688791575
 20
-3.500736331478859
 30
0.0
  0
VERTEX
  5
C0
330
41
100
AcDbEntity
  8
Layer 1
370
     0
100
AcDbVertex
100
AcDb2dVertex
 10
3.264720407367411
 20
-3.541728806370131
 30
0.0
  0
VERTEX
  5
C1
330
41
100
AcDbEntity
  8
Layer 1
370
     0
100
AcDbVertex
100
AcDb2dVertex
 10
3.342144535929557
 20
-3.576789149516179
 30
0.0
  0
VERTEX
  5
C2
330
41
100
AcDbEntity
  8
Layer 1
370
     0
100
AcDbVertex
100
AcDb2dVertex
 10
3.432711119916456
 20
-3.599174221960705
 30
0.0
  0
VERTEX
  5
C3
330
41
100
AcDbEntity
  8
Layer 1
370
     0
100
AcDbVertex
100
AcDb2dVertex
 10
3.375213573832946
 20
-3.604247593371421
 30
0.0
  0
VERTEX
  5
C4
330
41
100
AcDbEntity
  8
Layer 1
370
     0
100
AcDbVertex
100
AcDb2dVertex
 10
3.252275545485929
 20
-3.626015058754232
 30
0.0
  0
VERTEX
  5
C5
330
41
100
AcDbEntity
  8
Layer 1
370
     0
100
AcDbVertex
100
AcDb2dVertex
 10
3.206920026893448
 20
-3.633230555688821
 30
0.0
  0
VERTEX
  5
C6
330
41
100
AcDbEntity
  8
Layer 1
370
     0
100
AcDbVertex
100
AcDb2dVertex
 10
3.176902811513315
 20
-3.634434730282056
 30
0.0
  0
VERTEX
  5
C7
330
41
100
AcDbEntity
  8
Layer 1
370
     0
100
AcDbVertex
100
AcDb2dVertex
 10
3.176902811513315
 20
-3.634434730282056
 30
0.0
  0
VERTEX
  5
C8
330
41
100
AcDbEntity
  8
Layer 1
370
     0
100
AcDbVertex
100
AcDb2dVertex
 10
3.118066188263168
 20
-3.539045478781925
 30
0.0
  0
VERTEX
  5
C9
330
41
100
AcDbEntity
  8
Layer 1
370
     0
100
AcDbVertex
100
AcDb2dVertex
 10
3.003484757526891
 20
-3.353591449032495
 30
0.0
  0
VERTEX
  5
CA
330
41
100
AcDbEntity
  8
Layer 1
370
     0
100
AcDbVertex
100
AcDb2dVertex
 10
2.925330205149223
 20
-3.25675647172364
 30
0.0
  0
VERTEX
  5
CB
330
41
100
AcDbEntity
  8
Layer 1
370
     0
100
AcDbVertex
100
AcDb2dVertex
 10
2.850539462367163
 20
-3.157778970948216
 30
0.0
  0
VERTEX
  5
CC
330
41
100
AcDbEntity
  8
Layer 1
370
     0
100
AcDbVertex
100
AcDb2dVertex
 10
2.721276731806953
 20
-2.998235189001522
 30
0.0
  0
VERTEX
  5
CD
330
41
100
AcDbEntity
  8
Layer 1
370
     0
100
AcDbVertex
100
AcDb2dVertex
 10
2.574312913286507
 20
-2.832318553775634
 30
0.0
  0
VERTEX
  5
CE
330
41
100
AcDbEntity
  8
Layer 1
370
     0
100
AcDbVertex
100
AcDb2dVertex
 10
2.479141535411545
 20
-2.732555912064206
 30
0.0
  0
VERTEX
  5
CF
330
41
100
AcDbEntity
  8
Layer 1
370
     0
100
AcDbVertex
100
AcDb2dVertex
 10
2.368503517805282
 20
-2.620835291357846
 30
0.0
  0
VERTEX
  5
D0
330
41
100
AcDbEntity
  8
Layer 1
370
     0
100
AcDbVertex
100
AcDb2dVertex
 10
2.315578134308852
 20
-2.558600436468987
 30
0.0
  0
VERTEX
  5
D1
330
41
100
AcDbEntity
  8
Layer 1
370
     0
100
AcDbVertex
100
AcDb2dVertex
 10
2.363345185629282
 20
-2.558741109211446
 30
0.0
  0
VERTEX
  5
D2
330
41
100
AcDbEntity
  8
Layer 1
370
     0
100
AcDbVertex
100
AcDb2dVertex
 10
2.292086184259913
 20
-2.466376222188648
 30
0.0
  0
VERTEX
  5
D3
330
41
100
AcDbEntity
  8
Layer 1
370
     0
100
AcDbVertex
100
AcDb2dVertex
 10
2.241498515121661
 20
-2.400805214721437
 30
0.0
  0
VERTEX
  5
D4
330
41
100
AcDbEntity
  8
Layer 1
370
     0
100
AcDbVertex
100
AcDb2dVertex
 10
2.191101261562688
 20
-2.329483935320345
 30
0.0
  0
VERTEX
  5
D5
330
41
100
AcDbEntity
  8
Layer 1
370
     0
100
AcDbVertex
100
AcDb2dVertex
 10
2.343186403588518
 20
-2.343900404281168
 30
0.0
  0
VERTEX
  5
D6
330
41
100
AcDbEntity
  8
Layer 1
370
     0
100
AcDbVertex
100
AcDb2dVertex
 10
2.209634049754204
 20
-2.205837171034641
 30
0.0
  0
VERTEX
  5
D7
330
41
100
AcDbEntity
  8
Layer 1
370
     0
100
AcDbVertex
100
AcDb2dVertex
 10
2.299324562899427
 20
-1.842950641397849
 30
0.0
  0
VERTEX
  5
D8
330
41
100
AcDbEntity
  8
Layer 1
370
     0
100
AcDbVertex
100
AcDb2dVertex
 10
2.364601291744121
 20
-1.5918478063845
 30
0.0
  0
VERTEX
  5
D9
330
41
100
AcDbEntity
  8
Layer 1
370
     0
100
AcDbVertex
100
AcDb2dVertex
 10
2.445368934824528
 20
-1.281154047743735
 30
0.0
  0
VERTEX
  5
DA
330
41
100
AcDbEntity
  8
Layer 1
370
     0
100
AcDbVertex
100
AcDb2dVertex
 10
2.472047410998762
 20
-1.500954212988483
 30
0.0
  0
VERTEX
  5
DB
330
41
100
AcDbEntity
  8
Layer 1
370
     0
100
AcDbVertex
100
AcDb2dVertex
 10
2.484181280664553
 20
-1.539030464329612
 30
0.0
  0
VERTEX
  5
DC
330
41
100
AcDbEntity
  8
Layer 1
370
     0
100
AcDbVertex
100
AcDb2dVertex
 10
2.499275048091203
 20
-1.559501332928475
 30
0.0
  0
VERTEX
  5
DD
330
41
100
AcDbEntity
  8
Layer 1
370
     0
100
AcDbVertex
100
AcDb2dVertex
 10
2.540181766331797
 20
-1.585831410273737
 30
0.0
  0
VERTEX
  5
DE
330
41
100
AcDbEntity
  8
Layer 1
370
     0
100
AcDbVertex
100
AcDb2dVertex
 10
2.576522490097064
 20
-1.59179378566373
 30
0.0
  0
VERTEX
  5
DF
330
41
100
AcDbEntity
  8
Layer 1
370
     0
100
AcDbVertex
100
AcDb2dVertex
 10
2.621614570625858
 20
-1.580604532468676
 30
0.0
  0
VERTEX
  5
E0
330
41
100
AcDbEntity
  8
Layer 1
370
     0
100
AcDbVertex
100
AcDb2dVertex
 10
2.77565898350749
 20
-1.403142385850605
 30
0.0
  0
VERTEX
  5
E1
330
41
100
AcDbEntity
  8
Layer 1
370
     0
100
AcDbVertex
100
AcDb2dVertex
 10
3.007131504378237
 20
-1.115415790330569
 30
0.0
  0
VERTEX
  5
E2
330
41
100
AcDbEntity
  8
Layer 1
370
     0
100
AcDbVertex
100
AcDb2dVertex
 10
3.042613467808998
 20
-1.055946637167718
 30
0.0
  0
VERTEX
  5
E3
330
41
100
AcDbEntity
  8
Layer 1
370
     0
100
AcDbVertex
100
AcDb2dVertex
 10
3.061829523606795
 20
-0.9890437155024124
 30
0.0
  0
VERTEX
  5
E4
330
41
100
AcDbEntity
  8
Layer 1
370
     0
100
AcDbVertex
100
AcDb2dVertex
 10
3.059306765895762
 20
-0.9259567658191795
 30
0.0
  0
VERTEX
  5
E5
330
41
100
AcDbEntity
  8
Layer 1
370
     0
100
AcDbVertex
100
AcDb2dVertex
 10
3.034349391874749
 20
-0.8470894980758555
 30
0.0
  0
VERTEX
  5
E6
330
41
100
AcDbEntity
  8
Layer 1
370
     0
100
AcDbVertex
100
AcDb2dVertex
 10
2.992243672295947
 20
-0.7883373381625798
 30
0.0
  0
VERTEX
  5
E7
330
41
100
AcDbEntity
  8
Layer 1
370
     0
100
AcDbVertex
100
AcDb2dVertex
 10
2.962746965960104
 20
-0.7623542668468005
 30
0.0
  0
VERTEX
  5
E8
330
41
100
AcDbEntity
  8
Layer 1
370
     0
100
AcDbVertex
100
AcDb2dVertex
 10
2.348207445534934
 20
-0.4806570005750957
 30
0.0
  0
VERTEX
  5
E9
330
41
100
AcDbEntity
  8
Layer 1
370
     0
100
AcDbVertex
100
AcDb2dVertex
 10
2.293903190602469
 20
-0.4614756652773836
 30
0.0
  0
VERTEX
  5
EA
330
41
100
AcDbEntity
  8
Layer 1
370
     0
100
AcDbVertex
100
AcDb2dVertex
 10
2.093162590190962
 20
-0.408762335494226
 30
0.0
  0
VERTEX
  5
EB
330
41
100
AcDbEntity
  8
Layer 1
370
     0
100
AcDbVertex
100
AcDb2dVertex
 10
2.14728418942669
 20
-0.2798373339244654
 30
0.0
  0
VERTEX
  5
EC
330
41
100
AcDbEntity
  8
Layer 1
370
     0
100
AcDbVertex
100
AcDb2dVertex
 10
1.926095502635564
 20
-0.361014907722917
 30
0.0
  0
VERTEX
  5
ED
330
41
100
AcDbEntity
  8
Layer 1
370
     0
100
AcDbVertex
100
AcDb2dVertex
 10
1.942061361476985
 20
-0.1943897106582218
 30
0.0
  0
VERTEX
  5
EE
330
41
100
AcDbEntity
  8
Layer 1
370
     0
100
AcDbVertex
100
AcDb2dVertex
 10
1.709131375488069
 20
-0.3439917897567992
 30
0.0
  0
VERTEX
  5
EF
330
41
100
AcDbEntity
  8
Layer 1
370
     0
100
AcDbVertex
100
AcDb2dVertex
 10
1.54411548355087
 20
-0.3332830274938203
 30
0.0
  0
VERTEX
  5
F0
330
41
100
AcDbEntity
  8
Layer 1
370
     0
100
AcDbVertex
100
AcDb2dVertex
 10
1.400677835245359
 20
-0.3332830274938203
 30
0.0
  0
VERTEX
  5
F1
330
41
100
AcDbEntity
  8
Layer 1
370
     0
100
AcDbVertex
100
AcDb2dVertex
 10
1.278752060634199
 20
-0.3360652644089241
 30
0.0
  0
VERTEX
  5
F2
330
41
100
AcDbEntity
  8
Layer 1
370
     0
100
AcDbVertex
100
AcDb2dVertex
 10
1.127666402973291
 20
-0.3548615564620869
 30
0.0
  0
SEQEND
  5
F4
330
41
100
AcDbEntity
  8
Layer 1
370
     0
  0
HATCH
  5
F3
330
1F
100
AcDbEntity
  8
Layer 1
 62
     1
100
AcDbHatch
 10
0.0
 20
0.0
 30
0.0
210
0.0
220
0.0
230
1.0
  2
SOLID
 70
     1
 71
     0
 91
        1
 92
        1
 93
      175
 72
     1
 10
1.127666402973291
 20
-0.3548615564620869
 11
1.022397290418977
 21
-0.3723173507430863
 72
     1
 10
1.022397290418977
 20
-0.3723173507430863
 11
0.8249042008506507
 21
-0.4050657960632833
 72
     1
 10
0.8249042008506507
 20
-0.4050657960632833
 11
0.6970720742767799
 21
-0.4262630095650494
 72
     1
 10
0.6970720742767799
 20
-0.4262630095650494
 11
0.585149696624393
 21
-0.4477936990447342
 72
     1
 10
0.585149696624393
 20
-0.4477936990447342
 11
0.5374817692760773
 21
-0.467198763542162
 72
     1
 10
0.5374817692760773
 20
-0.467198763542162
 11
0.4963142628437223
 21
-0.4981500639918376
 72
     1
 10
0.4963142628437223
 20
-0.4981500639918376
 11
0.453555966989011
 21
-0.5502449908279187
 72
     1
 10
0.453555966989011
 20
-0.5502449908279187
 11
0.4275387720871442
 21
-0.6049321163752337
 72
     1
 10
0.4275387720871442
 20
-0.6049321163752337
 11
0.4148098889988378
 21
-0.6786696043309215
 72
     1
 10
0.4148098889988378
 20
-0.6786696043309215
 11
0.4230055149146787
 21
-0.7454878973160366
 72
     1
 10
0.4230055149146787
 20
-0.7454878973160366
 11
0.4519965290554046
 21
-0.8183045122489104
 72
     1
 10
0.4519965290554046
 20
-0.8183045122489104
 11
0.5495633229791723
 21
-1.036252453222607
 72
     1
 10
0.5495633229791723
 20
-1.036252453222607
 11
0.6182026178486391
 21
-1.189580967197073
 72
     1
 10
0.6182026178486391
 20
-1.189580967197073
 11
0.6661468531537648
 21
-1.296680478364863
 72
     1
 10
0.6661468531537648
 20
-1.296680478364863
 11
0.6970720742767799
 21
-1.336357354708483
 72
     1
 10
0.6970720742767799
 20
-1.336357354708483
 11
0.7465151607402913
 21
-1.357722698998631
 72
     1
 10
0.7465151607402913
 20
-1.357722698998631
 11
0.7989250094761259
 21
-1.350401050850336
 72
     1
 10
0.7989250094761259
 20
-1.350401050850336
 11
0.8249042008506507
 21
-1.335385578648805
 72
     1
 10
0.8249042008506507
 20
-1.335385578648805
 11
0.8573533435218579
 21
-1.295478691427809
 72
     1
 10
0.8573533435218579
 20
-1.295478691427809
 11
0.8812596514013159
 21
-1.236799653484657
 72
     1
 10
0.8812596514013159
 20
-1.236799653484657
 11
0.9051658597951237
 21
-1.167254093871586
 72
     1
 10
0.9051658597951237
 20
-1.167254093871586
 11
0.9451441777297094
 21
-1.068385529908779
 72
     1
 10
0.9451441777297094
 20
-1.068385529908779
 11
0.9451441777297094
 21
-2.029829504964528
 72
     1
 10
0.9451441777297094
 20
-2.029829504964528
 11
0.7863012723535109
 21
-2.143864958324109
 72
     1
 10
0.7863012723535109
 20
-2.143864958324109
 11
0.9385791181291504
 21
-2.163507210747584
 72
     1
 10
0.9385791181291504
 20
-2.163507210747584
 11
0.6970720742767799
 21
-2.349828556599422
 72
     1
 10
0.6970720742767799
 20
-2.349828556599422
 11
0.9451441777297094
 21
-2.381827526597585
 72
     1
 10
0.9451441777297094
 20
-2.381827526597585
 11
0.9307324840812495
 21
-2.475024312822996
 72
     1
 10
0.9307324840812495
 20
-2.475024312822996
 11
0.9052507210746925
 21
-2.576455329280615
 72
     1
 10
0.9052507210746925
 20
-2.576455329280615
 11
0.8692708318476171
 21
-2.679418027168967
 72
     1
 10
0.8692708318476171
 20
-2.679418027168967
 11
0.8428932998359697
 21
-2.740196212825019
 72
     1
 10
0.8428932998359697
 20
-2.740196212825019
 11
0.8030209341437583
 21
-2.832318354804269
 72
     1
 10
0.8030209341437583
 20
-2.832318354804269
 11
0.7390460748237221
 21
-2.919561321407655
 72
     1
 10
0.7390460748237221
 20
-2.919561321407655
 11
0.6671118641876282
 21
-3.01198828749081
 72
     1
 10
0.6671118641876282
 20
-3.01198828749081
 11
0.5770167428079112
 21
-3.106791568373483
 72
     1
 10
0.5770167428079112
 20
-3.106791568373483
 11
0.5005518053677309
 21
-3.191048372998209
 72
     1
 10
0.5005518053677309
 20
-3.191048372998209
 11
0.4296692080444122
 21
-3.286515621266445
 72
     1
 10
0.4296692080444122
 20
-3.286515621266445
 11
0.3531601487079458
 21
-3.418818634011734
 72
     1
 10
0.3531601487079458
 20
-3.418818634011734
 11
0.3163596021593879
 21
-3.499679395682598
 72
     1
 10
0.3163596021593879
 20
-3.499679395682598
 11
0.2799890326920806
 21
-3.602219677400811
 72
     1
 10
0.2799890326920806
 20
-3.602219677400811
 11
0.2530742283001944
 21
-3.708267426027367
 72
     1
 10
0.2530742283001944
 20
-3.708267426027367
 11
0.233147446850226
 21
-3.845050676597403
 72
     1
 10
0.233147446850226
 20
-3.845050676597403
 11
0.228699939812112
 21
-4.014274215613665
 72
     1
 10
0.228699939812112
 20
-4.014274215613665
 11
0.228699939812112
 21
-4.275069939805513
 72
     1
 10
0.228699939812112
 20
-4.275069939805513
 11
0.228699939812112
 21
-4.56644318269118
 72
     1
 10
0.228699939812112
 20
-4.56644318269118
 11
3.621192299742096
 21
-4.595688787186906
 72
     1
 10
3.621192299742096
 20
-4.595688787186906
 11
3.485019095322535
 21
-4.239430987981818
 72
     1
 10
3.485019095322535
 20
-4.239430987981818
 11
3.574604750567792
 21
-4.175398426971089
 72
     1
 10
3.574604750567792
 20
-4.175398426971089
 11
3.646889051289262
 21
-4.111114764120179
 72
     1
 10
3.646889051289262
 20
-4.111114764120179
 11
3.701402425107598
 21
-4.052999610974987
 72
     1
 10
3.701402425107598
 20
-4.052999610974987
 11
3.765521339683033
 21
-3.970334179185106
 72
     1
 10
3.765521339683033
 20
-3.970334179185106
 11
3.821316884862675
 21
-3.880509360380509
 72
     1
 10
3.821316884862675
 20
-3.880509360380509
 11
3.880225137797809
 21
-3.756011794614268
 72
     1
 10
3.880225137797809
 20
-3.756011794614268
 11
3.921107382562691
 21
-3.634375038877879
 72
     1
 10
3.921107382562691
 20
-3.634375038877879
 11
3.941554872028282
 21
-3.5466557348693
 72
     1
 10
3.941554872028282
 20
-3.5466557348693
 11
3.955072587413835
 21
-3.446422326950433
 72
     1
 10
3.955072587413835
 20
-3.446422326950433
 11
3.927685773243579
 21
-3.456951492701115
 72
     1
 10
3.927685773243579
 20
-3.456951492701115
 11
3.802108191004722
 21
-3.477691867989769
 72
     1
 10
3.802108191004722
 20
-3.477691867989769
 11
3.678330105629887
 21
-3.49631399431617
 72
     1
 10
3.678330105629887
 20
-3.49631399431617
 11
3.739146095841916
 21
-3.460083301705928
 72
     1
 10
3.739146095841916
 20
-3.460083301705928
 11
3.801387118842496
 21
-3.396210713658376
 72
     1
 10
3.801387118842496
 20
-3.396210713658376
 11
3.856929572468538
 21
-3.314124089517442
 72
     1
 10
3.856929572468538
 20
-3.314124089517442
 11
3.910194997997304
 21
-3.20465502857595
 72
     1
 10
3.910194997997304
 20
-3.20465502857595
 11
3.941875613839965
 21
-3.116499181431606
 72
     1
 10
3.941875613839965
 20
-3.116499181431606
 11
3.83383915237394
 21
-3.136403513569537
 72
     1
 10
3.83383915237394
 20
-3.136403513569537
 11
3.629719017854638
 21
-3.191009374614141
 72
     1
 10
3.629719017854638
 20
-3.191009374614141
 11
3.668095019530328
 21
-3.134510067779474
 72
     1
 10
3.668095019530328
 20
-3.134510067779474
 11
3.692885655562413
 21
-3.083988457128485
 72
     1
 10
3.692885655562413
 20
-3.083988457128485
 11
3.712288545455185
 21
-2.973374714026602
 72
     1
 10
3.712288545455185
 20
-2.973374714026602
 11
3.707770702045857
 21
-2.873922666588135
 72
     1
 10
3.707770702045857
 20
-2.873922666588135
 11
3.692364748575458
 21
-2.78245931873942
 72
     1
 10
3.692364748575458
 20
-2.78245931873942
 11
3.675033813644731
 21
-2.705405542178178
 72
     1
 10
3.675033813644731
 20
-2.705405542178178
 11
3.661809193482722
 21
-2.668419905998008
 72
     1
 10
3.661809193482722
 20
-2.668419905998008
 11
3.63834641546891
 21
-2.601819201763988
 72
     1
 10
3.63834641546891
 20
-2.601819201763988
 11
3.574604750567792
 21
-2.693274789730131
 72
     1
 10
3.574604750567792
 20
-2.693274789730131
 11
3.486104139195676
 21
-2.820397097520966
 72
     1
 10
3.486104139195676
 20
-2.820397097520966
 11
3.50496119756622
 21
-2.746087555444054
 72
     1
 10
3.50496119756622
 20
-2.746087555444054
 11
3.508776539472413
 21
-2.715185381835381
 72
     1
 10
3.508776539472413
 20
-2.715185381835381
 11
3.506815610522088
 21
-2.660291906420116
 72
     1
 10
3.506815610522088
 20
-2.660291906420116
 11
3.498403606220726
 21
-2.599212542574929
 72
     1
 10
3.498403606220726
 20
-2.599212542574929
 11
3.481977221366668
 21
-2.540305618008688
 72
     1
 10
3.481977221366668
 20
-2.540305618008688
 11
3.455802407995954
 21
-2.469602741554705
 72
     1
 10
3.455802407995954
 20
-2.469602741554705
 11
3.420498656568499
 21
-2.400480493482817
 72
     1
 10
3.420498656568499
 20
-2.400480493482817
 11
3.361211120276249
 21
-2.305777352827433
 72
     1
 10
3.361211120276249
 20
-2.305777352827433
 11
3.315021955708414
 21
-2.245502507040149
 72
     1
 10
3.315021955708414
 20
-2.245502507040149
 11
3.320461036455239
 21
-2.395039224051144
 72
     1
 10
3.320461036455239
 20
-2.395039224051144
 11
3.319020483901606
 21
-2.443115675816476
 72
     1
 10
3.319020483901606
 20
-2.443115675816476
 11
3.310055630882512
 21
-2.516056979926362
 72
     1
 10
3.310055630882512
 20
-2.516056979926362
 11
3.299868297906255
 21
-2.555176338555173
 72
     1
 10
3.299868297906255
 20
-2.555176338555173
 11
3.285982840015379
 21
-2.523814537337223
 72
     1
 10
3.285982840015379
 20
-2.523814537337223
 11
3.270461526619326
 21
-2.501533066438092
 72
     1
 10
3.270461526619326
 20
-2.501533066438092
 11
3.241987278748399
 21
-2.472329373955501
 72
     1
 10
3.241987278748399
 20
-2.472329373955501
 11
3.225704513839175
 21
-2.45846459083401
 72
     1
 10
3.225704513839175
 20
-2.45846459083401
 11
3.206688158950186
 21
-2.445968129049823
 72
     1
 10
3.206688158950186
 20
-2.445968129049823
 11
3.155822991106418
 21
-2.418815106212546
 72
     1
 10
3.155822991106418
 20
-2.418815106212546
 11
3.107960746120771
 21
-2.401960634418089
 72
     1
 10
3.107960746120771
 20
-2.401960634418089
 11
3.048576295999864
 21
-2.388214725311024
 72
     1
 10
3.048576295999864
 20
-2.388214725311024
 11
2.996767065122161
 21
-2.381110115892593
 72
     1
 10
2.996767065122161
 20
-2.381110115892593
 11
2.903415699940835
 21
-2.377952360639651
 72
     1
 10
2.903415699940835
 20
-2.377952360639651
 11
2.94453976308368
 21
-2.425302410188474
 72
     1
 10
2.94453976308368
 20
-2.425302410188474
 11
3.035286244597896
 21
-2.52147481193571
 72
     1
 10
3.035286244597896
 20
-2.52147481193571
 11
3.118066984148594
 21
-2.6206058773945
 72
     1
 10
3.118066984148594
 20
-2.6206058773945
 11
3.145020836667324
 21
-2.652974735127136
 72
     1
 10
3.145020836667324
 20
-2.652974735127136
 11
3.191475075038981
 21
-2.725508545918
 72
     1
 10
3.191475075038981
 20
-2.725508545918
 11
3.140532043074676
 21
-2.721919301785981
 72
     1
 10
3.140532043074676
 20
-2.721919301785981
 11
3.039344169603301
 21
-2.718988652813198
 72
     1
 10
3.039344169603301
 20
-2.718988652813198
 11
2.859843163590536
 21
-2.707400561552707
 72
     1
 10
2.859843163590536
 20
-2.707400561552707
 11
2.871185326265873
 21
-2.744253238594265
 72
     1
 10
2.871185326265873
 20
-2.744253238594265
 11
2.90509263045496
 21
-2.802558210404707
 72
     1
 10
2.90509263045496
 20
-2.802558210404707
 11
2.939433585679589
 21
-2.854973293033369
 72
     1
 10
2.939433585679589
 20
-2.854973293033369
 11
2.971428682752097
 21
-2.898285713195087
 72
     1
 10
2.971428682752097
 20
-2.898285713195087
 11
3.009353218441001
 21
-2.932704572717769
 72
     1
 10
3.009353218441001
 20
-2.932704572717769
 11
3.056023343201237
 21
-2.969241308771522
 72
     1
 10
3.056023343201237
 20
-2.969241308771522
 11
3.12634234665369
 21
-3.005348927480141
 72
     1
 10
3.12634234665369
 20
-3.005348927480141
 11
3.179712202455562
 21
-3.022456015459347
 72
     1
 10
3.179712202455562
 20
-3.022456015459347
 11
3.267540627242536
 21
-3.031943521843396
 72
     1
 10
3.267540627242536
 20
-3.031943521843396
 11
2.97345082855365
 21
-3.093244405228522
 72
     1
 10
2.97345082855365
 20
-3.093244405228522
 11
3.024222347216698
 21
-3.17367916924504
 72
     1
 10
3.024222347216698
 20
-3.17367916924504
 11
3.088647876638126
 21
-3.235344369166883
 72
     1
 10
3.088647876638126
 20
-3.235344369166883
 11
3.177702278386342
 21
-3.285499275624975
 72
     1
 10
3.177702278386342
 20
-3.285499275624975
 11
3.256484585364447
 21
-3.313981029118802
 72
     1
 10
3.256484585364447
 20
-3.313981029118802
 11
3.413151440602082
 21
-3.335118551216424
 72
     1
 10
3.413151440602082
 20
-3.335118551216424
 11
3.153281331117365
 21
-3.385369560835246
 72
     1
 10
3.153281331117365
 20
-3.385369560835246
 11
3.073455618394596
 21
-3.399693906062306
 72
     1
 10
3.073455618394596
 20
-3.399693906062306
 11
3.198087688791575
 21
-3.500736331478859
 72
     1
 10
3.198087688791575
 20
-3.500736331478859
 11
3.264720407367411
 21
-3.541728806370131
 72
     1
 10
3.264720407367411
 20
-3.541728806370131
 11
3.342144535929557
 21
-3.576789149516179
 72
     1
 10
3.342144535929557
 20
-3.576789149516179
 11
3.432711119916456
 21
-3.599174221960705
 72
     1
 10
3.432711119916456
 20
-3.599174221960705
 11
3.375213573832946
 21
-3.604247593371421
 72
     1
 10
3.375213573832946
 20
-3.604247593371421
 11
3.252275545485929
 21
-3.626015058754232
 72
     1
 10
3.252275545485929
 20
-3.626015058754232
 11
3.206920026893448
 21
-3.633230555688821
 72
     1
 10
3.206920026893448
 20
-3.633230555688821
 11
3.176902811513315
 21
-3.634434730282056
 72
     1
 10
3.176902811513315
 20
-3.634434730282056
 11
3.118066188263168
 21
-3.539045478781925
 72
     1
 10
3.118066188263168
 20
-3.539045478781925
 11
3.003484757526891
 21
-3.353591449032495
 72
     1
 10
3.003484757526891
 20
-3.353591449032495
 11
2.925330205149223
 21
-3.25675647172364
 72
     1
 10
2.925330205149223
 20
-3.25675647172364
 11
2.850539462367163
 21
-3.157778970948216
 72
     1
 10
2.850539462367163
 20
-3.157778970948216
 11
2.721276731806953
 21
-2.998235189001522
 72
     1
 10
2.721276731806953
 20
-2.998235189001522
 11
2.574312913286507
 21
-2.832318553775634
 72
     1
 10
2.574312913286507
 20
-2.832318553775634
 11
2.479141535411545
 21
-2.732555912064206
 72
     1
 10
2.479141535411545
 20
-2.732555912064206
 11
2.368503517805282
 21
-2.620835291357846
 72
     1
 10
2.368503517805282
 20
-2.620835291357846
 11
2.315578134308852
 21
-2.558600436468987
 72
     1
 10
2.315578134308852
 20
-2.558600436468987
 11
2.363345185629282
 21
-2.558741109211446
 72
     1
 10
2.363345185629282
 20
-2.558741109211446
 11
2.292086184259913
 21
-2.466376222188648
 72
     1
 10
2.292086184259913
 20
-2.466376222188648
 11
2.241498515121661
 21
-2.400805214721437
 72
     1
 10
2.241498515121661
 20
-2.400805214721437
 11
2.191101261562688
 21
-2.329483935320345
 72
     1
 10
2.191101261562688
 20
-2.329483935320345
 11
2.343186403588518
 21
-2.343900404281168
 72
     1
 10
2.343186403588518
 20
-2.343900404281168
 11
2.209634049754204
 21
-2.205837171034641
 72
     1
 10
2.209634049754204
 20
-2.205837171034641
 11
2.299324562899427
 21
-1.842950641397849
 72
     1
 10
2.299324562899427
 20
-1.842950641397849
 11
2.364601291744121
 21
-1.5918478063845
 72
     1
 10
2.364601291744121
 20
-1.5918478063845
 11
2.445368934824528
 21
-1.281154047743735
 72
     1
 10
2.445368934824528
 20
-1.281154047743735
 11
2.472047410998762
 21
-1.500954212988483
 72
     1
 10
2.472047410998762
 20
-1.500954212988483
 11
2.484181280664553
 21
-1.539030464329612
 72
     1
 10
2.484181280664553
 20
-1.539030464329612
 11
2.499275048091203
 21
-1.559501332928475
 72
     1
 10
2.499275048091203
 20
-1.559501332928475
 11
2.540181766331797
 21
-1.585831410273737
 72
     1
 10
2.540181766331797
 20
-1.585831410273737
 11
2.576522490097064
 21
-1.59179378566373
 72
     1
 10
2.576522490097064
 20
-1.59179378566373
 11
2.621614570625858
 21
-1.580604532468676
 72
     1
 10
2.621614570625858
 20
-1.580604532468676
 11
2.77565898350749
 21
-1.403142385850605
 72
     1
 10
2.77565898350749
 20
-1.403142385850605
 11
3.007131504378237
 21
-1.115415790330569
 72
     1
 10
3.007131504378237
 20
-1.115415790330569
 11
3.042613467808998
 21
-1.055946637167718
 72
     1
 10
3.042613467808998
 20
-1.055946637167718
 11
3.061829523606795
 21
-0.9890437155024124
 72
     1
 10
3.061829523606795
 20
-0.9890437155024124
 11
3.059306765895762
 21
-0.9259567658191795
 72
     1
 10
3.059306765895762
 20
-0.9259567658191795
 11
3.034349391874749
 21
-0.8470894980758555
 72
     1
 10
3.034349391874749
 20
-0.8470894980758555
 11
2.992243672295947
 21
-0.7883373381625798
 72
     1
 10
2.992243672295947
 20
-0.7883373381625798
 11
2.962746965960104
 21
-0.7623542668468005
 72
     1
 10
2.962746965960104
 20
-0.7623542668468005
 11
2.348207445534934
 21
-0.4806570005750957
 72
     1
 10
2.348207445534934
 20
-0.4806570005750957
 11
2.293903190602469
 21
-0.4614756652773836
 72
     1
 10
2.293903190602469
 20
-0.4614756652773836
 11
2.093162590190962
 21
-0.408762335494226
 72
     1
 10
2.093162590190962
 20
-0.408762335494226
 11
2.14728418942669
 21
-0.2798373339244654
 72
     1
 10
2.14728418942669
 20
-0.2798373339244654
 11
1.926095502635564
 21
-0.361014907722917
 72
     1
 10
1.926095502635564
 20
-0.361014907722917
 11
1.942061361476985
 21
-0.1943897106582218
 72
     1
 10
1.942061361476985
 20
-0.1943897106582218
 11
1.709131375488069
 21
-0.3439917897567992
 72
     1
 10
1.709131375488069
 20
-0.3439917897567992
 11
1.54411548355087
 21
-0.3332830274938203
 72
     1
 10
1.54411548355087
 20
-0.3332830274938203
 11
1.400677835245359
 21
-0.3332830274938203
 72
     1
 10
1.400677835245359
 20
-0.3332830274938203
 11
1.278752060634199
 21
-0.3360652644089241
 72
     1
 10
1.278752060634199
 20
-0.3360652644089241
 11
1.127666402973291
 21
-0.3548615564620869
 97
        0
 75
     2
 76
     1
 98
        0
  0
ENDSEC
  0
SECTION
  2
OBJECTS
  0
DICTIONARY
  5
C
330
0
100
AcDbDictionary
281
     1
  3
ACAD_GROUP
350
D
  3
ACAD_LAYOUT
350
1A
  3
ACAD_MATERIAL
350
3B
  3
ACAD_MLEADERSTYLE
350
F6
  3
ACAD_MLINESTYLE
350
17
  3
ACAD_PLOTSETTINGS
350
19
  3
ACAD_PLOTSTYLENAME
350
E
  3
ACAD_TABLESTYLE
350
F5
  3
ACAD_VISUALSTYLE
350
2A
  0
SUN
  5
3F
330
29
100
AcDbSun
 90
        1
290
     0
 63
     7
421
 16777215
 40
1.0
291
     1
 91
  2455826
 92
 54000000
292
     0
 70
     2
 71
   256
280
     1
  0
DICTIONARY
  5
D
102
{ACAD_REACTORS
330
C
102
}
330
C
100
AcDbDictionary
281
     1
  0
DICTIONARY
  5
1A
102
{ACAD_REACTORS
330
C
102
}
330
C
100
AcDbDictionary
281
     1
  3
Layout1
350
1E
  3
Layout2
350
26
  3
Model
350
22
  0
DICTIONARY
  5
3B
102
{ACAD_REACTORS
330
C
102
}
330
C
100
AcDbDictionary
281
     1
  3
ByBlock
350
3D
  3
ByLayer
350
3C
  3
Global
350
3E
  0
DICTIONARY
  5
F6
102
{ACAD_REACTORS
330
C
102
}
330
C
100
AcDbDictionary
281
     1
  0
DICTIONARY
  5
17
102
{ACAD_REACTORS
330
C
102
}
330
C
100
AcDbDictionary
281
     1
  3
Standard
350
18
  0
DICTIONARY
  5
19
102
{ACAD_REACTORS
330
C
102
}
330
C
100
AcDbDictionary
281
     1
  0
ACDBDICTIONARYWDFLT
  5
E
102
{ACAD_REACTORS
330
C
102
}
330
C
100
AcDbDictionary
281
     1
  3
Normal
350
F
100
AcDbDictionaryWithDefault
340
F
  0
DICTIONARY
  5
F5
102
{ACAD_REACTORS
330
C
102
}
330
C
100
AcDbDictionary
281
     1
  0
DICTIONARY
  5
2A
102
{ACAD_REACTORS
330
C
102
}
330
C
100
AcDbDictionary
281
     1
  3
2dWireframe
350
2F
  3
3D Hidden
350
31
  3
3dWireframe
350
30
  3
Basic
350
32
  3
Brighten
350
36
  3
ColorChange
350
3A
  3
Conceptual
350
34
  3
Dim
350
35
  3
Facepattern
350
39
  3
Flat
350
2B
  3
FlatWithEdges
350
2C
  3
Gouraud
350
2D
  3
GouraudWithEdges
350
2E
  3
Linepattern
350
38
  3
Realistic
350
33
  3
Thicken
350
37
  0
LAYOUT
  5
1E
102
{ACAD_REACTORS
330
1A
102
}
330
1A
100
AcDbPlotSettings
  1

  2
none_device
  4

  6

 40
0.0
 41
0.0
 42
0.0
 43
0.0
 44
0.0
 45
0.0
 46
0.0
 47
0.0
 48
0.0
 49
0.0
140
0.0
141
0.0
142
1.0
143
1.0
 70
   688
 72
     0
 73
     0
 74
     5
  7

 75
    16
 76
     0
 77
     2
 78
   300
147
1.0
148
0.0
149
0.0
100
AcDbLayout
  1
Layout1
 70
     1
 71
     1
 10
0.0
 20
0.0
 11
12.0
 21
9.0
 12
0.0
 22
0.0
 32
0.0
 14
1.000000000000000E+20
 24
1.000000000000000E+20
 34
1.000000000000000E+20
 15
-1.000000000000000E+20
 25
-1.000000000000000E+20
 35
-1.000000000000000E+20
146
0.0
 13
0.0
 23
0.0
 33
0.0
 16
1.0
 26
0.0
 36
0.0
 17
0.0
 27
1.0
 37
0.0
 76
     0
330
1B
  0
LAYOUT
  5
26
102
{ACAD_REACTORS
330
1A
102
}
330
1A
100
AcDbPlotSettings
  1

  2
none_device
  4

  6

 40
0.0
 41
0.0
 42
0.0
 43
0.0
 44
0.0
 45
0.0
 46
0.0
 47
0.0
 48
0.0
 49
0.0
140
0.0
141
0.0
142
1.0
143
1.0
 70
   688
 72
     0
 73
     0
 74
     5
  7

 75
    16
 76
     0
 77
     2
 78
   300
147
1.0
148
0.0
149
0.0
100
AcDbLayout
  1
Layout2
 70
     1
 71
     2
 10
0.0
 20
0.0
 11
0.0
 21
0.0
 12
0.0
 22
0.0
 32
0.0
 14
0.0
 24
0.0
 34
0.0
 15
0.0
 25
0.0
 35
0.0
146
0.0
 13
0.0
 23
0.0
 33
0.0
 16
1.0
 26
0.0
 36
0.0
 17
0.0
 27
1.0
 37
0.0
 76
     0
330
23
  0
LAYOUT
  5
22
102
{ACAD_REACTORS
330
1A
102
}
330
1A
100
AcDbPlotSettings
  1

  2
none_device
  4

  6

 40
0.0
 41
0.0
 42
0.0
 43
0.0
 44
0.0
 45
0.0
 46
0.0
 47
0.0
 48
0.0
 49
0.0
140
0.0
141
0.0
142
1.0
143
1.0
 70
  1712
 72
     0
 73
     0
 74
     0
  7

 75
     0
 76
     0
 77
     2
 78
   300
147
1.0
148
0.0
149
0.0
100
AcDbLayout
  1
Model
 70
     1
 71
     0
 10
0.0
 20
0.0
 11
12.0
 21
9.0
 12
0.0
 22
0.0
 32
0.0
 14
1.000000000000000E+20
 24
1.000000000000000E+20
 34
1.000000000000000E+20
 15
-1.000000000000000E+20
 25
-1.000000000000000E+20
 35
-1.000000000000000E+20
146
0.0
 13
0.0
 23
0.0
 33
0.0
 16
1.0
 26
0.0
 36
0.0
 17
0.0
 27
1.0
 37
0.0
 76
     0
330
1F
331
29
  0
MATERIAL
  5
3D
102
{ACAD_REACTORS
330
3B
102
}
330
3B
100
AcDbMaterial
  1
ByBlock
 72
     1
 94
      127
  0
MATERIAL
  5
3C
102
{ACAD_REACTORS
330
3B
102
}
330
3B
100
AcDbMaterial
  1
ByLayer
 72
     1
 94
      127
  0
MATERIAL
  5
3E
102
{ACAD_REACTORS
330
3B
102
}
330
3B
100
AcDbMaterial
  1
Global
 72
     1
 94
      127
  0
MLINESTYLE
  5
18
102
{ACAD_REACTORS
330
17
102
}
330
17
100
AcDbMlineStyle
  2
Standard
 70
     0
  3

 62
   256
 51
90.0
 52
90.0
 71
     2
 49
0.5
 62
   256
  6
BYLAYER
 49
-0.5
 62
   256
  6
BYLAYER
  0
ACDBPLACEHOLDER
  5
F
102
{ACAD_REACTORS
330
E
102
}
330
E
  0
VISUALSTYLE
  5
2F
102
{ACAD_REACTORS
330
2A
102
}
330
2A
100
AcDbVisualStyle
  2
2dWireframe
 70
     4
177
     2
291
     0
 71
     0
176
     1
 72
     2
176
     1
 73
     0
176
     1
 90
        0
176
     1
 40
-0.6
176
     1
 41
-30.0
176
     1
 62
     5
 63
     7
421
 16777215
176
     1
 74
     1
176
     1
 91
        4
176
     1
 64
     7
176
     1
 65
   257
176
     1
 75
     1
176
     1
175
     1
176
     1
 42
1.0
176
     1
 92
        0
176
     1
 66
   257
176
     1
 43
1.0
176
     1
 76
     1
176
     1
 77
     6
176
     1
 78
     2
176
     1
 67
     7
176
     1
 79
     5
176
     1
170
     0
176
     1
171
     0
176
     1
290
     0
176
     1
 93
        1
176
     1
 44
0.0
176
     1
173
     0
176
     1
  0
VISUALSTYLE
  5
31
102
{ACAD_REACTORS
330
2A
102
}
330
2A
100
AcDbVisualStyle
  2
3D Hidden
 70
     6
177
     2
291
     0
 71
     1
176
     1
 72
     2
176
     1
 73
     2
176
     1
 90
        0
176
     1
 40
-0.6
176
     1
 41
-30.0
176
     1
 62
     5
 63
     7
421
 16777215
176
     1
 74
     2
176
     1
 91
        2
176
     1
 64
     7
176
     1
 65
   257
176
     1
 75
     2
176
     1
175
     1
176
     1
 42
40.0
176
     1
 92
        0
176
     1
 66
   257
176
     1
 43
1.0
176
     1
 76
     1
176
     1
 77
     6
176
     1
 78
     2
176
     1
 67
     7
176
     1
 79
     3
176
     1
170
     0
176
     1
171
     0
176
     1
290
     0
176
     1
 93
        1
176
     1
 44
0.0
176
     1
173
     0
176
     1
  0
VISUALSTYLE
  5
30
102
{ACAD_REACTORS
330
2A
102
}
330
2A
100
AcDbVisualStyle
  2
3dWireframe
 70
     5
177
     2
291
     0
 71
     0
176
     1
 72
     2
176
     1
 73
     0
176
     1
 90
        0
176
     1
 40
-0.6
176
     1
 41
-30.0
176
     1
 62
     5
 63
     7
421
 16777215
176
     1
 74
     1
176
     1
 91
        4
176
     1
 64
     7
176
     1
 65
   257
176
     1
 75
     1
176
     1
175
     1
176
     1
 42
1.0
176
     1
 92
        0
176
     1
 66
   257
176
     1
 43
1.0
176
     1
 76
     1
176
     1
 77
     6
176
     1
 78
     2
176
     1
 67
     7
176
     1
 79
     5
176
     1
170
     0
176
     1
171
     0
176
     1
290
     0
176
     1
 93
        1
176
     1
 44
0.0
176
     1
173
     0
176
     1
  0
VISUALSTYLE
  5
32
102
{ACAD_REACTORS
330
2A
102
}
330
2A
100
AcDbVisualStyle
  2
Basic
 70
     7
177
     2
291
     1
 71
     1
176
     1
 72
     0
176
     1
 73
     1
176
     1
 90
        0
176
     1
 40
-0.6
176
     1
 41
-30.0
176
     1
 62
     5
 63
     7
421
 16777215
176
     1
 74
     0
176
     1
 91
        4
176
     1
 64
     7
176
     1
 65
   257
176
     1
 75
     1
176
     1
175
     1
176
     1
 42
1.0
176
     1
 92
        8
176
     1
 66
     7
176
     1
 43
1.0
176
     1
 76
     1
176
     1
 77
     6
176
     1
 78
     2
176
     1
 67
     7
176
     1
 79
     5
176
     1
170
     0
176
     1
171
     0
176
     1
290
     0
176
     1
 93
        1
176
     1
 44
0.0
176
     1
173
     0
176
     1
  0
VISUALSTYLE
  5
36
102
{ACAD_REACTORS
330
2A
102
}
330
2A
100
AcDbVisualStyle
  2
Brighten
 70
    12
177
     2
291
     1
 71
     2
176
     1
 72
     2
176
     1
 73
     0
176
     1
 90
        0
176
     1
 40
-0.6
176
     1
 41
-30.0
176
     1
 62
     5
 63
     7
421
 16777215
176
     1
 74
     1
176
     1
 91
        4
176
     1
 64
     7
176
     1
 65
   257
176
     1
 75
     1
176
     1
175
     1
176
     1
 42
1.0
176
     1
 92
        8
176
     1
 66
     7
176
     1
 43
1.0
176
     1
 76
     1
176
     1
 77
     6
176
     1
 78
     2
176
     1
 67
     7
176
     1
 79
     5
176
     1
170
     0
176
     1
171
     0
176
     1
290
     0
176
     1
 93
        1
176
     1
 44
50.0
176
     1
173
     0
176
     1
  0
VISUALSTYLE
  5
3A
102
{ACAD_REACTORS
330
2A
102
}
330
2A
100
AcDbVisualStyle
  2
ColorChange
 70
    16
177
     2
291
     1
 71
     2
176
     1
 72
     2
176
     1
 73
     3
176
     1
 90
        0
176
     1
 40
-0.6
176
     1
 41
-30.0
176
     1
 62
     5
 63
     8
421
  8421504
176
     1
 74
     1
176
     1
 91
        4
176
     1
 64
     7
176
     1
 65
   257
176
     1
 75
     1
176
     1
175
     1
176
     1
 42
1.0
176
     1
 92
        8
176
     1
 66
     8
424
  8421504
176
     1
 43
1.0
176
     1
 76
     1
176
     1
 77
     6
176
     1
 78
     2
176
     1
 67
     7
176
     1
 79
     5
176
     1
170
     0
176
     1
171
     0
176
     1
290
     0
176
     1
 93
        1
176
     1
 44
0.0
176
     1
173
     0
176
     1
  0
VISUALSTYLE
  5
34
102
{ACAD_REACTORS
330
2A
102
}
330
2A
100
AcDbVisualStyle
  2
Conceptual
 70
     9
177
     2
291
     0
 71
     3
176
     1
 72
     2
176
     1
 73
     0
176
     1
 90
        0
176
     1
 40
-0.6
176
     1
 41
-30.0
176
     1
 62
     5
 63
     7
421
 16777215
176
     1
 74
     2
176
     1
 91
        2
176
     1
 64
     7
176
     1
 65
   257
176
     1
 75
     1
176
     1
175
     1
176
     1
 42
40.0
176
     1
 92
        8
176
     1
 66
     7
176
     1
 43
1.0
176
     1
 76
     1
176
     1
 77
     6
176
     1
 78
     2
176
     1
 67
     7
176
     1
 79
     3
176
     1
170
     0
176
     1
171
     0
176
     1
290
     0
176
     1
 93
        1
176
     1
 44
0.0
176
     1
173
     0
176
     1
  0
VISUALSTYLE
  5
35
102
{ACAD_REACTORS
330
2A
102
}
330
2A
100
AcDbVisualStyle
  2
Dim
 70
    11
177
     2
291
     1
 71
     2
176
     1
 72
     2
176
     1
 73
     0
176
     1
 90
        0
176
     1
 40
-0.6
176
     1
 41
-30.0
176
     1
 62
     5
 63
     7
421
 16777215
176
     1
 74
     1
176
     1
 91
        4
176
     1
 64
     7
176
     1
 65
   257
176
     1
 75
     1
176
     1
175
     1
176
     1
 42
1.0
176
     1
 92
        8
176
     1
 66
     7
176
     1
 43
1.0
176
     1
 76
     1
176
     1
 77
     6
176
     1
 78
     2
176
     1
 67
     7
176
     1
 79
     5
176
     1
170
     0
176
     1
171
     0
176
     1
290
     0
176
     1
 93
        1
176
     1
 44
-50.0
176
     1
173
     0
176
     1
  0
VISUALSTYLE
  5
39
102
{ACAD_REACTORS
330
2A
102
}
330
2A
100
AcDbVisualStyle
  2
Facepattern
 70
    15
177
     2
291
     1
 71
     2
176
     1
 72
     2
176
     1
 73
     0
176
     1
 90
        0
176
     1
 40
-0.6
176
     1
 41
-30.0
176
     1
 62
     5
 63
     7
421
 16777215
176
     1
 74
     1
176
     1
 91
        4
176
     1
 64
     7
176
     1
 65
   257
176
     1
 75
     1
176
     1
175
     1
176
     1
 42
1.0
176
     1
 92
        8
176
     1
 66
     7
176
     1
 43
1.0
176
     1
 76
     1
176
     1
 77
     6
176
     1
 78
     2
176
     1
 67
     7
176
     1
 79
     5
176
     1
170
     0
176
     1
171
     0
176
     1
290
     0
176
     1
 93
        1
176
     1
 44
0.0
176
     1
173
     0
176
     1
  0
VISUALSTYLE
  5
2B
102
{ACAD_REACTORS
330
2A
102
}
330
2A
100
AcDbVisualStyle
  2
Flat
 70
     0
177
     2
291
     1
 71
     2
176
     1
 72
     1
176
     1
 73
     1
176
     1
 90
        2
176
     1
 40
-0.6
176
     1
 41
30.0
176
     1
 62
     5
 63
     7
421
 16777215
176
     1
 74
     0
176
     1
 91
        4
176
     1
 64
     7
176
     1
 65
   257
176
     1
 75
     1
176
     1
175
     1
176
     1
 42
1.0
176
     1
 92
        8
176
     1
 66
     7
176
     1
 43
1.0
176
     1
 76
     1
176
     1
 77
     6
176
     1
 78
     2
176
     1
 67
     7
176
     1
 79
     5
176
     1
170
     0
176
     1
171
     0
176
     1
290
     0
176
     1
 93
       13
176
     1
 44
0.0
176
     1
173
     0
176
     1
  0
VISUALSTYLE
  5
2C
102
{ACAD_REACTORS
330
2A
102
}
330
2A
100
AcDbVisualStyle
  2
FlatWithEdges
 70
     1
177
     2
291
     1
 71
     2
176
     1
 72
     1
176
     1
 73
     1
176
     1
 90
        2
176
     1
 40
-0.6
176
     1
 41
30.0
176
     1
 62
     5
 63
     7
421
 16777215
176
     1
 74
     1
176
     1
 91
        4
176
     1
 64
     7
176
     1
 65
   257
176
     1
 75
     1
176
     1
175
     1
176
     1
 42
1.0
176
     1
 92
        0
176
     1
 66
   257
176
     1
 43
1.0
176
     1
 76
     1
176
     1
 77
     6
176
     1
 78
     2
176
     1
 67
     7
176
     1
 79
     5
176
     1
170
     0
176
     1
171
     0
176
     1
290
     0
176
     1
 93
       13
176
     1
 44
0.0
176
     1
173
     0
176
     1
  0
VISUALSTYLE
  5
2D
102
{ACAD_REACTORS
330
2A
102
}
330
2A
100
AcDbVisualStyle
  2
Gouraud
 70
     2
177
     2
291
     1
 71
     2
176
     1
 72
     2
176
     1
 73
     1
176
     1
 90
        2
176
     1
 40
-0.6
176
     1
 41
30.0
176
     1
 62
     5
 63
     7
421
 16777215
176
     1
 74
     0
176
     1
 91
        4
176
     1
 64
     7
176
     1
 65
   257
176
     1
 75
     1
176
     1
175
     1
176
     1
 42
1.0
176
     1
 92
        0
176
     1
 66
     7
176
     1
 43
1.0
176
     1
 76
     1
176
     1
 77
     6
176
     1
 78
     2
176
     1
 67
     7
176
     1
 79
     5
176
     1
170
     0
176
     1
171
     0
176
     1
290
     0
176
     1
 93
       13
176
     1
 44
0.0
176
     1
173
     0
176
     1
  0
VISUALSTYLE
  5
2E
102
{ACAD_REACTORS
330
2A
102
}
330
2A
100
AcDbVisualStyle
  2
GouraudWithEdges
 70
     3
177
     2
291
     1
 71
     2
176
     1
 72
     2
176
     1
 73
     1
176
     1
 90
        2
176
     1
 40
-0.6
176
     1
 41
30.0
176
     1
 62
     5
 63
     7
421
 16777215
176
     1
 74
     1
176
     1
 91
        4
176
     1
 64
     7
176
     1
 65
   257
176
     1
 75
     1
176
     1
175
     1
176
     1
 42
1.0
176
     1
 92
        0
176
     1
 66
   257
176
     1
 43
1.0
176
     1
 76
     1
176
     1
 77
     6
176
     1
 78
     2
176
     1
 67
     7
176
     1
 79
     5
176
     1
170
     0
176
     1
171
     0
176
     1
290
     0
176
     1
 93
       13
176
     1
 44
0.0
176
     1
173
     0
176
     1
  0
VISUALSTYLE
  5
38
102
{ACAD_REACTORS
330
2A
102
}
330
2A
100
AcDbVisualStyle
  2
Linepattern
 70
    14
177
     2
291
     1
 71
     2
176
     1
 72
     2
176
     1
 73
     0
176
     1
 90
        0
176
     1
 40
-0.6
176
     1
 41
-30.0
176
     1
 62
     5
 63
     7
421
 16777215
176
     1
 74
     1
176
     1
 91
        4
176
     1
 64
     7
176
     1
 65
   257
176
     1
 75
     7
176
     1
175
     7
176
     1
 42
1.0
176
     1
 92
        8
176
     1
 66
     7
176
     1
 43
1.0
176
     1
 76
     1
176
     1
 77
     6
176
     1
 78
     2
176
     1
 67
     7
176
     1
 79
     5
176
     1
170
     0
176
     1
171
     0
176
     1
290
     0
176
     1
 93
        1
176
     1
 44
0.0
176
     1
173
     0
176
     1
  0
VISUALSTYLE
  5
33
102
{ACAD_REACTORS
330
2A
102
}
330
2A
100
AcDbVisualStyle
  2
Realistic
 70
     8
177
     2
291
     0
 71
     2
176
     1
 72
     2
176
     1
 73
     0
176
     1
 90
        0
176
     1
 40
-0.6
176
     1
 41
-30.0
176
     1
 62
     5
 63
     7
421
 16777215
176
     1
 74
     1
176
     1
 91
        0
176
     1
 64
     7
176
     1
 65
   257
176
     1
 75
     1
176
     1
175
     1
176
     1
 42
1.0
176
     1
 92
        8
176
     1
 66
     8
424
  7895160
176
     1
 43
1.0
176
     1
 76
     1
176
     1
 77
     6
176
     1
 78
     2
176
     1
 67
     7
176
     1
 79
     5
176
     1
170
     0
176
     1
171
     0
176
     1
290
     0
176
     1
 93
       13
176
     1
 44
0.0
176
     1
173
     0
176
     1
  0
VISUALSTYLE
  5
37
102
{ACAD_REACTORS
330
2A
102
}
330
2A
100
AcDbVisualStyle
  2
Thicken
 70
    13
177
     2
291
     1
 71
     2
176
     1
 72
     2
176
     1
 73
     0
176
     1
 90
        0
176
     1
 40
-0.6
176
     1
 41
-30.0
176
     1
 62
     5
 63
     7
421
 16777215
176
     1
 74
     1
176
     1
 91
        4
176
     1
 64
     7
176
     1
 65
   257
176
     1
 75
     1
176
     1
175
     1
176
     1
 42
1.0
176
     1
 92
       12
176
     1
 66
     7
176
     1
 43
1.0
176
     1
 76
     1
176
     1
 77
     6
176
     1
 78
     2
176
     1
 67
     7
176
     1
 79
     5
176
     1
170
     0
176
     1
171
     0
176
     1
290
     0
176
     1
 93
        1
176
     1
 44
0.0
176
     1
173
     0
176
     1
  0
ENDSEC
  0
EOF
