  0
SECTION
  2
HEADER
  9
$ACADVER
  1
AC1024
  9
$ACADMAINTVER
 70
     6
  9
$DWGCODEPAGE
  3
ANSI_1252
  9
$INSBASE
 10
0.0
 20
0.0
 30
0.0
  9
$EXTMIN
 10
1.000000000000000E+20
 20
1.000000000000000E+20
 30
1.000000000000000E+20
  9
$EXTMAX
 10
-1.000000000000000E+20
 20
-1.000000000000000E+20
 30
-1.000000000000000E+20
  9
$LIMMIN
 10
0.0
 20
0.0
  9
$LIMMAX
 10
12.0
 20
9.0
  9
$ORTHOMODE
 70
     0
  9
$REGENMODE
 70
     1
  9
$FILLMODE
 70
     1
  9
$QTEXTMODE
 70
     0
  9
$MIRRTEXT
 70
     1
  9
$LTSCALE
 40
1.0
  9
$ATTMODE
 70
     1
  9
$TEXTSIZE
 40
0.2
  9
$TRACEWID
 40
0.05
  9
$TEXTSTYLE
  7
Standard
  9
$CLAYER
  8
0
  9
$CELTYPE
  6
ByLayer
  9
$CECOLOR
 62
   256
  9
$CELTSCALE
 40
1.0
  9
$DISPSILH
 70
     0
  9
$DIMSCALE
 40
1.0
  9
$DIMASZ
 40
0.18
  9
$DIMEXO
 40
0.0625
  9
$DIMDLI
 40
0.38
  9
$DIMRND
 40
0.0
  9
$DIMDLE
 40
0.0
  9
$DIMEXE
 40
0.18
  9
$DIMTP
 40
0.0
  9
$DIMTM
 40
0.0
  9
$DIMTXT
 40
0.18
  9
$DIMCEN
 40
0.09
  9
$DIMTSZ
 40
0.0
  9
$DIMTOL
 70
     0
  9
$DIMLIM
 70
     0
  9
$DIMTIH
 70
     1
  9
$DIMTOH
 70
     1
  9
$DIMSE1
 70
     0
  9
$DIMSE2
 70
     0
  9
$DIMTAD
 70
     0
  9
$DIMZIN
 70
     0
  9
$DIMBLK
  1

  9
$DIMASO
 70
     1
  9
$DIMSHO
 70
     1
  9
$DIMPOST
  1

  9
$DIMAPOST
  1

  9
$DIMALT
 70
     0
  9
$DIMALTD
 70
     2
  9
$DIMALTF
 40
25.4
  9
$DIMLFAC
 40
1.0
  9
$DIMTOFL
 70
     0
  9
$DIMTVP
 40
0.0
  9
$DIMTIX
 70
     0
  9
$DIMSOXD
 70
     0
  9
$DIMSAH
 70
     0
  9
$DIMBLK1
  1

  9
$DIMBLK2
  1

  9
$DIMSTYLE
  2
Standard
  9
$DIMCLRD
 70
     0
  9
$DIMCLRE
 70
     0
  9
$DIMCLRT
 70
     0
  9
$DIMTFAC
 40
1.0
  9
$DIMGAP
 40
0.09
  9
$DIMJUST
 70
     0
  9
$DIMSD1
 70
     0
  9
$DIMSD2
 70
     0
  9
$DIMTOLJ
 70
     1
  9
$DIMTZIN
 70
     0
  9
$DIMALTZ
 70
     0
  9
$DIMALTTZ
 70
     0
  9
$DIMUPT
 70
     0
  9
$DIMDEC
 70
     4
  9
$DIMTDEC
 70
     4
  9
$DIMALTU
 70
     2
  9
$DIMALTTD
 70
     2
  9
$DIMTXSTY
  7
Standard
  9
$DIMAUNIT
 70
     0
  9
$DIMADEC
 70
     0
  9
$DIMALTRND
 40
0.0
  9
$DIMAZIN
 70
     0
  9
$DIMDSEP
 70
    46
  9
$DIMATFIT
 70
     3
  9
$DIMFRAC
 70
     0
  9
$DIMLDRBLK
  1

  9
$DIMLUNIT
 70
     2
  9
$DIMLWD
 70
    -2
  9
$DIMLWE
 70
    -2
  9
$DIMTMOVE
 70
     0
  9
$DIMFXL
 40
1.0
  9
$DIMFXLON
 70
     0
  9
$DIMJOGANG
 40
0.7853981633974483
  9
$DIMTFILL
 70
     0
  9
$DIMTFILLCLR
 70
     0
  9
$DIMARCSYM
 70
     0
  9
$DIMLTYPE
  6

  9
$DIMLTEX1
  6

  9
$DIMLTEX2
  6

  9
$DIMTXTDIRECTION
 70
     0
  9
$LUNITS
 70
     2
  9
$LUPREC
 70
     4
  9
$SKETCHINC
 40
0.1
  9
$FILLETRAD
 40
0.5
  9
$AUNITS
 70
     0
  9
$AUPREC
 70
     0
  9
$MENU
  1
.
  9
$ELEVATION
 40
0.0
  9
$PELEVATION
 40
0.0
  9
$THICKNESS
 40
0.0
  9
$LIMCHECK
 70
     0
  9
$CHAMFERA
 40
0.5
  9
$CHAMFERB
 40
0.5
  9
$CHAMFERC
 40
1.0
  9
$CHAMFERD
 40
0.0
  9
$SKPOLY
 70
     0
  9
$TDCREATE
 40
2458380.587688623
  9
$TDUCREATE
 40
2458380.87935529
  9
$TDUPDATE
 40
2458380.587688681
  9
$TDUUPDATE
 40
2458380.879355347
  9
$TDINDWG
 40
0.0000000116
  9
$TDUSRTIMER
 40
0.0000000116
  9
$USRTIMER
 70
     1
  9
$ANGBASE
 50
0.0
  9
$ANGDIR
 70
     0
  9
$PDMODE
 70
     0
  9
$PDSIZE
 40
0.0
  9
$PLINEWID
 40
0.0
  9
$SPLFRAME
 70
     0
  9
$SPLINETYPE
 70
     6
  9
$SPLINESEGS
 70
     8
  9
$HANDSEED
  5
F8
  9
$SURFTAB1
 70
     6
  9
$SURFTAB2
 70
     6
  9
$SURFTYPE
 70
     6
  9
$SURFU
 70
     6
  9
$SURFV
 70
     6
  9
$UCSBASE
  2

  9
$UCSNAME
  2

  9
$UCSORG
 10
0.0
 20
0.0
 30
0.0
  9
$UCSXDIR
 10
1.0
 20
0.0
 30
0.0
  9
$UCSYDIR
 10
0.0
 20
1.0
 30
0.0
  9
$UCSORTHOREF
  2

  9
$UCSORTHOVIEW
 70
     0
  9
$UCSORGTOP
 10
0.0
 20
0.0
 30
0.0
  9
$UCSORGBOTTOM
 10
0.0
 20
0.0
 30
0.0
  9
$UCSORGLEFT
 10
0.0
 20
0.0
 30
0.0
  9
$UCSORGRIGHT
 10
0.0
 20
0.0
 30
0.0
  9
$UCSORGFRONT
 10
0.0
 20
0.0
 30
0.0
  9
$UCSORGBACK
 10
0.0
 20
0.0
 30
0.0
  9
$PUCSBASE
  2

  9
$PUCSNAME
  2

  9
$PUCSORG
 10
0.0
 20
0.0
 30
0.0
  9
$PUCSXDIR
 10
1.0
 20
0.0
 30
0.0
  9
$PUCSYDIR
 10
0.0
 20
1.0
 30
0.0
  9
$PUCSORTHOREF
  2

  9
$PUCSORTHOVIEW
 70
     0
  9
$PUCSORGTOP
 10
0.0
 20
0.0
 30
0.0
  9
$PUCSORGBOTTOM
 10
0.0
 20
0.0
 30
0.0
  9
$PUCSORGLEFT
 10
0.0
 20
0.0
 30
0.0
  9
$PUCSORGRIGHT
 10
0.0
 20
0.0
 30
0.0
  9
$PUCSORGFRONT
 10
0.0
 20
0.0
 30
0.0
  9
$PUCSORGBACK
 10
0.0
 20
0.0
 30
0.0
  9
$USERI1
 70
     0
  9
$USERI2
 70
     0
  9
$USERI3
 70
     0
  9
$USERI4
 70
     0
  9
$USERI5
 70
     0
  9
$USERR1
 40
0.0
  9
$USERR2
 40
0.0
  9
$USERR3
 40
0.0
  9
$USERR4
 40
0.0
  9
$USERR5
 40
0.0
  9
$WORLDVIEW
 70
     1
  9
$SHADEDGE
 70
     3
  9
$SHADEDIF
 70
    70
  9
$TILEMODE
 70
     1
  9
$MAXACTVP
 70
    64
  9
$PINSBASE
 10
0.0
 20
0.0
 30
0.0
  9
$PLIMCHECK
 70
     0
  9
$PEXTMIN
 10
1.000000000000000E+20
 20
1.000000000000000E+20
 30
1.000000000000000E+20
  9
$PEXTMAX
 10
-1.000000000000000E+20
 20
-1.000000000000000E+20
 30
-1.000000000000000E+20
  9
$PLIMMIN
 10
0.0
 20
0.0
  9
$PLIMMAX
 10
12.0
 20
9.0
  9
$UNITMODE
 70
     0
  9
$VISRETAIN
 70
     1
  9
$PLINEGEN
 70
     0
  9
$PSLTSCALE
 70
     1
  9
$TREEDEPTH
 70
  3020
  9
$CMLSTYLE
  2
Standard
  9
$CMLJUST
 70
     0
  9
$CMLSCALE
 40
1.0
  9
$PROXYGRAPHICS
 70
     1
  9
$MEASUREMENT
 70
     0
  9
$CELWEIGHT
370
    -1
  9
$ENDCAPS
280
     0
  9
$JOINSTYLE
280
     0
  9
$LWDISPLAY
290
     1
  9
$INSUNITS
 70
     1
  9
$HYPERLINKBASE
  1

  9
$STYLESHEET
  1

  9
$XEDIT
290
     1
  9
$CEPSNTYPE
380
     0
  9
$PSTYLEMODE
290
     1
  9
$FINGERPRINTGUID
  2
{A210ACBC-C6BD-4EF5-AD5C-8AFC1FBA6447}
  9
$VERSIONGUID
  2
{FAEB1C32-E019-11D5-929B-00C0DF256EC4}
  9
$EXTNAMES
290
     1
  9
$PSVPSCALE
 40
0.0
  9
$OLESTARTUP
290
     0
  9
$SORTENTS
280
   127
  9
$INDEXCTL
280
     0
  9
$HIDETEXT
280
     1
  9
$XCLIPFRAME
280
     2
  9
$HALOGAP
280
     0
  9
$OBSCOLOR
 70
   257
  9
$OBSLTYPE
280
     0
  9
$INTERSECTIONDISPLAY
280
     0
  9
$INTERSECTIONCOLOR
 70
   257
  9
$DIMASSOC
280
     2
  9
$PROJECTNAME
  1

  9
$CAMERADISPLAY
290
     0
  9
$LENSLENGTH
 40
50.0
  9
$CAMERAHEIGHT
 40
0.0
  9
$STEPSPERSEC
 40
2.0
  9
$STEPSIZE
 40
6.0
  9
$3DDWFPREC
 40
2.0
  9
$PSOLWIDTH
 40
0.25
  9
$PSOLHEIGHT
 40
4.0
  9
$LOFTANG1
 40
1.570796326794897
  9
$LOFTANG2
 40
1.570796326794897
  9
$LOFTMAG1
 40
0.0
  9
$LOFTMAG2
 40
0.0
  9
$LOFTPARAM
 70
     7
  9
$LOFTNORMALS
280
     1
  9
$LATITUDE
 40
37.795
  9
$LONGITUDE
 40
-122.394
  9
$NORTHDIRECTION
 40
0.0
  9
$TIMEZONE
 70
 -8000
  9
$LIGHTGLYPHDISPLAY
280
     1
  9
$TILEMODELIGHTSYNCH
280
     1
  9
$CMATERIAL
347
3C
  9
$SOLIDHIST
280
     1
  9
$SHOWHIST
280
     1
  9
$DWFFRAME
280
     2
  9
$DGNFRAME
280
     2
  9
$REALWORLDSCALE
290
     1
  9
$INTERFERECOLOR
 62
   256
  9
$CSHADOW
280
     0
  9
$SHADOWPLANELOCATION
 40
0.0
  0
ENDSEC
  0
SECTION
  2
CLASSES
  0
CLASS
  1
ACDBDICTIONARYWDFLT
  2
AcDbDictionaryWithDefault
  3
ObjectDBX Classes
 90
        0
 91
        4
280
     0
281
     0
  0
CLASS
  1
VISUALSTYLE
  2
AcDbVisualStyle
  3
ObjectDBX Classes
 90
     4095
 91
        4
280
     0
281
     0
  0
CLASS
  1
MATERIAL
  2
AcDbMaterial
  3
ObjectDBX Classes
 90
     1153
 91
        4
280
     0
281
     0
  0
CLASS
  1
SUN
  2
AcDbSun
  3
SCENEOE
 90
     1024
 91
        4
280
     0
281
     0
  0
ENDSEC
  0
SECTION
  2
TABLES
  0
TABLE
  2
VPORT
  5
8
330
0
100
AcDbSymbolTable
 70
     1
  0
VPORT
  5
29
330
8
100
AcDbSymbolTableRecord
100
AcDbViewportTableRecord
  2
*Active
 70
     0
 10
0.0
 20
0.0
 11
1.0
 21
1.0
 12
0.0
 22
0.0
 13
0.0
 23
0.0
 14
0.5
 24
0.5
 15
0.5
 25
0.5
 16
0.0
 26
0.0
 36
1.0
 17
2.5
 27
-2.5
 37
0.0
 40
5.0
 41
1.0
 42
50.0
 43
0.0
 44
0.0
 50
0.0
 51
0.0
 71
     0
 72
   100
 73
     1
 74
     3
 75
     0
 76
     0
 77
     0
 78
     0
281
     0
 65
     1
110
0.0
120
0.0
130
0.0
111
1.0
121
0.0
131
0.0
112
0.0
122
1.0
132
0.0
 79
     0
146
0.0
 60
     3
 61
     5
292
     1
282
     1
141
0.0
142
0.0
 63
   250
361
3F
  0
ENDTAB
  0
TABLE
  2
LTYPE
  5
5
330
0
100
AcDbSymbolTable
 70
     1
  0
LTYPE
  5
14
330
5
100
AcDbSymbolTableRecord
100
AcDbLinetypeTableRecord
  2
ByBlock
 70
     0
  3

 72
    65
 73
     0
 40
0.0
  0
LTYPE
  5
15
330
5
100
AcDbSymbolTableRecord
100
AcDbLinetypeTableRecord
  2
ByLayer
 70
     0
  3

 72
    65
 73
     0
 40
0.0
  0
LTYPE
  5
16
330
5
100
AcDbSymbolTableRecord
100
AcDbLinetypeTableRecord
  2
Continuous
 70
     0
  3
Solid line
 72
    65
 73
     0
 40
0.0
  0
ENDTAB
  0
TABLE
  2
LAYER
  5
2
330
0
100
AcDbSymbolTable
 70
     3
  0
LAYER
  5
10
330
2
100
AcDbSymbolTableRecord
100
AcDbLayerTableRecord
  2
0
 70
     0
 62
     7
  6
Continuous
370
    -3
390
F
347
3E
  0
LAYER
  5
40
330
2
100
AcDbSymbolTableRecord
100
AcDbLayerTableRecord
  2
Layer 1
 70
     0
 62
     7
  6
Continuous
370
    -3
390
F
347
3E
  0
LAYER
  5
41
330
2
100
AcDbSymbolTableRecord
100
AcDbLayerTableRecord
  2
Layer 2
 70
     0
 62
     7
  6
Continuous
370
    -3
390
F
347
3E
  0
ENDTAB
  0
TABLE
  2
STYLE
  5
3
330
0
100
AcDbSymbolTable
 70
     1
  0
STYLE
  5
11
330
3
100
AcDbSymbolTableRecord
100
AcDbTextStyleTableRecord
  2
Standard
 70
     0
 40
0.0
 41
1.0
 50
0.0
 71
     0
 42
0.2
  3
txt
  4

  0
ENDTAB
  0
TABLE
  2
VIEW
  5
6
330
0
100
AcDbSymbolTable
 70
     0
  0
ENDTAB
  0
TABLE
  2
UCS
  5
7
330
0
100
AcDbSymbolTable
 70
     0
  0
ENDTAB
  0
TABLE
  2
APPID
  5
9
330
0
100
AcDbSymbolTable
 70
     1
  0
APPID
  5
12
330
9
100
AcDbSymbolTableRecord
100
AcDbRegAppTableRecord
  2
ACAD
 70
     0
  0
ENDTAB
  0
TABLE
  2
DIMSTYLE
  5
A
330
0
100
AcDbSymbolTable
 70
     1
100
AcDbDimStyleTable
  0
DIMSTYLE
105
27
330
A
100
AcDbSymbolTableRecord
100
AcDbDimStyleTableRecord
  2
Standard
 70
     0
178
     0
340
11
  0
ENDTAB
  0
TABLE
  2
BLOCK_RECORD
  5
1
330
0
100
AcDbSymbolTable
 70
     1
  0
BLOCK_RECORD
  5
1F
330
1
100
AcDbSymbolTableRecord
100
AcDbBlockTableRecord
  2
*Model_Space
340
22
 70
     0
280
     1
281
     0
  0
BLOCK_RECORD
  5
1B
330
1
100
AcDbSymbolTableRecord
100
AcDbBlockTableRecord
  2
*Paper_Space
340
1E
 70
     0
280
     1
281
     0
  0
BLOCK_RECORD
  5
23
330
1
100
AcDbSymbolTableRecord
100
AcDbBlockTableRecord
  2
*Paper_Space0
340
26
 70
     0
280
     1
281
     0
  0
ENDTAB
  0
ENDSEC
  0
SECTION
  2
BLOCKS
  0
BLOCK
  5
20
330
1F
100
AcDbEntity
  8
0
100
AcDbBlockBegin
  2
*Model_Space
 70
     0
 10
0.0
 20
0.0
 30
0.0
  3
*Model_Space
  1

  0
ENDBLK
  5
21
330
1F
100
AcDbEntity
  8
0
100
AcDbBlockEnd
  0
BLOCK
  5
1C
330
1B
100
AcDbEntity
 67
     1
  8
0
100
AcDbBlockBegin
  2
*Paper_Space
 70
     0
 10
0.0
 20
0.0
 30
0.0
  3
*Paper_Space
  1

  0
ENDBLK
  5
1D
330
1B
100
AcDbEntity
 67
     1
  8
0
100
AcDbBlockEnd
  0
BLOCK
  5
24
330
23
100
AcDbEntity
  8
0
100
AcDbBlockBegin
  2
*Paper_Space0
 70
     0
 10
0.0
 20
0.0
 30
0.0
  3
*Paper_Space0
  1

  0
ENDBLK
  5
25
330
23
100
AcDbEntity
  8
0
100
AcDbBlockEnd
  0
ENDSEC
  0
SECTION
  2
ENTITIES
  0
POLYLINE
  5
42
330
1F
100
AcDbEntity
  8
Layer 2
370
     0
100
AcDb2dPolyline
 66
     1
 10
0.0
 20
0.0
 30
0.0
  0
VERTEX
  5
43
330
42
100
AcDbEntity
  8
Layer 2
370
     0
100
AcDbVertex
100
AcDb2dVertex
 10
2.948827819761896
 20
-2.23786969001608
 30
0.0
  0
VERTEX
  5
44
330
42
100
AcDbEntity
  8
Layer 2
370
     0
100
AcDbVertex
100
AcDb2dVertex
 10
2.901277321518086
 20
-2.245754545270996
 30
0.0
  0
VERTEX
  5
45
330
42
100
AcDbEntity
  8
Layer 2
370
     0
100
AcDbVertex
100
AcDb2dVertex
 10
2.812068867292409
 20
-2.260547154934948
 30
0.0
  0
VERTEX
  5
46
330
42
100
AcDbEntity
  8
Layer 2
370
     0
100
AcDbVertex
100
AcDb2dVertex
 10
2.75432656128583
 20
-2.270122024893744
 30
0.0
  0
VERTEX
  5
47
330
42
100
AcDbEntity
  8
Layer 2
370
     0
100
AcDbVertex
100
AcDb2dVertex
 10
2.703770755381634
 20
-2.279847527346002
 30
0.0
  0
VERTEX
  5
48
330
42
100
AcDbEntity
  8
Layer 2
370
     0
100
AcDbVertex
100
AcDb2dVertex
 10
2.682238953311096
 20
-2.288612876107082
 30
0.0
  0
VERTEX
  5
49
330
42
100
AcDbEntity
  8
Layer 2
370
     0
100
AcDbVertex
100
AcDb2dVertex
 10
2.66364341854483
 20
-2.302593707919616
 30
0.0
  0
VERTEX
  5
4A
330
42
100
AcDbEntity
  8
Layer 2
370
     0
100
AcDbVertex
100
AcDb2dVertex
 10
2.644329317545852
 20
-2.326125204166917
 30
0.0
  0
VERTEX
  5
4B
330
42
100
AcDbEntity
  8
Layer 2
370
     0
100
AcDbVertex
100
AcDb2dVertex
 10
2.632577241837528
 20
-2.35082760740939
 30
0.0
  0
VERTEX
  5
4C
330
42
100
AcDbEntity
  8
Layer 2
370
     0
100
AcDbVertex
100
AcDb2dVertex
 10
2.626827552130357
 20
-2.384135138996397
 30
0.0
  0
VERTEX
  5
4D
330
42
100
AcDbEntity
  8
Layer 2
370
     0
100
AcDbVertex
100
AcDb2dVertex
 10
2.630529550620344
 20
-2.414317241287828
 30
0.0
  0
VERTEX
  5
4E
330
42
100
AcDbEntity
  8
Layer 2
370
     0
100
AcDbVertex
100
AcDb2dVertex
 10
2.643624912911643
 20
-2.447208810680511
 30
0.0
  0
VERTEX
  5
4F
330
42
100
AcDbEntity
  8
Layer 2
370
     0
100
AcDbVertex
100
AcDb2dVertex
 10
2.687696241628626
 20
-2.545656806802476
 30
0.0
  0
VERTEX
  5
50
330
42
100
AcDbEntity
  8
Layer 2
370
     0
100
AcDbVertex
100
AcDb2dVertex
 10
2.718700898084383
 20
-2.61491593759173
 30
0.0
  0
VERTEX
  5
51
330
42
100
AcDbEntity
  8
Layer 2
370
     0
100
AcDbVertex
100
AcDb2dVertex
 10
2.740357509614164
 20
-2.663293234541622
 30
0.0
  0
VERTEX
  5
52
330
42
100
AcDbEntity
  8
Layer 2
370
     0
100
AcDbVertex
100
AcDb2dVertex
 10
2.75432656128583
 20
-2.681215445464861
 30
0.0
  0
VERTEX
  5
53
330
42
100
AcDbEntity
  8
Layer 2
370
     0
100
AcDbVertex
100
AcDb2dVertex
 10
2.776660210150213
 20
-2.690866260803735
 30
0.0
  0
VERTEX
  5
54
330
42
100
AcDbEntity
  8
Layer 2
370
     0
100
AcDbVertex
100
AcDb2dVertex
 10
2.800333957936194
 20
-2.687559041725207
 30
0.0
  0
VERTEX
  5
55
330
42
100
AcDbEntity
  8
Layer 2
370
     0
100
AcDbVertex
100
AcDb2dVertex
 10
2.812068867292409
 20
-2.680776490155949
 30
0.0
  0
VERTEX
  5
56
330
42
100
AcDbEntity
  8
Layer 2
370
     0
100
AcDbVertex
100
AcDb2dVertex
 10
2.826726280698495
 20
-2.662750382357848
 30
0.0
  0
VERTEX
  5
57
330
42
100
AcDbEntity
  8
Layer 2
370
     0
100
AcDbVertex
100
AcDb2dVertex
 10
2.837524859913729
 20
-2.636244815597011
 30
0.0
  0
VERTEX
  5
58
330
42
100
AcDbEntity
  8
Layer 2
370
     0
100
AcDbVertex
100
AcDb2dVertex
 10
2.848323394190932
 20
-2.604830795567725
 30
0.0
  0
VERTEX
  5
59
330
42
100
AcDbEntity
  8
Layer 2
370
     0
100
AcDbVertex
100
AcDb2dVertex
 10
2.866381767540992
 20
-2.560171451881716
 30
0.0
  0
VERTEX
  5
5A
330
42
100
AcDbEntity
  8
Layer 2
370
     0
100
AcDbVertex
100
AcDb2dVertex
 10
2.866381767540992
 20
-2.994459714963745
 30
0.0
  0
VERTEX
  5
5B
330
42
100
AcDbEntity
  8
Layer 2
370
     0
100
AcDbVertex
100
AcDb2dVertex
 10
2.794631763101329
 20
-3.045970005999101
 30
0.0
  0
VERTEX
  5
5C
330
42
100
AcDbEntity
  8
Layer 2
370
     0
100
AcDbVertex
100
AcDb2dVertex
 10
2.863416302672602
 20
-3.054842493537965
 30
0.0
  0
VERTEX
  5
5D
330
42
100
AcDbEntity
  8
Layer 2
370
     0
100
AcDbVertex
100
AcDb2dVertex
 10
2.75432656128583
 20
-3.139004624420775
 30
0.0
  0
VERTEX
  5
5E
330
42
100
AcDbEntity
  8
Layer 2
370
     0
100
AcDbVertex
100
AcDb2dVertex
 10
2.866381767540992
 20
-3.153458692948384
 30
0.0
  0
VERTEX
  5
5F
330
42
100
AcDbEntity
  8
Layer 2
370
     0
100
AcDbVertex
100
AcDb2dVertex
 10
2.859871945268424
 20
-3.195556070918125
 30
0.0
  0
VERTEX
  5
60
330
42
100
AcDbEntity
  8
Layer 2
370
     0
100
AcDbVertex
100
AcDb2dVertex
 10
2.848361726385671
 20
-3.241372885108982
 30
0.0
  0
VERTEX
  5
61
330
42
100
AcDbEntity
  8
Layer 2
370
     0
100
AcDbVertex
100
AcDb2dVertex
 10
2.832109459999174
 20
-3.28788156620567
 30
0.0
  0
VERTEX
  5
62
330
42
100
AcDbEntity
  8
Layer 2
370
     0
100
AcDbVertex
100
AcDb2dVertex
 10
2.820194618511828
 20
-3.315335326764347
 30
0.0
  0
VERTEX
  5
63
330
42
100
AcDbEntity
  8
Layer 2
370
     0
100
AcDbVertex
100
AcDb2dVertex
 10
2.802184104232588
 20
-3.356947283435349
 30
0.0
  0
VERTEX
  5
64
330
42
100
AcDbEntity
  8
Layer 2
370
     0
100
AcDbVertex
100
AcDb2dVertex
 10
2.773286392815357
 20
-3.39635529619045
 30
0.0
  0
VERTEX
  5
65
330
42
100
AcDbEntity
  8
Layer 2
370
     0
100
AcDbVertex
100
AcDb2dVertex
 10
2.740793409132645
 20
-3.438104943183488
 30
0.0
  0
VERTEX
  5
66
330
42
100
AcDbEntity
  8
Layer 2
370
     0
100
AcDbVertex
100
AcDb2dVertex
 10
2.700097066140946
 20
-3.480927981506233
 30
0.0
  0
VERTEX
  5
67
330
42
100
AcDbEntity
  8
Layer 2
370
     0
100
AcDbVertex
100
AcDb2dVertex
 10
2.665557534219008
 20
-3.518987132411237
 30
0.0
  0
VERTEX
  5
68
330
42
100
AcDbEntity
  8
Layer 2
370
     0
100
AcDbVertex
100
AcDb2dVertex
 10
2.63353956866624
 20
-3.562110087577973
 30
0.0
  0
VERTEX
  5
69
330
42
100
AcDbEntity
  8
Layer 2
370
     0
100
AcDbVertex
100
AcDb2dVertex
 10
2.598980106699274
 20
-3.62187191155979
 30
0.0
  0
VERTEX
  5
6A
330
42
100
AcDbEntity
  8
Layer 2
370
     0
100
AcDbVertex
100
AcDb2dVertex
 10
2.582357145969682
 20
-3.65839705566451
 30
0.0
  0
VERTEX
  5
6B
330
42
100
AcDbEntity
  8
Layer 2
370
     0
100
AcDbVertex
100
AcDb2dVertex
 10
2.565928407685356
 20
-3.704714929611125
 30
0.0
  0
VERTEX
  5
6C
330
42
100
AcDbEntity
  8
Layer 2
370
     0
100
AcDbVertex
100
AcDb2dVertex
 10
2.553770878017657
 20
-3.752617141024075
 30
0.0
  0
VERTEX
  5
6D
330
42
100
AcDbEntity
  8
Layer 2
370
     0
100
AcDbVertex
100
AcDb2dVertex
 10
2.544769867527975
 20
-3.814402707162015
 30
0.0
  0
VERTEX
  5
6E
330
42
100
AcDbEntity
  8
Layer 2
370
     0
100
AcDbVertex
100
AcDb2dVertex
 10
2.542760910004997
 20
-3.890841687215622
 30
0.0
  0
VERTEX
  5
6F
330
42
100
AcDbEntity
  8
Layer 2
370
     0
100
AcDbVertex
100
AcDb2dVertex
 10
2.542760910004997
 20
-4.008644206152793
 30
0.0
  0
VERTEX
  5
70
330
42
100
AcDbEntity
  8
Layer 2
370
     0
100
AcDbVertex
100
AcDb2dVertex
 10
2.542760910004997
 20
-4.14025871812065
 30
0.0
  0
VERTEX
  5
71
330
42
100
AcDbEntity
  8
Layer 2
370
     0
100
AcDbVertex
100
AcDb2dVertex
 10
4.07516389212118
 20
-4.153469079939643
 30
0.0
  0
VERTEX
  5
72
330
42
100
AcDbEntity
  8
Layer 2
370
     0
100
AcDbVertex
100
AcDb2dVertex
 10
4.01365388637982
 20
-3.992545942616744
 30
0.0
  0
VERTEX
  5
73
330
42
100
AcDbEntity
  8
Layer 2
370
     0
100
AcDbVertex
100
AcDb2dVertex
 10
4.054120101388636
 20
-3.963622167104556
 30
0.0
  0
VERTEX
  5
74
330
42
100
AcDbEntity
  8
Layer 2
370
     0
100
AcDbVertex
100
AcDb2dVertex
 10
4.08677122222654
 20
-3.934584967841399
 30
0.0
  0
VERTEX
  5
75
330
42
100
AcDbEntity
  8
Layer 2
370
     0
100
AcDbVertex
100
AcDb2dVertex
 10
4.111395141086632
 20
-3.908334110201243
 30
0.0
  0
VERTEX
  5
76
330
42
100
AcDbEntity
  8
Layer 2
370
     0
100
AcDbVertex
100
AcDb2dVertex
 10
4.140357922865001
 20
-3.870993789058907
 30
0.0
  0
VERTEX
  5
77
330
42
100
AcDbEntity
  8
Layer 2
370
     0
100
AcDbVertex
100
AcDb2dVertex
 10
4.165561003889479
 20
-3.830419542870408
 30
0.0
  0
VERTEX
  5
78
330
42
100
AcDbEntity
  8
Layer 2
370
     0
100
AcDbVertex
100
AcDb2dVertex
 10
4.192170108020441
 20
-3.774183471921636
 30
0.0
  0
VERTEX
  5
79
330
42
100
AcDbEntity
  8
Layer 2
370
     0
100
AcDbVertex
100
AcDb2dVertex
 10
4.210636788898884
 20
-3.719239640823566
 30
0.0
  0
VERTEX
  5
7A
330
42
100
AcDbEntity
  8
Layer 2
370
     0
100
AcDbVertex
100
AcDb2dVertex
 10
4.219873005376181
 20
-3.679616464471059
 30
0.0
  0
VERTEX
  5
7B
330
42
100
AcDbEntity
  8
Layer 2
370
     0
100
AcDbVertex
100
AcDb2dVertex
 10
4.225979013929948
 20
-3.634340615064098
 30
0.0
  0
VERTEX
  5
7C
330
42
100
AcDbEntity
  8
Layer 2
370
     0
100
AcDbVertex
100
AcDb2dVertex
 10
4.213608275471996
 20
-3.63909668325338
 30
0.0
  0
VERTEX
  5
7D
330
42
100
AcDbEntity
  8
Layer 2
370
     0
100
AcDbVertex
100
AcDb2dVertex
 10
4.156884356567212
 20
-3.648465197481427
 30
0.0
  0
VERTEX
  5
7E
330
42
100
AcDbEntity
  8
Layer 2
370
     0
100
AcDbVertex
100
AcDb2dVertex
 10
4.100973277919138
 20
-3.656876889797432
 30
0.0
  0
VERTEX
  5
7F
330
42
100
AcDbEntity
  8
Layer 2
370
     0
100
AcDbVertex
100
AcDb2dVertex
 10
4.12844411495391
 20
-3.640511334474215
 30
0.0
  0
VERTEX
  5
80
330
42
100
AcDbEntity
  8
Layer 2
370
     0
100
AcDbVertex
100
AcDb2dVertex
 10
4.156558645256963
 20
-3.611659819418289
 30
0.0
  0
VERTEX
  5
81
330
42
100
AcDbEntity
  8
Layer 2
370
     0
100
AcDbVertex
100
AcDb2dVertex
 10
4.181647403768466
 20
-3.574580948110805
 30
0.0
  0
VERTEX
  5
82
330
42
100
AcDbEntity
  8
Layer 2
370
     0
100
AcDbVertex
100
AcDb2dVertex
 10
4.205707619168834
 20
-3.525133315621638
 30
0.0
  0
VERTEX
  5
83
330
42
100
AcDbEntity
  8
Layer 2
370
     0
100
AcDbVertex
100
AcDb2dVertex
 10
4.220017885793469
 20
-3.485312950909651
 30
0.0
  0
VERTEX
  5
84
330
42
100
AcDbEntity
  8
Layer 2
370
     0
100
AcDbVertex
100
AcDb2dVertex
 10
4.17121736447661
 20
-3.494303820951245
 30
0.0
  0
VERTEX
  5
85
330
42
100
AcDbEntity
  8
Layer 2
370
     0
100
AcDbVertex
100
AcDb2dVertex
 10
4.079015446340614
 20
-3.518969516678125
 30
0.0
  0
VERTEX
  5
86
330
42
100
AcDbEntity
  8
Layer 2
370
     0
100
AcDbVertex
100
AcDb2dVertex
 10
4.096350046737699
 20
-3.493448543571857
 30
0.0
  0
VERTEX
  5
87
330
42
100
AcDbEntity
  8
Layer 2
370
     0
100
AcDbVertex
100
AcDb2dVertex
 10
4.107548080676704
 20
-3.470627720823005
 30
0.0
  0
VERTEX
  5
88
330
42
100
AcDbEntity
  8
Layer 2
370
     0
100
AcDbVertex
100
AcDb2dVertex
 10
4.116312447159721
 20
-3.420663030616298
 30
0.0
  0
VERTEX
  5
89
330
42
100
AcDbEntity
  8
Layer 2
370
     0
100
AcDbVertex
100
AcDb2dVertex
 10
4.114271718403744
 20
-3.375740125004995
 30
0.0
  0
VERTEX
  5
8A
330
42
100
AcDbEntity
  8
Layer 2
370
     0
100
AcDbVertex
100
AcDb2dVertex
 10
4.107312784812899
 20
-3.334425748397128
 30
0.0
  0
VERTEX
  5
8B
330
42
100
AcDbEntity
  8
Layer 2
370
     0
100
AcDbVertex
100
AcDb2dVertex
 10
4.099484329048512
 20
-3.299620235382412
 30
0.0
  0
VERTEX
  5
8C
330
42
100
AcDbEntity
  8
Layer 2
370
     0
100
AcDbVertex
100
AcDb2dVertex
 10
4.093510712832565
 20
-3.282913668892434
 30
0.0
  0
VERTEX
  5
8D
330
42
100
AcDbEntity
  8
Layer 2
370
     0
100
AcDbVertex
100
AcDb2dVertex
 10
4.082912477911906
 20
-3.252829852349552
 30
0.0
  0
VERTEX
  5
8E
330
42
100
AcDbEntity
  8
Layer 2
370
     0
100
AcDbVertex
100
AcDb2dVertex
 10
4.054120101388636
 20
-3.29414072378601
 30
0.0
  0
VERTEX
  5
8F
330
42
100
AcDbEntity
  8
Layer 2
370
     0
100
AcDbVertex
100
AcDb2dVertex
 10
4.014144005233598
 20
-3.351562401680742
 30
0.0
  0
VERTEX
  5
90
330
42
100
AcDbEntity
  8
Layer 2
370
     0
100
AcDbVertex
100
AcDb2dVertex
 10
4.022661817336105
 20
-3.317996470855582
 30
0.0
  0
VERTEX
  5
91
330
42
100
AcDbEntity
  8
Layer 2
370
     0
100
AcDbVertex
100
AcDb2dVertex
 10
4.024385223226115
 20
-3.304037829842501
 30
0.0
  0
VERTEX
  5
92
330
42
100
AcDbEntity
  8
Layer 2
370
     0
100
AcDbVertex
100
AcDb2dVertex
 10
4.023499463421078
 20
-3.279242217502037
 30
0.0
  0
VERTEX
  5
93
330
42
100
AcDbEntity
  8
Layer 2
370
     0
100
AcDbVertex
100
AcDb2dVertex
 10
4.019699725909732
 20
-3.251652413496029
 30
0.0
  0
VERTEX
  5
94
330
42
100
AcDbEntity
  8
Layer 2
370
     0
100
AcDbVertex
100
AcDb2dVertex
 10
4.012279859196673
 20
-3.225043909394874
 30
0.0
  0
VERTEX
  5
95
330
42
100
AcDbEntity
  8
Layer 2
370
     0
100
AcDbVertex
100
AcDb2dVertex
 10
4.000456586566972
 20
-3.193107124510081
 30
0.0
  0
VERTEX
  5
96
330
42
100
AcDbEntity
  8
Layer 2
370
     0
100
AcDbVertex
100
AcDb2dVertex
 10
3.98450973445132
 20
-3.161884316073661
 30
0.0
  0
VERTEX
  5
97
330
42
100
AcDbEntity
  8
Layer 2
370
     0
100
AcDbVertex
100
AcDb2dVertex
 10
3.957729306442211
 20
-3.119106511510229
 30
0.0
  0
VERTEX
  5
98
330
42
100
AcDbEntity
  8
Layer 2
370
     0
100
AcDbVertex
100
AcDb2dVertex
 10
3.936865467701914
 20
-3.091880111674527
 30
0.0
  0
VERTEX
  5
99
330
42
100
AcDbEntity
  8
Layer 2
370
     0
100
AcDbVertex
100
AcDb2dVertex
 10
3.939322323214658
 20
-3.15942647192282
 30
0.0
  0
VERTEX
  5
9A
330
42
100
AcDbEntity
  8
Layer 2
370
     0
100
AcDbVertex
100
AcDb2dVertex
 10
3.938671619603635
 20
-3.181142806180509
 30
0.0
  0
VERTEX
  5
9B
330
42
100
AcDbEntity
  8
Layer 2
370
     0
100
AcDbVertex
100
AcDb2dVertex
 10
3.934622158015145
 20
-3.214090698195731
 30
0.0
  0
VERTEX
  5
9C
330
42
100
AcDbEntity
  8
Layer 2
370
     0
100
AcDbVertex
100
AcDb2dVertex
 10
3.930020497119155
 20
-3.231761076036289
 30
0.0
  0
VERTEX
  5
9D
330
42
100
AcDbEntity
  8
Layer 2
370
     0
100
AcDbVertex
100
AcDb2dVertex
 10
3.923748377738345
 20
-3.217594819310509
 30
0.0
  0
VERTEX
  5
9E
330
42
100
AcDbEntity
  8
Layer 2
370
     0
100
AcDbVertex
100
AcDb2dVertex
 10
3.916737335586681
 20
-3.20753018575235
 30
0.0
  0
VERTEX
  5
9F
330
42
100
AcDbEntity
  8
Layer 2
370
     0
100
AcDbVertex
100
AcDb2dVertex
 10
3.903875398779898
 20
-3.194338755764824
 30
0.0
  0
VERTEX
  5
A0
330
42
100
AcDbEntity
  8
Layer 2
370
     0
100
AcDbVertex
100
AcDb2dVertex
 10
3.89652040579641
 20
-3.188075975263776
 30
0.0
  0
VERTEX
  5
A1
330
42
100
AcDbEntity
  8
Layer 2
370
     0
100
AcDbVertex
100
AcDb2dVertex
 10
3.887930638790572
 20
-3.182431271231406
 30
0.0
  0
VERTEX
  5
A2
330
42
100
AcDbEntity
  8
Layer 2
370
     0
100
AcDbVertex
100
AcDb2dVertex
 10
3.864954629821391
 20
-3.170166137295988
 30
0.0
  0
VERTEX
  5
A3
330
42
100
AcDbEntity
  8
Layer 2
370
     0
100
AcDbVertex
100
AcDb2dVertex
 10
3.843335053661652
 20
-3.162552901922229
 30
0.0
  0
VERTEX
  5
A4
330
42
100
AcDbEntity
  8
Layer 2
370
     0
100
AcDbVertex
100
AcDb2dVertex
 10
3.81651084927095
 20
-3.156343817310446
 30
0.0
  0
VERTEX
  5
A5
330
42
100
AcDbEntity
  8
Layer 2
370
     0
100
AcDbVertex
100
AcDb2dVertex
 10
3.793108403082492
 20
-3.15313463553361
 30
0.0
  0
VERTEX
  5
A6
330
42
100
AcDbEntity
  8
Layer 2
370
     0
100
AcDbVertex
100
AcDb2dVertex
 10
3.75094120115207
 20
-3.151708264284075
 30
0.0
  0
VERTEX
  5
A7
330
42
100
AcDbEntity
  8
Layer 2
370
     0
100
AcDbVertex
100
AcDb2dVertex
 10
3.769517112402809
 20
-3.173096479623634
 30
0.0
  0
VERTEX
  5
A8
330
42
100
AcDbEntity
  8
Layer 2
370
     0
100
AcDbVertex
100
AcDb2dVertex
 10
3.810507677490427
 20
-3.216537955564945
 30
0.0
  0
VERTEX
  5
A9
330
42
100
AcDbEntity
  8
Layer 2
370
     0
100
AcDbVertex
100
AcDb2dVertex
 10
3.847900083630394
 20
-3.261315872274078
 30
0.0
  0
VERTEX
  5
AA
330
42
100
AcDbEntity
  8
Layer 2
370
     0
100
AcDbVertex
100
AcDb2dVertex
 10
3.860075251500171
 20
-3.275937020637785
 30
0.0
  0
VERTEX
  5
AB
330
42
100
AcDbEntity
  8
Layer 2
370
     0
100
AcDbVertex
100
AcDb2dVertex
 10
3.881058825185846
 20
-3.308700846217107
 30
0.0
  0
VERTEX
  5
AC
330
42
100
AcDbEntity
  8
Layer 2
370
     0
100
AcDbVertex
100
AcDb2dVertex
 10
3.858047644667876
 20
-3.307079569637001
 30
0.0
  0
VERTEX
  5
AD
330
42
100
AcDbEntity
  8
Layer 2
370
     0
100
AcDbVertex
100
AcDb2dVertex
 10
3.812340659180487
 20
-3.305755783243765
 30
0.0
  0
VERTEX
  5
AE
330
42
100
AcDbEntity
  8
Layer 2
370
     0
100
AcDbVertex
100
AcDb2dVertex
 10
3.731259304317164
 20
-3.300521393974527
 30
0.0
  0
VERTEX
  5
AF
330
42
100
AcDbEntity
  8
Layer 2
370
     0
100
AcDbVertex
100
AcDb2dVertex
 10
3.736382606616214
 20
-3.317167902265737
 30
0.0
  0
VERTEX
  5
B0
330
42
100
AcDbEntity
  8
Layer 2
370
     0
100
AcDbVertex
100
AcDb2dVertex
 10
3.751698677676081
 20
-3.3435045017906
 30
0.0
  0
VERTEX
  5
B1
330
42
100
AcDbEntity
  8
Layer 2
370
     0
100
AcDbVertex
100
AcDb2dVertex
 10
3.767210630721795
 20
-3.36718061374788
 30
0.0
  0
VERTEX
  5
B2
330
42
100
AcDbEntity
  8
Layer 2
370
     0
100
AcDbVertex
100
AcDb2dVertex
 10
3.781662949832682
 20
-3.386745015012972
 30
0.0
  0
VERTEX
  5
B3
330
42
100
AcDbEntity
  8
Layer 2
370
     0
100
AcDbVertex
100
AcDb2dVertex
 10
3.798793621156038
 20
-3.40229215775576
 30
0.0
  0
VERTEX
  5
B4
330
42
100
AcDbEntity
  8
Layer 2
370
     0
100
AcDbVertex
100
AcDb2dVertex
 10
3.819874711626021
 20
-3.41879595418191
 30
0.0
  0
VERTEX
  5
B5
330
42
100
AcDbEntity
  8
Layer 2
370
     0
100
AcDbVertex
100
AcDb2dVertex
 10
3.851638099471074
 20
-3.435105916509251
 30
0.0
  0
VERTEX
  5
B6
330
42
100
AcDbEntity
  8
Layer 2
370
     0
100
AcDbVertex
100
AcDb2dVertex
 10
3.875745486462367
 20
-3.442833259669745
 30
0.0
  0
VERTEX
  5
B7
330
42
100
AcDbEntity
  8
Layer 2
370
     0
100
AcDbVertex
100
AcDb2dVertex
 10
3.915417953126684
 20
-3.447118805968229
 30
0.0
  0
VERTEX
  5
B8
330
42
100
AcDbEntity
  8
Layer 2
370
     0
100
AcDbVertex
100
AcDb2dVertex
 10
3.782576361545277
 20
-3.474808671276504
 30
0.0
  0
VERTEX
  5
B9
330
42
100
AcDbEntity
  8
Layer 2
370
     0
100
AcDbVertex
100
AcDb2dVertex
 10
3.805510068787978
 20
-3.511141390459771
 30
0.0
  0
VERTEX
  5
BA
330
42
100
AcDbEntity
  8
Layer 2
370
     0
100
AcDbVertex
100
AcDb2dVertex
 10
3.834611349774225
 20
-3.538995819070806
 30
0.0
  0
VERTEX
  5
BB
330
42
100
AcDbEntity
  8
Layer 2
370
     0
100
AcDbVertex
100
AcDb2dVertex
 10
3.874837595357399
 20
-3.561651000002611
 30
0.0
  0
VERTEX
  5
BC
330
42
100
AcDbEntity
  8
Layer 2
370
     0
100
AcDbVertex
100
AcDb2dVertex
 10
3.910423892787902
 20
-3.574516327130671
 30
0.0
  0
VERTEX
  5
BD
330
42
100
AcDbEntity
  8
Layer 2
370
     0
100
AcDbVertex
100
AcDb2dVertex
 10
3.981190966282459
 20
-3.584064234232705
 30
0.0
  0
VERTEX
  5
BE
330
42
100
AcDbEntity
  8
Layer 2
370
     0
100
AcDbVertex
100
AcDb2dVertex
 10
3.86380655137825
 20
-3.606762825364007
 30
0.0
  0
VERTEX
  5
BF
330
42
100
AcDbEntity
  8
Layer 2
370
     0
100
AcDbVertex
100
AcDb2dVertex
 10
3.827748943210685
 20
-3.613233191989467
 30
0.0
  0
VERTEX
  5
C0
330
42
100
AcDbEntity
  8
Layer 2
370
     0
100
AcDbVertex
100
AcDb2dVertex
 10
3.88404577046352
 20
-3.658874477982408
 30
0.0
  0
VERTEX
  5
C1
330
42
100
AcDbEntity
  8
Layer 2
370
     0
100
AcDbVertex
100
AcDb2dVertex
 10
3.914144048018518
 20
-3.677390950269758
 30
0.0
  0
VERTEX
  5
C2
330
42
100
AcDbEntity
  8
Layer 2
370
     0
100
AcDbVertex
100
AcDb2dVertex
 10
3.949116850580342
 20
-3.693227853847171
 30
0.0
  0
VERTEX
  5
C3
330
42
100
AcDbEntity
  8
Layer 2
370
     0
100
AcDbVertex
100
AcDb2dVertex
 10
3.990026155202789
 20
-3.703339284656572
 30
0.0
  0
VERTEX
  5
C4
330
42
100
AcDbEntity
  8
Layer 2
370
     0
100
AcDbVertex
100
AcDb2dVertex
 10
3.964054273254356
 20
-3.705630947733173
 30
0.0
  0
VERTEX
  5
C5
330
42
100
AcDbEntity
  8
Layer 2
370
     0
100
AcDbVertex
100
AcDb2dVertex
 10
3.908522651877875
 20
-3.715463402850774
 30
0.0
  0
VERTEX
  5
C6
330
42
100
AcDbEntity
  8
Layer 2
370
     0
100
AcDbVertex
100
AcDb2dVertex
 10
3.888035374509879
 20
-3.718722672982242
 30
0.0
  0
VERTEX
  5
C7
330
42
100
AcDbEntity
  8
Layer 2
370
     0
100
AcDbVertex
100
AcDb2dVertex
 10
3.874476472828468
 20
-3.719266603680403
 30
0.0
  0
VERTEX
  5
C8
330
42
100
AcDbEntity
  8
Layer 2
370
     0
100
AcDbVertex
100
AcDb2dVertex
 10
3.874476472828468
 20
-3.719266603680403
 30
0.0
  0
VERTEX
  5
C9
330
42
100
AcDbEntity
  8
Layer 2
370
     0
100
AcDbVertex
100
AcDb2dVertex
 10
3.847899724125657
 20
-3.676178879979893
 30
0.0
  0
VERTEX
  5
CA
330
42
100
AcDbEntity
  8
Layer 2
370
     0
100
AcDbVertex
100
AcDb2dVertex
 10
3.7961428128266
 20
-3.592408519406642
 30
0.0
  0
VERTEX
  5
CB
330
42
100
AcDbEntity
  8
Layer 2
370
     0
100
AcDbVertex
100
AcDb2dVertex
 10
3.760840074773619
 20
-3.548667755314151
 30
0.0
  0
VERTEX
  5
CC
330
42
100
AcDbEntity
  8
Layer 2
370
     0
100
AcDbVertex
100
AcDb2dVertex
 10
3.727056783578139
 20
-3.503959204414463
 30
0.0
  0
VERTEX
  5
CD
330
42
100
AcDbEntity
  8
Layer 2
370
     0
100
AcDbVertex
100
AcDb2dVertex
 10
3.668668267769969
 20
-3.431892611097737
 30
0.0
  0
VERTEX
  5
CE
330
42
100
AcDbEntity
  8
Layer 2
370
     0
100
AcDbVertex
100
AcDb2dVertex
 10
3.602284096526419
 20
-3.356947373311514
 30
0.0
  0
VERTEX
  5
CF
330
42
100
AcDbEntity
  8
Layer 2
370
     0
100
AcDbVertex
100
AcDb2dVertex
 10
3.559294787253293
 20
-3.311884170968622
 30
0.0
  0
VERTEX
  5
D0
330
42
100
AcDbEntity
  8
Layer 2
370
     0
100
AcDbVertex
100
AcDb2dVertex
 10
3.509319132151556
 20
-3.261419499520444
 30
0.0
  0
VERTEX
  5
D1
330
42
100
AcDbEntity
  8
Layer 2
370
     0
100
AcDbVertex
100
AcDb2dVertex
 10
3.485412515158815
 20
-3.233307755379276
 30
0.0
  0
VERTEX
  5
D2
330
42
100
AcDbEntity
  8
Layer 2
370
     0
100
AcDbVertex
100
AcDb2dVertex
 10
3.506989091941982
 20
-3.233371297845173
 30
0.0
  0
VERTEX
  5
D3
330
42
100
AcDbEntity
  8
Layer 2
370
     0
100
AcDbVertex
100
AcDb2dVertex
 10
3.474801103107893
 20
-3.191649692223159
 30
0.0
  0
VERTEX
  5
D4
330
42
100
AcDbEntity
  8
Layer 2
370
     0
100
AcDbVertex
100
AcDb2dVertex
 10
3.451950441464204
 20
-3.16203099401471
 30
0.0
  0
VERTEX
  5
D5
330
42
100
AcDbEntity
  8
Layer 2
370
     0
100
AcDbVertex
100
AcDb2dVertex
 10
3.429185791333667
 20
-3.129814873933406
 30
0.0
  0
VERTEX
  5
D6
330
42
100
AcDbEntity
  8
Layer 2
370
     0
100
AcDbVertex
100
AcDb2dVertex
 10
3.497883285815508
 20
-3.13632685323455
 30
0.0
  0
VERTEX
  5
D7
330
42
100
AcDbEntity
  8
Layer 2
370
     0
100
AcDbVertex
100
AcDb2dVertex
 10
3.437557129240632
 20
-3.073963113570294
 30
0.0
  0
VERTEX
  5
D8
330
42
100
AcDbEntity
  8
Layer 2
370
     0
100
AcDbVertex
100
AcDb2dVertex
 10
3.478070709001208
 20
-2.910045750998354
 30
0.0
  0
VERTEX
  5
D9
330
42
100
AcDbEntity
  8
Layer 2
370
     0
100
AcDbVertex
100
AcDb2dVertex
 10
3.507556480325497
 20
-2.796621550626595
 30
0.0
  0
VERTEX
  5
DA
330
42
100
AcDbEntity
  8
Layer 2
370
     0
100
AcDbVertex
100
AcDb2dVertex
 10
3.544039562373604
 20
-2.65627988091809
 30
0.0
  0
VERTEX
  5
DB
330
42
100
AcDbEntity
  8
Layer 2
370
     0
100
AcDbVertex
100
AcDb2dVertex
 10
3.556090341597332
 20
-2.755564534486944
 30
0.0
  0
VERTEX
  5
DC
330
42
100
AcDbEntity
  8
Layer 2
370
     0
100
AcDbVertex
100
AcDb2dVertex
 10
3.561571261253978
 20
-2.772763736404714
 30
0.0
  0
VERTEX
  5
DD
330
42
100
AcDbEntity
  8
Layer 2
370
     0
100
AcDbVertex
100
AcDb2dVertex
 10
3.568389179103734
 20
-2.782010513334272
 30
0.0
  0
VERTEX
  5
DE
330
42
100
AcDbEntity
  8
Layer 2
370
     0
100
AcDbVertex
100
AcDb2dVertex
 10
3.586866914753475
 20
-2.793903919350365
 30
0.0
  0
VERTEX
  5
DF
330
42
100
AcDbEntity
  8
Layer 2
370
     0
100
AcDbVertex
100
AcDb2dVertex
 10
3.603282171609458
 20
-2.796597149241178
 30
0.0
  0
VERTEX
  5
E0
330
42
100
AcDbEntity
  8
Layer 2
370
     0
100
AcDbVertex
100
AcDb2dVertex
 10
3.623650452902641
 20
-2.791542916793635
 30
0.0
  0
VERTEX
  5
E1
330
42
100
AcDbEntity
  8
Layer 2
370
     0
100
AcDbVertex
100
AcDb2dVertex
 10
3.693232958221289
 20
-2.711382523242769
 30
0.0
  0
VERTEX
  5
E2
330
42
100
AcDbEntity
  8
Layer 2
370
     0
100
AcDbVertex
100
AcDb2dVertex
 10
3.797790063625522
 20
-2.58141521713565
 30
0.0
  0
VERTEX
  5
E3
330
42
100
AcDbEntity
  8
Layer 2
370
     0
100
AcDbVertex
100
AcDb2dVertex
 10
3.813817414848093
 20
-2.554552752026792
 30
0.0
  0
VERTEX
  5
E4
330
42
100
AcDbEntity
  8
Layer 2
370
     0
100
AcDbVertex
100
AcDb2dVertex
 10
3.822497387589338
 20
-2.524332422606676
 30
0.0
  0
VERTEX
  5
E5
330
42
100
AcDbEntity
  8
Layer 2
370
     0
100
AcDbVertex
100
AcDb2dVertex
 10
3.821357847384256
 20
-2.49583578368452
 30
0.0
  0
VERTEX
  5
E6
330
42
100
AcDbEntity
  8
Layer 2
370
     0
100
AcDbVertex
100
AcDb2dVertex
 10
3.810084497198634
 20
-2.460211109121133
 30
0.0
  0
VERTEX
  5
E7
330
42
100
AcDbEntity
  8
Layer 2
370
     0
100
AcDbVertex
100
AcDb2dVertex
 10
3.791065167631687
 20
-2.433672512860691
 30
0.0
  0
VERTEX
  5
E8
330
42
100
AcDbEntity
  8
Layer 2
370
     0
100
AcDbVertex
100
AcDb2dVertex
 10
3.777741382061701
 20
-2.421935850918784
 30
0.0
  0
VERTEX
  5
E9
330
42
100
AcDbEntity
  8
Layer 2
370
     0
100
AcDbVertex
100
AcDb2dVertex
 10
3.500151311454399
 20
-2.294692018040261
 30
0.0
  0
VERTEX
  5
EA
330
42
100
AcDbEntity
  8
Layer 2
370
     0
100
AcDbVertex
100
AcDb2dVertex
 10
3.475621852469304
 20
-2.286027728694055
 30
0.0
  0
VERTEX
  5
EB
330
42
100
AcDbEntity
  8
Layer 2
370
     0
100
AcDbVertex
100
AcDb2dVertex
 10
3.384946484018731
 20
-2.262216897250167
 30
0.0
  0
VERTEX
  5
EC
330
42
100
AcDbEntity
  8
Layer 2
370
     0
100
AcDbVertex
100
AcDb2dVertex
 10
3.409393436661958
 20
-2.20398093503891
 30
0.0
  0
VERTEX
  5
ED
330
42
100
AcDbEntity
  8
Layer 2
370
     0
100
AcDbVertex
100
AcDb2dVertex
 10
3.309481582105566
 20
-2.240649184506184
 30
0.0
  0
VERTEX
  5
EE
330
42
100
AcDbEntity
  8
Layer 2
370
     0
100
AcDbVertex
100
AcDb2dVertex
 10
3.31669342729333
 20
-2.165383886375076
 30
0.0
  0
VERTEX
  5
EF
330
42
100
AcDbEntity
  8
Layer 2
370
     0
100
AcDbVertex
100
AcDb2dVertex
 10
3.211477978801945
 20
-2.232959770951614
 30
0.0
  0
VERTEX
  5
F0
330
42
100
AcDbEntity
  8
Layer 2
370
     0
100
AcDbVertex
100
AcDb2dVertex
 10
3.136939610525006
 20
-2.228122578266847
 30
0.0
  0
VERTEX
  5
F1
330
42
100
AcDbEntity
  8
Layer 2
370
     0
100
AcDbVertex
100
AcDb2dVertex
 10
3.07214822510961
 20
-2.228122578266847
 30
0.0
  0
VERTEX
  5
F2
330
42
100
AcDbEntity
  8
Layer 2
370
     0
100
AcDbVertex
100
AcDb2dVertex
 10
3.0170738429775
 20
-2.229379326313215
 30
0.0
  0
VERTEX
  5
F3
330
42
100
AcDbEntity
  8
Layer 2
370
     0
100
AcDbVertex
100
AcDb2dVertex
 10
2.948827819761896
 20
-2.23786969001608
 30
0.0
  0
SEQEND
  5
F5
330
42
100
AcDbEntity
  8
Layer 2
370
     0
  0
HATCH
  5
F4
330
1F
100
AcDbEntity
  8
Layer 2
 62
     1
100
AcDbHatch
 10
0.0
 20
0.0
 30
0.0
210
0.0
220
0.0
230
1.0
  2
SOLID
 70
     1
 71
     0
 91
        1
 92
        1
 93
      175
 72
     1
 10
2.948827819761896
 20
-2.23786969001608
 11
2.901277321518086
 21
-2.245754545270996
 72
     1
 10
2.901277321518086
 20
-2.245754545270996
 11
2.812068867292409
 21
-2.260547154934948
 72
     1
 10
2.812068867292409
 20
-2.260547154934948
 11
2.75432656128583
 21
-2.270122024893744
 72
     1
 10
2.75432656128583
 20
-2.270122024893744
 11
2.703770755381634
 21
-2.279847527346002
 72
     1
 10
2.703770755381634
 20
-2.279847527346002
 11
2.682238953311096
 21
-2.288612876107082
 72
     1
 10
2.682238953311096
 20
-2.288612876107082
 11
2.66364341854483
 21
-2.302593707919616
 72
     1
 10
2.66364341854483
 20
-2.302593707919616
 11
2.644329317545852
 21
-2.326125204166917
 72
     1
 10
2.644329317545852
 20
-2.326125204166917
 11
2.632577241837528
 21
-2.35082760740939
 72
     1
 10
2.632577241837528
 20
-2.35082760740939
 11
2.626827552130357
 21
-2.384135138996397
 72
     1
 10
2.626827552130357
 20
-2.384135138996397
 11
2.630529550620344
 21
-2.414317241287828
 72
     1
 10
2.630529550620344
 20
-2.414317241287828
 11
2.643624912911643
 21
-2.447208810680511
 72
     1
 10
2.643624912911643
 20
-2.447208810680511
 11
2.687696241628626
 21
-2.545656806802476
 72
     1
 10
2.687696241628626
 20
-2.545656806802476
 11
2.718700898084383
 21
-2.61491593759173
 72
     1
 10
2.718700898084383
 20
-2.61491593759173
 11
2.740357509614164
 21
-2.663293234541622
 72
     1
 10
2.740357509614164
 20
-2.663293234541622
 11
2.75432656128583
 21
-2.681215445464861
 72
     1
 10
2.75432656128583
 20
-2.681215445464861
 11
2.776660210150213
 21
-2.690866260803735
 72
     1
 10
2.776660210150213
 20
-2.690866260803735
 11
2.800333957936194
 21
-2.687559041725207
 72
     1
 10
2.800333957936194
 20
-2.687559041725207
 11
2.812068867292409
 21
-2.680776490155949
 72
     1
 10
2.812068867292409
 20
-2.680776490155949
 11
2.826726280698495
 21
-2.662750382357848
 72
     1
 10
2.826726280698495
 20
-2.662750382357848
 11
2.837524859913729
 21
-2.636244815597011
 72
     1
 10
2.837524859913729
 20
-2.636244815597011
 11
2.848323394190932
 21
-2.604830795567725
 72
     1
 10
2.848323394190932
 20
-2.604830795567725
 11
2.866381767540992
 21
-2.560171451881716
 72
     1
 10
2.866381767540992
 20
-2.560171451881716
 11
2.866381767540992
 21
-2.994459714963745
 72
     1
 10
2.866381767540992
 20
-2.994459714963745
 11
2.794631763101329
 21
-3.045970005999101
 72
     1
 10
2.794631763101329
 20
-3.045970005999101
 11
2.863416302672602
 21
-3.054842493537965
 72
     1
 10
2.863416302672602
 20
-3.054842493537965
 11
2.75432656128583
 21
-3.139004624420775
 72
     1
 10
2.75432656128583
 20
-3.139004624420775
 11
2.866381767540992
 21
-3.153458692948384
 72
     1
 10
2.866381767540992
 20
-3.153458692948384
 11
2.859871945268424
 21
-3.195556070918125
 72
     1
 10
2.859871945268424
 20
-3.195556070918125
 11
2.848361726385671
 21
-3.241372885108982
 72
     1
 10
2.848361726385671
 20
-3.241372885108982
 11
2.832109459999174
 21
-3.28788156620567
 72
     1
 10
2.832109459999174
 20
-3.28788156620567
 11
2.820194618511828
 21
-3.315335326764347
 72
     1
 10
2.820194618511828
 20
-3.315335326764347
 11
2.802184104232588
 21
-3.356947283435349
 72
     1
 10
2.802184104232588
 20
-3.356947283435349
 11
2.773286392815357
 21
-3.39635529619045
 72
     1
 10
2.773286392815357
 20
-3.39635529619045
 11
2.740793409132645
 21
-3.438104943183488
 72
     1
 10
2.740793409132645
 20
-3.438104943183488
 11
2.700097066140946
 21
-3.480927981506233
 72
     1
 10
2.700097066140946
 20
-3.480927981506233
 11
2.665557534219008
 21
-3.518987132411237
 72
     1
 10
2.665557534219008
 20
-3.518987132411237
 11
2.63353956866624
 21
-3.562110087577973
 72
     1
 10
2.63353956866624
 20
-3.562110087577973
 11
2.598980106699274
 21
-3.62187191155979
 72
     1
 10
2.598980106699274
 20
-3.62187191155979
 11
2.582357145969682
 21
-3.65839705566451
 72
     1
 10
2.582357145969682
 20
-3.65839705566451
 11
2.565928407685356
 21
-3.704714929611125
 72
     1
 10
2.565928407685356
 20
-3.704714929611125
 11
2.553770878017657
 21
-3.752617141024075
 72
     1
 10
2.553770878017657
 20
-3.752617141024075
 11
2.544769867527975
 21
-3.814402707162015
 72
     1
 10
2.544769867527975
 20
-3.814402707162015
 11
2.542760910004997
 21
-3.890841687215622
 72
     1
 10
2.542760910004997
 20
-3.890841687215622
 11
2.542760910004997
 21
-4.008644206152793
 72
     1
 10
2.542760910004997
 20
-4.008644206152793
 11
2.542760910004997
 21
-4.14025871812065
 72
     1
 10
2.542760910004997
 20
-4.14025871812065
 11
4.07516389212118
 21
-4.153469079939643
 72
     1
 10
4.07516389212118
 20
-4.153469079939643
 11
4.01365388637982
 21
-3.992545942616744
 72
     1
 10
4.01365388637982
 20
-3.992545942616744
 11
4.054120101388636
 21
-3.963622167104556
 72
     1
 10
4.054120101388636
 20
-3.963622167104556
 11
4.08677122222654
 21
-3.934584967841399
 72
     1
 10
4.08677122222654
 20
-3.934584967841399
 11
4.111395141086632
 21
-3.908334110201243
 72
     1
 10
4.111395141086632
 20
-3.908334110201243
 11
4.140357922865001
 21
-3.870993789058907
 72
     1
 10
4.140357922865001
 20
-3.870993789058907
 11
4.165561003889479
 21
-3.830419542870408
 72
     1
 10
4.165561003889479
 20
-3.830419542870408
 11
4.192170108020441
 21
-3.774183471921636
 72
     1
 10
4.192170108020441
 20
-3.774183471921636
 11
4.210636788898884
 21
-3.719239640823566
 72
     1
 10
4.210636788898884
 20
-3.719239640823566
 11
4.219873005376181
 21
-3.679616464471059
 72
     1
 10
4.219873005376181
 20
-3.679616464471059
 11
4.225979013929948
 21
-3.634340615064098
 72
     1
 10
4.225979013929948
 20
-3.634340615064098
 11
4.213608275471996
 21
-3.63909668325338
 72
     1
 10
4.213608275471996
 20
-3.63909668325338
 11
4.156884356567212
 21
-3.648465197481427
 72
     1
 10
4.156884356567212
 20
-3.648465197481427
 11
4.100973277919138
 21
-3.656876889797432
 72
     1
 10
4.100973277919138
 20
-3.656876889797432
 11
4.12844411495391
 21
-3.640511334474215
 72
     1
 10
4.12844411495391
 20
-3.640511334474215
 11
4.156558645256963
 21
-3.611659819418289
 72
     1
 10
4.156558645256963
 20
-3.611659819418289
 11
4.181647403768466
 21
-3.574580948110805
 72
     1
 10
4.181647403768466
 20
-3.574580948110805
 11
4.205707619168834
 21
-3.525133315621638
 72
     1
 10
4.205707619168834
 20
-3.525133315621638
 11
4.220017885793469
 21
-3.485312950909651
 72
     1
 10
4.220017885793469
 20
-3.485312950909651
 11
4.17121736447661
 21
-3.494303820951245
 72
     1
 10
4.17121736447661
 20
-3.494303820951245
 11
4.079015446340614
 21
-3.518969516678125
 72
     1
 10
4.079015446340614
 20
-3.518969516678125
 11
4.096350046737699
 21
-3.493448543571857
 72
     1
 10
4.096350046737699
 20
-3.493448543571857
 11
4.107548080676704
 21
-3.470627720823005
 72
     1
 10
4.107548080676704
 20
-3.470627720823005
 11
4.116312447159721
 21
-3.420663030616298
 72
     1
 10
4.116312447159721
 20
-3.420663030616298
 11
4.114271718403744
 21
-3.375740125004995
 72
     1
 10
4.114271718403744
 20
-3.375740125004995
 11
4.107312784812899
 21
-3.334425748397128
 72
     1
 10
4.107312784812899
 20
-3.334425748397128
 11
4.099484329048512
 21
-3.299620235382412
 72
     1
 10
4.099484329048512
 20
-3.299620235382412
 11
4.093510712832565
 21
-3.282913668892434
 72
     1
 10
4.093510712832565
 20
-3.282913668892434
 11
4.082912477911906
 21
-3.252829852349552
 72
     1
 10
4.082912477911906
 20
-3.252829852349552
 11
4.054120101388636
 21
-3.29414072378601
 72
     1
 10
4.054120101388636
 20
-3.29414072378601
 11
4.014144005233598
 21
-3.351562401680742
 72
     1
 10
4.014144005233598
 20
-3.351562401680742
 11
4.022661817336105
 21
-3.317996470855582
 72
     1
 10
4.022661817336105
 20
-3.317996470855582
 11
4.024385223226115
 21
-3.304037829842501
 72
     1
 10
4.024385223226115
 20
-3.304037829842501
 11
4.023499463421078
 21
-3.279242217502037
 72
     1
 10
4.023499463421078
 20
-3.279242217502037
 11
4.019699725909732
 21
-3.251652413496029
 72
     1
 10
4.019699725909732
 20
-3.251652413496029
 11
4.012279859196673
 21
-3.225043909394874
 72
     1
 10
4.012279859196673
 20
-3.225043909394874
 11
4.000456586566972
 21
-3.193107124510081
 72
     1
 10
4.000456586566972
 20
-3.193107124510081
 11
3.98450973445132
 21
-3.161884316073661
 72
     1
 10
3.98450973445132
 20
-3.161884316073661
 11
3.957729306442211
 21
-3.119106511510229
 72
     1
 10
3.957729306442211
 20
-3.119106511510229
 11
3.936865467701914
 21
-3.091880111674527
 72
     1
 10
3.936865467701914
 20
-3.091880111674527
 11
3.939322323214658
 21
-3.15942647192282
 72
     1
 10
3.939322323214658
 20
-3.15942647192282
 11
3.938671619603635
 21
-3.181142806180509
 72
     1
 10
3.938671619603635
 20
-3.181142806180509
 11
3.934622158015145
 21
-3.214090698195731
 72
     1
 10
3.934622158015145
 20
-3.214090698195731
 11
3.930020497119155
 21
-3.231761076036289
 72
     1
 10
3.930020497119155
 20
-3.231761076036289
 11
3.923748377738345
 21
-3.217594819310509
 72
     1
 10
3.923748377738345
 20
-3.217594819310509
 11
3.916737335586681
 21
-3.20753018575235
 72
     1
 10
3.916737335586681
 20
-3.20753018575235
 11
3.903875398779898
 21
-3.194338755764824
 72
     1
 10
3.903875398779898
 20
-3.194338755764824
 11
3.89652040579641
 21
-3.188075975263776
 72
     1
 10
3.89652040579641
 20
-3.188075975263776
 11
3.887930638790572
 21
-3.182431271231406
 72
     1
 10
3.887930638790572
 20
-3.182431271231406
 11
3.864954629821391
 21
-3.170166137295988
 72
     1
 10
3.864954629821391
 20
-3.170166137295988
 11
3.843335053661652
 21
-3.162552901922229
 72
     1
 10
3.843335053661652
 20
-3.162552901922229
 11
3.81651084927095
 21
-3.156343817310446
 72
     1
 10
3.81651084927095
 20
-3.156343817310446
 11
3.793108403082492
 21
-3.15313463553361
 72
     1
 10
3.793108403082492
 20
-3.15313463553361
 11
3.75094120115207
 21
-3.151708264284075
 72
     1
 10
3.75094120115207
 20
-3.151708264284075
 11
3.769517112402809
 21
-3.173096479623634
 72
     1
 10
3.769517112402809
 20
-3.173096479623634
 11
3.810507677490427
 21
-3.216537955564945
 72
     1
 10
3.810507677490427
 20
-3.216537955564945
 11
3.847900083630394
 21
-3.261315872274078
 72
     1
 10
3.847900083630394
 20
-3.261315872274078
 11
3.860075251500171
 21
-3.275937020637785
 72
     1
 10
3.860075251500171
 20
-3.275937020637785
 11
3.881058825185846
 21
-3.308700846217107
 72
     1
 10
3.881058825185846
 20
-3.308700846217107
 11
3.858047644667876
 21
-3.307079569637001
 72
     1
 10
3.858047644667876
 20
-3.307079569637001
 11
3.812340659180487
 21
-3.305755783243765
 72
     1
 10
3.812340659180487
 20
-3.305755783243765
 11
3.731259304317164
 21
-3.300521393974527
 72
     1
 10
3.731259304317164
 20
-3.300521393974527
 11
3.736382606616214
 21
-3.317167902265737
 72
     1
 10
3.736382606616214
 20
-3.317167902265737
 11
3.751698677676081
 21
-3.3435045017906
 72
     1
 10
3.751698677676081
 20
-3.3435045017906
 11
3.767210630721795
 21
-3.36718061374788
 72
     1
 10
3.767210630721795
 20
-3.36718061374788
 11
3.781662949832682
 21
-3.386745015012972
 72
     1
 10
3.781662949832682
 20
-3.386745015012972
 11
3.798793621156038
 21
-3.40229215775576
 72
     1
 10
3.798793621156038
 20
-3.40229215775576
 11
3.819874711626021
 21
-3.41879595418191
 72
     1
 10
3.819874711626021
 20
-3.41879595418191
 11
3.851638099471074
 21
-3.435105916509251
 72
     1
 10
3.851638099471074
 20
-3.435105916509251
 11
3.875745486462367
 21
-3.442833259669745
 72
     1
 10
3.875745486462367
 20
-3.442833259669745
 11
3.915417953126684
 21
-3.447118805968229
 72
     1
 10
3.915417953126684
 20
-3.447118805968229
 11
3.782576361545277
 21
-3.474808671276504
 72
     1
 10
3.782576361545277
 20
-3.474808671276504
 11
3.805510068787978
 21
-3.511141390459771
 72
     1
 10
3.805510068787978
 20
-3.511141390459771
 11
3.834611349774225
 21
-3.538995819070806
 72
     1
 10
3.834611349774225
 20
-3.538995819070806
 11
3.874837595357399
 21
-3.561651000002611
 72
     1
 10
3.874837595357399
 20
-3.561651000002611
 11
3.910423892787902
 21
-3.574516327130671
 72
     1
 10
3.910423892787902
 20
-3.574516327130671
 11
3.981190966282459
 21
-3.584064234232705
 72
     1
 10
3.981190966282459
 20
-3.584064234232705
 11
3.86380655137825
 21
-3.606762825364007
 72
     1
 10
3.86380655137825
 20
-3.606762825364007
 11
3.827748943210685
 21
-3.613233191989467
 72
     1
 10
3.827748943210685
 20
-3.613233191989467
 11
3.88404577046352
 21
-3.658874477982408
 72
     1
 10
3.88404577046352
 20
-3.658874477982408
 11
3.914144048018518
 21
-3.677390950269758
 72
     1
 10
3.914144048018518
 20
-3.677390950269758
 11
3.949116850580342
 21
-3.693227853847171
 72
     1
 10
3.949116850580342
 20
-3.693227853847171
 11
3.990026155202789
 21
-3.703339284656572
 72
     1
 10
3.990026155202789
 20
-3.703339284656572
 11
3.964054273254356
 21
-3.705630947733173
 72
     1
 10
3.964054273254356
 20
-3.705630947733173
 11
3.908522651877875
 21
-3.715463402850774
 72
     1
 10
3.908522651877875
 20
-3.715463402850774
 11
3.888035374509879
 21
-3.718722672982242
 72
     1
 10
3.888035374509879
 20
-3.718722672982242
 11
3.874476472828468
 21
-3.719266603680403
 72
     1
 10
3.874476472828468
 20
-3.719266603680403
 11
3.847899724125657
 21
-3.676178879979893
 72
     1
 10
3.847899724125657
 20
-3.676178879979893
 11
3.7961428128266
 21
-3.592408519406642
 72
     1
 10
3.7961428128266
 20
-3.592408519406642
 11
3.760840074773619
 21
-3.548667755314151
 72
     1
 10
3.760840074773619
 20
-3.548667755314151
 11
3.727056783578139
 21
-3.503959204414463
 72
     1
 10
3.727056783578139
 20
-3.503959204414463
 11
3.668668267769969
 21
-3.431892611097737
 72
     1
 10
3.668668267769969
 20
-3.431892611097737
 11
3.602284096526419
 21
-3.356947373311514
 72
     1
 10
3.602284096526419
 20
-3.356947373311514
 11
3.559294787253293
 21
-3.311884170968622
 72
     1
 10
3.559294787253293
 20
-3.311884170968622
 11
3.509319132151556
 21
-3.261419499520444
 72
     1
 10
3.509319132151556
 20
-3.261419499520444
 11
3.485412515158815
 21
-3.233307755379276
 72
     1
 10
3.485412515158815
 20
-3.233307755379276
 11
3.506989091941982
 21
-3.233371297845173
 72
     1
 10
3.506989091941982
 20
-3.233371297845173
 11
3.474801103107893
 21
-3.191649692223159
 72
     1
 10
3.474801103107893
 20
-3.191649692223159
 11
3.451950441464204
 21
-3.16203099401471
 72
     1
 10
3.451950441464204
 20
-3.16203099401471
 11
3.429185791333667
 21
-3.129814873933406
 72
     1
 10
3.429185791333667
 20
-3.129814873933406
 11
3.497883285815508
 21
-3.13632685323455
 72
     1
 10
3.497883285815508
 20
-3.13632685323455
 11
3.437557129240632
 21
-3.073963113570294
 72
     1
 10
3.437557129240632
 20
-3.073963113570294
 11
3.478070709001208
 21
-2.910045750998354
 72
     1
 10
3.478070709001208
 20
-2.910045750998354
 11
3.507556480325497
 21
-2.796621550626595
 72
     1
 10
3.507556480325497
 20
-2.796621550626595
 11
3.544039562373604
 21
-2.65627988091809
 72
     1
 10
3.544039562373604
 20
-2.65627988091809
 11
3.556090341597332
 21
-2.755564534486944
 72
     1
 10
3.556090341597332
 20
-2.755564534486944
 11
3.561571261253978
 21
-2.772763736404714
 72
     1
 10
3.561571261253978
 20
-2.772763736404714
 11
3.568389179103734
 21
-2.782010513334272
 72
     1
 10
3.568389179103734
 20
-2.782010513334272
 11
3.586866914753475
 21
-2.793903919350365
 72
     1
 10
3.586866914753475
 20
-2.793903919350365
 11
3.603282171609458
 21
-2.796597149241178
 72
     1
 10
3.603282171609458
 20
-2.796597149241178
 11
3.623650452902641
 21
-2.791542916793635
 72
     1
 10
3.623650452902641
 20
-2.791542916793635
 11
3.693232958221289
 21
-2.711382523242769
 72
     1
 10
3.693232958221289
 20
-2.711382523242769
 11
3.797790063625522
 21
-2.58141521713565
 72
     1
 10
3.797790063625522
 20
-2.58141521713565
 11
3.813817414848093
 21
-2.554552752026792
 72
     1
 10
3.813817414848093
 20
-2.554552752026792
 11
3.822497387589338
 21
-2.524332422606676
 72
     1
 10
3.822497387589338
 20
-2.524332422606676
 11
3.821357847384256
 21
-2.49583578368452
 72
     1
 10
3.821357847384256
 20
-2.49583578368452
 11
3.810084497198634
 21
-2.460211109121133
 72
     1
 10
3.810084497198634
 20
-2.460211109121133
 11
3.791065167631687
 21
-2.433672512860691
 72
     1
 10
3.791065167631687
 20
-2.433672512860691
 11
3.777741382061701
 21
-2.421935850918784
 72
     1
 10
3.777741382061701
 20
-2.421935850918784
 11
3.500151311454399
 21
-2.294692018040261
 72
     1
 10
3.500151311454399
 20
-2.294692018040261
 11
3.475621852469304
 21
-2.286027728694055
 72
     1
 10
3.475621852469304
 20
-2.286027728694055
 11
3.384946484018731
 21
-2.262216897250167
 72
     1
 10
3.384946484018731
 20
-2.262216897250167
 11
3.409393436661958
 21
-2.20398093503891
 72
     1
 10
3.409393436661958
 20
-2.20398093503891
 11
3.309481582105566
 21
-2.240649184506184
 72
     1
 10
3.309481582105566
 20
-2.240649184506184
 11
3.31669342729333
 21
-2.165383886375076
 72
     1
 10
3.31669342729333
 20
-2.165383886375076
 11
3.211477978801945
 21
-2.232959770951614
 72
     1
 10
3.211477978801945
 20
-2.232959770951614
 11
3.136939610525006
 21
-2.228122578266847
 72
     1
 10
3.136939610525006
 20
-2.228122578266847
 11
3.07214822510961
 21
-2.228122578266847
 72
     1
 10
3.07214822510961
 20
-2.228122578266847
 11
3.0170738429775
 21
-2.229379326313215
 72
     1
 10
3.0170738429775
 20
-2.229379326313215
 11
2.948827819761896
 21
-2.23786969001608
 97
        0
 75
     2
 76
     1
 98
        0
  0
ENDSEC
  0
SECTION
  2
OBJECTS
  0
DICTIONARY
  5
C
330
0
100
AcDbDictionary
281
     1
  3
ACAD_GROUP
350
D
  3
ACAD_LAYOUT
350
1A
  3
ACAD_MATERIAL
350
3B
  3
ACAD_MLEADERSTYLE
350
F7
  3
ACAD_MLINESTYLE
350
17
  3
ACAD_PLOTSETTINGS
350
19
  3
ACAD_PLOTSTYLENAME
350
E
  3
ACAD_TABLESTYLE
350
F6
  3
ACAD_VISUALSTYLE
350
2A
  0
SUN
  5
3F
330
29
100
AcDbSun
 90
        1
290
     0
 63
     7
421
 16777215
 40
1.0
291
     1
 91
  2455826
 92
 54000000
292
     0
 70
     2
 71
   256
280
     1
  0
DICTIONARY
  5
D
102
{ACAD_REACTORS
330
C
102
}
330
C
100
AcDbDictionary
281
     1
  0
DICTIONARY
  5
1A
102
{ACAD_REACTORS
330
C
102
}
330
C
100
AcDbDictionary
281
     1
  3
Layout1
350
1E
  3
Layout2
350
26
  3
Model
350
22
  0
DICTIONARY
  5
3B
102
{ACAD_REACTORS
330
C
102
}
330
C
100
AcDbDictionary
281
     1
  3
ByBlock
350
3D
  3
ByLayer
350
3C
  3
Global
350
3E
  0
DICTIONARY
  5
F7
102
{ACAD_REACTORS
330
C
102
}
330
C
100
AcDbDictionary
281
     1
  0
DICTIONARY
  5
17
102
{ACAD_REACTORS
330
C
102
}
330
C
100
AcDbDictionary
281
     1
  3
Standard
350
18
  0
DICTIONARY
  5
19
102
{ACAD_REACTORS
330
C
102
}
330
C
100
AcDbDictionary
281
     1
  0
ACDBDICTIONARYWDFLT
  5
E
102
{ACAD_REACTORS
330
C
102
}
330
C
100
AcDbDictionary
281
     1
  3
Normal
350
F
100
AcDbDictionaryWithDefault
340
F
  0
DICTIONARY
  5
F6
102
{ACAD_REACTORS
330
C
102
}
330
C
100
AcDbDictionary
281
     1
  0
DICTIONARY
  5
2A
102
{ACAD_REACTORS
330
C
102
}
330
C
100
AcDbDictionary
281
     1
  3
2dWireframe
350
2F
  3
3D Hidden
350
31
  3
3dWireframe
350
30
  3
Basic
350
32
  3
Brighten
350
36
  3
ColorChange
350
3A
  3
Conceptual
350
34
  3
Dim
350
35
  3
Facepattern
350
39
  3
Flat
350
2B
  3
FlatWithEdges
350
2C
  3
Gouraud
350
2D
  3
GouraudWithEdges
350
2E
  3
Linepattern
350
38
  3
Realistic
350
33
  3
Thicken
350
37
  0
LAYOUT
  5
1E
102
{ACAD_REACTORS
330
1A
102
}
330
1A
100
AcDbPlotSettings
  1

  2
none_device
  4

  6

 40
0.0
 41
0.0
 42
0.0
 43
0.0
 44
0.0
 45
0.0
 46
0.0
 47
0.0
 48
0.0
 49
0.0
140
0.0
141
0.0
142
1.0
143
1.0
 70
   688
 72
     0
 73
     0
 74
     5
  7

 75
    16
 76
     0
 77
     2
 78
   300
147
1.0
148
0.0
149
0.0
100
AcDbLayout
  1
Layout1
 70
     1
 71
     1
 10
0.0
 20
0.0
 11
12.0
 21
9.0
 12
0.0
 22
0.0
 32
0.0
 14
1.000000000000000E+20
 24
1.000000000000000E+20
 34
1.000000000000000E+20
 15
-1.000000000000000E+20
 25
-1.000000000000000E+20
 35
-1.000000000000000E+20
146
0.0
 13
0.0
 23
0.0
 33
0.0
 16
1.0
 26
0.0
 36
0.0
 17
0.0
 27
1.0
 37
0.0
 76
     0
330
1B
  0
LAYOUT
  5
26
102
{ACAD_REACTORS
330
1A
102
}
330
1A
100
AcDbPlotSettings
  1

  2
none_device
  4

  6

 40
0.0
 41
0.0
 42
0.0
 43
0.0
 44
0.0
 45
0.0
 46
0.0
 47
0.0
 48
0.0
 49
0.0
140
0.0
141
0.0
142
1.0
143
1.0
 70
   688
 72
     0
 73
     0
 74
     5
  7

 75
    16
 76
     0
 77
     2
 78
   300
147
1.0
148
0.0
149
0.0
100
AcDbLayout
  1
Layout2
 70
     1
 71
     2
 10
0.0
 20
0.0
 11
0.0
 21
0.0
 12
0.0
 22
0.0
 32
0.0
 14
0.0
 24
0.0
 34
0.0
 15
0.0
 25
0.0
 35
0.0
146
0.0
 13
0.0
 23
0.0
 33
0.0
 16
1.0
 26
0.0
 36
0.0
 17
0.0
 27
1.0
 37
0.0
 76
     0
330
23
  0
LAYOUT
  5
22
102
{ACAD_REACTORS
330
1A
102
}
330
1A
100
AcDbPlotSettings
  1

  2
none_device
  4

  6

 40
0.0
 41
0.0
 42
0.0
 43
0.0
 44
0.0
 45
0.0
 46
0.0
 47
0.0
 48
0.0
 49
0.0
140
0.0
141
0.0
142
1.0
143
1.0
 70
  1712
 72
     0
 73
     0
 74
     0
  7

 75
     0
 76
     0
 77
     2
 78
   300
147
1.0
148
0.0
149
0.0
100
AcDbLayout
  1
Model
 70
     1
 71
     0
 10
0.0
 20
0.0
 11
12.0
 21
9.0
 12
0.0
 22
0.0
 32
0.0
 14
1.000000000000000E+20
 24
1.000000000000000E+20
 34
1.000000000000000E+20
 15
-1.000000000000000E+20
 25
-1.000000000000000E+20
 35
-1.000000000000000E+20
146
0.0
 13
0.0
 23
0.0
 33
0.0
 16
1.0
 26
0.0
 36
0.0
 17
0.0
 27
1.0
 37
0.0
 76
     0
330
1F
331
29
  0
MATERIAL
  5
3D
102
{ACAD_REACTORS
330
3B
102
}
330
3B
100
AcDbMaterial
  1
ByBlock
 72
     1
 94
      127
  0
MATERIAL
  5
3C
102
{ACAD_REACTORS
330
3B
102
}
330
3B
100
AcDbMaterial
  1
ByLayer
 72
     1
 94
      127
  0
MATERIAL
  5
3E
102
{ACAD_REACTORS
330
3B
102
}
330
3B
100
AcDbMaterial
  1
Global
 72
     1
 94
      127
  0
MLINESTYLE
  5
18
102
{ACAD_REACTORS
330
17
102
}
330
17
100
AcDbMlineStyle
  2
Standard
 70
     0
  3

 62
   256
 51
90.0
 52
90.0
 71
     2
 49
0.5
 62
   256
  6
BYLAYER
 49
-0.5
 62
   256
  6
BYLAYER
  0
ACDBPLACEHOLDER
  5
F
102
{ACAD_REACTORS
330
E
102
}
330
E
  0
VISUALSTYLE
  5
2F
102
{ACAD_REACTORS
330
2A
102
}
330
2A
100
AcDbVisualStyle
  2
2dWireframe
 70
     4
177
     2
291
     0
 71
     0
176
     1
 72
     2
176
     1
 73
     0
176
     1
 90
        0
176
     1
 40
-0.6
176
     1
 41
-30.0
176
     1
 62
     5
 63
     7
421
 16777215
176
     1
 74
     1
176
     1
 91
        4
176
     1
 64
     7
176
     1
 65
   257
176
     1
 75
     1
176
     1
175
     1
176
     1
 42
1.0
176
     1
 92
        0
176
     1
 66
   257
176
     1
 43
1.0
176
     1
 76
     1
176
     1
 77
     6
176
     1
 78
     2
176
     1
 67
     7
176
     1
 79
     5
176
     1
170
     0
176
     1
171
     0
176
     1
290
     0
176
     1
 93
        1
176
     1
 44
0.0
176
     1
173
     0
176
     1
  0
VISUALSTYLE
  5
31
102
{ACAD_REACTORS
330
2A
102
}
330
2A
100
AcDbVisualStyle
  2
3D Hidden
 70
     6
177
     2
291
     0
 71
     1
176
     1
 72
     2
176
     1
 73
     2
176
     1
 90
        0
176
     1
 40
-0.6
176
     1
 41
-30.0
176
     1
 62
     5
 63
     7
421
 16777215
176
     1
 74
     2
176
     1
 91
        2
176
     1
 64
     7
176
     1
 65
   257
176
     1
 75
     2
176
     1
175
     1
176
     1
 42
40.0
176
     1
 92
        0
176
     1
 66
   257
176
     1
 43
1.0
176
     1
 76
     1
176
     1
 77
     6
176
     1
 78
     2
176
     1
 67
     7
176
     1
 79
     3
176
     1
170
     0
176
     1
171
     0
176
     1
290
     0
176
     1
 93
        1
176
     1
 44
0.0
176
     1
173
     0
176
     1
  0
VISUALSTYLE
  5
30
102
{ACAD_REACTORS
330
2A
102
}
330
2A
100
AcDbVisualStyle
  2
3dWireframe
 70
     5
177
     2
291
     0
 71
     0
176
     1
 72
     2
176
     1
 73
     0
176
     1
 90
        0
176
     1
 40
-0.6
176
     1
 41
-30.0
176
     1
 62
     5
 63
     7
421
 16777215
176
     1
 74
     1
176
     1
 91
        4
176
     1
 64
     7
176
     1
 65
   257
176
     1
 75
     1
176
     1
175
     1
176
     1
 42
1.0
176
     1
 92
        0
176
     1
 66
   257
176
     1
 43
1.0
176
     1
 76
     1
176
     1
 77
     6
176
     1
 78
     2
176
     1
 67
     7
176
     1
 79
     5
176
     1
170
     0
176
     1
171
     0
176
     1
290
     0
176
     1
 93
        1
176
     1
 44
0.0
176
     1
173
     0
176
     1
  0
VISUALSTYLE
  5
32
102
{ACAD_REACTORS
330
2A
102
}
330
2A
100
AcDbVisualStyle
  2
Basic
 70
     7
177
     2
291
     1
 71
     1
176
     1
 72
     0
176
     1
 73
     1
176
     1
 90
        0
176
     1
 40
-0.6
176
     1
 41
-30.0
176
     1
 62
     5
 63
     7
421
 16777215
176
     1
 74
     0
176
     1
 91
        4
176
     1
 64
     7
176
     1
 65
   257
176
     1
 75
     1
176
     1
175
     1
176
     1
 42
1.0
176
     1
 92
        8
176
     1
 66
     7
176
     1
 43
1.0
176
     1
 76
     1
176
     1
 77
     6
176
     1
 78
     2
176
     1
 67
     7
176
     1
 79
     5
176
     1
170
     0
176
     1
171
     0
176
     1
290
     0
176
     1
 93
        1
176
     1
 44
0.0
176
     1
173
     0
176
     1
  0
VISUALSTYLE
  5
36
102
{ACAD_REACTORS
330
2A
102
}
330
2A
100
AcDbVisualStyle
  2
Brighten
 70
    12
177
     2
291
     1
 71
     2
176
     1
 72
     2
176
     1
 73
     0
176
     1
 90
        0
176
     1
 40
-0.6
176
     1
 41
-30.0
176
     1
 62
     5
 63
     7
421
 16777215
176
     1
 74
     1
176
     1
 91
        4
176
     1
 64
     7
176
     1
 65
   257
176
     1
 75
     1
176
     1
175
     1
176
     1
 42
1.0
176
     1
 92
        8
176
     1
 66
     7
176
     1
 43
1.0
176
     1
 76
     1
176
     1
 77
     6
176
     1
 78
     2
176
     1
 67
     7
176
     1
 79
     5
176
     1
170
     0
176
     1
171
     0
176
     1
290
     0
176
     1
 93
        1
176
     1
 44
50.0
176
     1
173
     0
176
     1
  0
VISUALSTYLE
  5
3A
102
{ACAD_REACTORS
330
2A
102
}
330
2A
100
AcDbVisualStyle
  2
ColorChange
 70
    16
177
     2
291
     1
 71
     2
176
     1
 72
     2
176
     1
 73
     3
176
     1
 90
        0
176
     1
 40
-0.6
176
     1
 41
-30.0
176
     1
 62
     5
 63
     8
421
  8421504
176
     1
 74
     1
176
     1
 91
        4
176
     1
 64
     7
176
     1
 65
   257
176
     1
 75
     1
176
     1
175
     1
176
     1
 42
1.0
176
     1
 92
        8
176
     1
 66
     8
424
  8421504
176
     1
 43
1.0
176
     1
 76
     1
176
     1
 77
     6
176
     1
 78
     2
176
     1
 67
     7
176
     1
 79
     5
176
     1
170
     0
176
     1
171
     0
176
     1
290
     0
176
     1
 93
        1
176
     1
 44
0.0
176
     1
173
     0
176
     1
  0
VISUALSTYLE
  5
34
102
{ACAD_REACTORS
330
2A
102
}
330
2A
100
AcDbVisualStyle
  2
Conceptual
 70
     9
177
     2
291
     0
 71
     3
176
     1
 72
     2
176
     1
 73
     0
176
     1
 90
        0
176
     1
 40
-0.6
176
     1
 41
-30.0
176
     1
 62
     5
 63
     7
421
 16777215
176
     1
 74
     2
176
     1
 91
        2
176
     1
 64
     7
176
     1
 65
   257
176
     1
 75
     1
176
     1
175
     1
176
     1
 42
40.0
176
     1
 92
        8
176
     1
 66
     7
176
     1
 43
1.0
176
     1
 76
     1
176
     1
 77
     6
176
     1
 78
     2
176
     1
 67
     7
176
     1
 79
     3
176
     1
170
     0
176
     1
171
     0
176
     1
290
     0
176
     1
 93
        1
176
     1
 44
0.0
176
     1
173
     0
176
     1
  0
VISUALSTYLE
  5
35
102
{ACAD_REACTORS
330
2A
102
}
330
2A
100
AcDbVisualStyle
  2
Dim
 70
    11
177
     2
291
     1
 71
     2
176
     1
 72
     2
176
     1
 73
     0
176
     1
 90
        0
176
     1
 40
-0.6
176
     1
 41
-30.0
176
     1
 62
     5
 63
     7
421
 16777215
176
     1
 74
     1
176
     1
 91
        4
176
     1
 64
     7
176
     1
 65
   257
176
     1
 75
     1
176
     1
175
     1
176
     1
 42
1.0
176
     1
 92
        8
176
     1
 66
     7
176
     1
 43
1.0
176
     1
 76
     1
176
     1
 77
     6
176
     1
 78
     2
176
     1
 67
     7
176
     1
 79
     5
176
     1
170
     0
176
     1
171
     0
176
     1
290
     0
176
     1
 93
        1
176
     1
 44
-50.0
176
     1
173
     0
176
     1
  0
VISUALSTYLE
  5
39
102
{ACAD_REACTORS
330
2A
102
}
330
2A
100
AcDbVisualStyle
  2
Facepattern
 70
    15
177
     2
291
     1
 71
     2
176
     1
 72
     2
176
     1
 73
     0
176
     1
 90
        0
176
     1
 40
-0.6
176
     1
 41
-30.0
176
     1
 62
     5
 63
     7
421
 16777215
176
     1
 74
     1
176
     1
 91
        4
176
     1
 64
     7
176
     1
 65
   257
176
     1
 75
     1
176
     1
175
     1
176
     1
 42
1.0
176
     1
 92
        8
176
     1
 66
     7
176
     1
 43
1.0
176
     1
 76
     1
176
     1
 77
     6
176
     1
 78
     2
176
     1
 67
     7
176
     1
 79
     5
176
     1
170
     0
176
     1
171
     0
176
     1
290
     0
176
     1
 93
        1
176
     1
 44
0.0
176
     1
173
     0
176
     1
  0
VISUALSTYLE
  5
2B
102
{ACAD_REACTORS
330
2A
102
}
330
2A
100
AcDbVisualStyle
  2
Flat
 70
     0
177
     2
291
     1
 71
     2
176
     1
 72
     1
176
     1
 73
     1
176
     1
 90
        2
176
     1
 40
-0.6
176
     1
 41
30.0
176
     1
 62
     5
 63
     7
421
 16777215
176
     1
 74
     0
176
     1
 91
        4
176
     1
 64
     7
176
     1
 65
   257
176
     1
 75
     1
176
     1
175
     1
176
     1
 42
1.0
176
     1
 92
        8
176
     1
 66
     7
176
     1
 43
1.0
176
     1
 76
     1
176
     1
 77
     6
176
     1
 78
     2
176
     1
 67
     7
176
     1
 79
     5
176
     1
170
     0
176
     1
171
     0
176
     1
290
     0
176
     1
 93
       13
176
     1
 44
0.0
176
     1
173
     0
176
     1
  0
VISUALSTYLE
  5
2C
102
{ACAD_REACTORS
330
2A
102
}
330
2A
100
AcDbVisualStyle
  2
FlatWithEdges
 70
     1
177
     2
291
     1
 71
     2
176
     1
 72
     1
176
     1
 73
     1
176
     1
 90
        2
176
     1
 40
-0.6
176
     1
 41
30.0
176
     1
 62
     5
 63
     7
421
 16777215
176
     1
 74
     1
176
     1
 91
        4
176
     1
 64
     7
176
     1
 65
   257
176
     1
 75
     1
176
     1
175
     1
176
     1
 42
1.0
176
     1
 92
        0
176
     1
 66
   257
176
     1
 43
1.0
176
     1
 76
     1
176
     1
 77
     6
176
     1
 78
     2
176
     1
 67
     7
176
     1
 79
     5
176
     1
170
     0
176
     1
171
     0
176
     1
290
     0
176
     1
 93
       13
176
     1
 44
0.0
176
     1
173
     0
176
     1
  0
VISUALSTYLE
  5
2D
102
{ACAD_REACTORS
330
2A
102
}
330
2A
100
AcDbVisualStyle
  2
Gouraud
 70
     2
177
     2
291
     1
 71
     2
176
     1
 72
     2
176
     1
 73
     1
176
     1
 90
        2
176
     1
 40
-0.6
176
     1
 41
30.0
176
     1
 62
     5
 63
     7
421
 16777215
176
     1
 74
     0
176
     1
 91
        4
176
     1
 64
     7
176
     1
 65
   257
176
     1
 75
     1
176
     1
175
     1
176
     1
 42
1.0
176
     1
 92
        0
176
     1
 66
     7
176
     1
 43
1.0
176
     1
 76
     1
176
     1
 77
     6
176
     1
 78
     2
176
     1
 67
     7
176
     1
 79
     5
176
     1
170
     0
176
     1
171
     0
176
     1
290
     0
176
     1
 93
       13
176
     1
 44
0.0
176
     1
173
     0
176
     1
  0
VISUALSTYLE
  5
2E
102
{ACAD_REACTORS
330
2A
102
}
330
2A
100
AcDbVisualStyle
  2
GouraudWithEdges
 70
     3
177
     2
291
     1
 71
     2
176
     1
 72
     2
176
     1
 73
     1
176
     1
 90
        2
176
     1
 40
-0.6
176
     1
 41
30.0
176
     1
 62
     5
 63
     7
421
 16777215
176
     1
 74
     1
176
     1
 91
        4
176
     1
 64
     7
176
     1
 65
   257
176
     1
 75
     1
176
     1
175
     1
176
     1
 42
1.0
176
     1
 92
        0
176
     1
 66
   257
176
     1
 43
1.0
176
     1
 76
     1
176
     1
 77
     6
176
     1
 78
     2
176
     1
 67
     7
176
     1
 79
     5
176
     1
170
     0
176
     1
171
     0
176
     1
290
     0
176
     1
 93
       13
176
     1
 44
0.0
176
     1
173
     0
176
     1
  0
VISUALSTYLE
  5
38
102
{ACAD_REACTORS
330
2A
102
}
330
2A
100
AcDbVisualStyle
  2
Linepattern
 70
    14
177
     2
291
     1
 71
     2
176
     1
 72
     2
176
     1
 73
     0
176
     1
 90
        0
176
     1
 40
-0.6
176
     1
 41
-30.0
176
     1
 62
     5
 63
     7
421
 16777215
176
     1
 74
     1
176
     1
 91
        4
176
     1
 64
     7
176
     1
 65
   257
176
     1
 75
     7
176
     1
175
     7
176
     1
 42
1.0
176
     1
 92
        8
176
     1
 66
     7
176
     1
 43
1.0
176
     1
 76
     1
176
     1
 77
     6
176
     1
 78
     2
176
     1
 67
     7
176
     1
 79
     5
176
     1
170
     0
176
     1
171
     0
176
     1
290
     0
176
     1
 93
        1
176
     1
 44
0.0
176
     1
173
     0
176
     1
  0
VISUALSTYLE
  5
33
102
{ACAD_REACTORS
330
2A
102
}
330
2A
100
AcDbVisualStyle
  2
Realistic
 70
     8
177
     2
291
     0
 71
     2
176
     1
 72
     2
176
     1
 73
     0
176
     1
 90
        0
176
     1
 40
-0.6
176
     1
 41
-30.0
176
     1
 62
     5
 63
     7
421
 16777215
176
     1
 74
     1
176
     1
 91
        0
176
     1
 64
     7
176
     1
 65
   257
176
     1
 75
     1
176
     1
175
     1
176
     1
 42
1.0
176
     1
 92
        8
176
     1
 66
     8
424
  7895160
176
     1
 43
1.0
176
     1
 76
     1
176
     1
 77
     6
176
     1
 78
     2
176
     1
 67
     7
176
     1
 79
     5
176
     1
170
     0
176
     1
171
     0
176
     1
290
     0
176
     1
 93
       13
176
     1
 44
0.0
176
     1
173
     0
176
     1
  0
VISUALSTYLE
  5
37
102
{ACAD_REACTORS
330
2A
102
}
330
2A
100
AcDbVisualStyle
  2
Thicken
 70
    13
177
     2
291
     1
 71
     2
176
     1
 72
     2
176
     1
 73
     0
176
     1
 90
        0
176
     1
 40
-0.6
176
     1
 41
-30.0
176
     1
 62
     5
 63
     7
421
 16777215
176
     1
 74
     1
176
     1
 91
        4
176
     1
 64
     7
176
     1
 65
   257
176
     1
 75
     1
176
     1
175
     1
176
     1
 42
1.0
176
     1
 92
       12
176
     1
 66
     7
176
     1
 43
1.0
176
     1
 76
     1
176
     1
 77
     6
176
     1
 78
     2
176
     1
 67
     7
176
     1
 79
     5
176
     1
170
     0
176
     1
171
     0
176
     1
290
     0
176
     1
 93
        1
176
     1
 44
0.0
176
     1
173
     0
176
     1
  0
ENDSEC
  0
EOF
