  0
SECTION
  2
HEADER
  9
$ACADVER
  1
AC1024
  9
$ACADMAINTVER
 70
     6
  9
$DWGCODEPAGE
  3
ANSI_1252
  9
$INSBASE
 10
0.0
 20
0.0
 30
0.0
  9
$EXTMIN
 10
1.000000000000000E+20
 20
1.000000000000000E+20
 30
1.000000000000000E+20
  9
$EXTMAX
 10
-1.000000000000000E+20
 20
-1.000000000000000E+20
 30
-1.000000000000000E+20
  9
$LIMMIN
 10
0.0
 20
0.0
  9
$LIMMAX
 10
12.0
 20
9.0
  9
$ORTHOMODE
 70
     0
  9
$REGENMODE
 70
     1
  9
$FILLMODE
 70
     1
  9
$QTEXTMODE
 70
     0
  9
$MIRRTEXT
 70
     1
  9
$LTSCALE
 40
1.0
  9
$ATTMODE
 70
     1
  9
$TEXTSIZE
 40
0.2
  9
$TRACEWID
 40
0.05
  9
$TEXTSTYLE
  7
Standard
  9
$CLAYER
  8
0
  9
$CELTYPE
  6
ByLayer
  9
$CECOLOR
 62
   256
  9
$CELTSCALE
 40
1.0
  9
$DISPSILH
 70
     0
  9
$DIMSCALE
 40
1.0
  9
$DIMASZ
 40
0.18
  9
$DIMEXO
 40
0.0625
  9
$DIMDLI
 40
0.38
  9
$DIMRND
 40
0.0
  9
$DIMDLE
 40
0.0
  9
$DIMEXE
 40
0.18
  9
$DIMTP
 40
0.0
  9
$DIMTM
 40
0.0
  9
$DIMTXT
 40
0.18
  9
$DIMCEN
 40
0.09
  9
$DIMTSZ
 40
0.0
  9
$DIMTOL
 70
     0
  9
$DIMLIM
 70
     0
  9
$DIMTIH
 70
     1
  9
$DIMTOH
 70
     1
  9
$DIMSE1
 70
     0
  9
$DIMSE2
 70
     0
  9
$DIMTAD
 70
     0
  9
$DIMZIN
 70
     0
  9
$DIMBLK
  1

  9
$DIMASO
 70
     1
  9
$DIMSHO
 70
     1
  9
$DIMPOST
  1

  9
$DIMAPOST
  1

  9
$DIMALT
 70
     0
  9
$DIMALTD
 70
     2
  9
$DIMALTF
 40
25.4
  9
$DIMLFAC
 40
1.0
  9
$DIMTOFL
 70
     0
  9
$DIMTVP
 40
0.0
  9
$DIMTIX
 70
     0
  9
$DIMSOXD
 70
     0
  9
$DIMSAH
 70
     0
  9
$DIMBLK1
  1

  9
$DIMBLK2
  1

  9
$DIMSTYLE
  2
Standard
  9
$DIMCLRD
 70
     0
  9
$DIMCLRE
 70
     0
  9
$DIMCLRT
 70
     0
  9
$DIMTFAC
 40
1.0
  9
$DIMGAP
 40
0.09
  9
$DIMJUST
 70
     0
  9
$DIMSD1
 70
     0
  9
$DIMSD2
 70
     0
  9
$DIMTOLJ
 70
     1
  9
$DIMTZIN
 70
     0
  9
$DIMALTZ
 70
     0
  9
$DIMALTTZ
 70
     0
  9
$DIMUPT
 70
     0
  9
$DIMDEC
 70
     4
  9
$DIMTDEC
 70
     4
  9
$DIMALTU
 70
     2
  9
$DIMALTTD
 70
     2
  9
$DIMTXSTY
  7
Standard
  9
$DIMAUNIT
 70
     0
  9
$DIMADEC
 70
     0
  9
$DIMALTRND
 40
0.0
  9
$DIMAZIN
 70
     0
  9
$DIMDSEP
 70
    46
  9
$DIMATFIT
 70
     3
  9
$DIMFRAC
 70
     0
  9
$DIMLDRBLK
  1

  9
$DIMLUNIT
 70
     2
  9
$DIMLWD
 70
    -2
  9
$DIMLWE
 70
    -2
  9
$DIMTMOVE
 70
     0
  9
$DIMFXL
 40
1.0
  9
$DIMFXLON
 70
     0
  9
$DIMJOGANG
 40
0.7853981633974483
  9
$DIMTFILL
 70
     0
  9
$DIMTFILLCLR
 70
     0
  9
$DIMARCSYM
 70
     0
  9
$DIMLTYPE
  6

  9
$DIMLTEX1
  6

  9
$DIMLTEX2
  6

  9
$DIMTXTDIRECTION
 70
     0
  9
$LUNITS
 70
     2
  9
$LUPREC
 70
     4
  9
$SKETCHINC
 40
0.1
  9
$FILLETRAD
 40
0.5
  9
$AUNITS
 70
     0
  9
$AUPREC
 70
     0
  9
$MENU
  1
.
  9
$ELEVATION
 40
0.0
  9
$PELEVATION
 40
0.0
  9
$THICKNESS
 40
0.0
  9
$LIMCHECK
 70
     0
  9
$CHAMFERA
 40
0.5
  9
$CHAMFERB
 40
0.5
  9
$CHAMFERC
 40
1.0
  9
$CHAMFERD
 40
0.0
  9
$SKPOLY
 70
     0
  9
$TDCREATE
 40
2458380.601324213
  9
$TDUCREATE
 40
2458380.89299088
  9
$TDUPDATE
 40
2458380.601324271
  9
$TDUUPDATE
 40
2458380.892990937
  9
$TDINDWG
 40
0.0000000116
  9
$TDUSRTIMER
 40
0.0000000116
  9
$USRTIMER
 70
     1
  9
$ANGBASE
 50
0.0
  9
$ANGDIR
 70
     0
  9
$PDMODE
 70
     0
  9
$PDSIZE
 40
0.0
  9
$PLINEWID
 40
0.0
  9
$SPLFRAME
 70
     0
  9
$SPLINETYPE
 70
     6
  9
$SPLINESEGS
 70
     8
  9
$HANDSEED
  5
83
  9
$SURFTAB1
 70
     6
  9
$SURFTAB2
 70
     6
  9
$SURFTYPE
 70
     6
  9
$SURFU
 70
     6
  9
$SURFV
 70
     6
  9
$UCSBASE
  2

  9
$UCSNAME
  2

  9
$UCSORG
 10
0.0
 20
0.0
 30
0.0
  9
$UCSXDIR
 10
1.0
 20
0.0
 30
0.0
  9
$UCSYDIR
 10
0.0
 20
1.0
 30
0.0
  9
$UCSORTHOREF
  2

  9
$UCSORTHOVIEW
 70
     0
  9
$UCSORGTOP
 10
0.0
 20
0.0
 30
0.0
  9
$UCSORGBOTTOM
 10
0.0
 20
0.0
 30
0.0
  9
$UCSORGLEFT
 10
0.0
 20
0.0
 30
0.0
  9
$UCSORGRIGHT
 10
0.0
 20
0.0
 30
0.0
  9
$UCSORGFRONT
 10
0.0
 20
0.0
 30
0.0
  9
$UCSORGBACK
 10
0.0
 20
0.0
 30
0.0
  9
$PUCSBASE
  2

  9
$PUCSNAME
  2

  9
$PUCSORG
 10
0.0
 20
0.0
 30
0.0
  9
$PUCSXDIR
 10
1.0
 20
0.0
 30
0.0
  9
$PUCSYDIR
 10
0.0
 20
1.0
 30
0.0
  9
$PUCSORTHOREF
  2

  9
$PUCSORTHOVIEW
 70
     0
  9
$PUCSORGTOP
 10
0.0
 20
0.0
 30
0.0
  9
$PUCSORGBOTTOM
 10
0.0
 20
0.0
 30
0.0
  9
$PUCSORGLEFT
 10
0.0
 20
0.0
 30
0.0
  9
$PUCSORGRIGHT
 10
0.0
 20
0.0
 30
0.0
  9
$PUCSORGFRONT
 10
0.0
 20
0.0
 30
0.0
  9
$PUCSORGBACK
 10
0.0
 20
0.0
 30
0.0
  9
$USERI1
 70
     0
  9
$USERI2
 70
     0
  9
$USERI3
 70
     0
  9
$USERI4
 70
     0
  9
$USERI5
 70
     0
  9
$USERR1
 40
0.0
  9
$USERR2
 40
0.0
  9
$USERR3
 40
0.0
  9
$USERR4
 40
0.0
  9
$USERR5
 40
0.0
  9
$WORLDVIEW
 70
     1
  9
$SHADEDGE
 70
     3
  9
$SHADEDIF
 70
    70
  9
$TILEMODE
 70
     1
  9
$MAXACTVP
 70
    64
  9
$PINSBASE
 10
0.0
 20
0.0
 30
0.0
  9
$PLIMCHECK
 70
     0
  9
$PEXTMIN
 10
1.000000000000000E+20
 20
1.000000000000000E+20
 30
1.000000000000000E+20
  9
$PEXTMAX
 10
-1.000000000000000E+20
 20
-1.000000000000000E+20
 30
-1.000000000000000E+20
  9
$PLIMMIN
 10
0.0
 20
0.0
  9
$PLIMMAX
 10
12.0
 20
9.0
  9
$UNITMODE
 70
     0
  9
$VISRETAIN
 70
     1
  9
$PLINEGEN
 70
     0
  9
$PSLTSCALE
 70
     1
  9
$TREEDEPTH
 70
  3020
  9
$CMLSTYLE
  2
Standard
  9
$CMLJUST
 70
     0
  9
$CMLSCALE
 40
1.0
  9
$PROXYGRAPHICS
 70
     1
  9
$MEASUREMENT
 70
     0
  9
$CELWEIGHT
370
    -1
  9
$ENDCAPS
280
     0
  9
$JOINSTYLE
280
     0
  9
$LWDISPLAY
290
     1
  9
$INSUNITS
 70
     1
  9
$HYPERLINKBASE
  1

  9
$STYLESHEET
  1

  9
$XEDIT
290
     1
  9
$CEPSNTYPE
380
     0
  9
$PSTYLEMODE
290
     1
  9
$FINGERPRINTGUID
  2
{5BF222C3-CD90-485D-8100-285FF7F5F39B}
  9
$VERSIONGUID
  2
{FAEB1C32-E019-11D5-929B-00C0DF256EC4}
  9
$EXTNAMES
290
     1
  9
$PSVPSCALE
 40
0.0
  9
$OLESTARTUP
290
     0
  9
$SORTENTS
280
   127
  9
$INDEXCTL
280
     0
  9
$HIDETEXT
280
     1
  9
$XCLIPFRAME
280
     2
  9
$HALOGAP
280
     0
  9
$OBSCOLOR
 70
   257
  9
$OBSLTYPE
280
     0
  9
$INTERSECTIONDISPLAY
280
     0
  9
$INTERSECTIONCOLOR
 70
   257
  9
$DIMASSOC
280
     2
  9
$PROJECTNAME
  1

  9
$CAMERADISPLAY
290
     0
  9
$LENSLENGTH
 40
50.0
  9
$CAMERAHEIGHT
 40
0.0
  9
$STEPSPERSEC
 40
2.0
  9
$STEPSIZE
 40
6.0
  9
$3DDWFPREC
 40
2.0
  9
$PSOLWIDTH
 40
0.25
  9
$PSOLHEIGHT
 40
4.0
  9
$LOFTANG1
 40
1.570796326794897
  9
$LOFTANG2
 40
1.570796326794897
  9
$LOFTMAG1
 40
0.0
  9
$LOFTMAG2
 40
0.0
  9
$LOFTPARAM
 70
     7
  9
$LOFTNORMALS
280
     1
  9
$LATITUDE
 40
37.795
  9
$LONGITUDE
 40
-122.394
  9
$NORTHDIRECTION
 40
0.0
  9
$TIMEZONE
 70
 -8000
  9
$LIGHTGLYPHDISPLAY
280
     1
  9
$TILEMODELIGHTSYNCH
280
     1
  9
$CMATERIAL
347
3C
  9
$SOLIDHIST
280
     1
  9
$SHOWHIST
280
     1
  9
$DWFFRAME
280
     2
  9
$DGNFRAME
280
     2
  9
$REALWORLDSCALE
290
     1
  9
$INTERFERECOLOR
 62
   256
  9
$CSHADOW
280
     0
  9
$SHADOWPLANELOCATION
 40
0.0
  0
ENDSEC
  0
SECTION
  2
CLASSES
  0
CLASS
  1
ACDBDICTIONARYWDFLT
  2
AcDbDictionaryWithDefault
  3
ObjectDBX Classes
 90
        0
 91
        4
280
     0
281
     0
  0
CLASS
  1
VISUALSTYLE
  2
AcDbVisualStyle
  3
ObjectDBX Classes
 90
     4095
 91
        4
280
     0
281
     0
  0
CLASS
  1
MATERIAL
  2
AcDbMaterial
  3
ObjectDBX Classes
 90
     1153
 91
        4
280
     0
281
     0
  0
CLASS
  1
SUN
  2
AcDbSun
  3
SCENEOE
 90
     1024
 91
        4
280
     0
281
     0
  0
ENDSEC
  0
SECTION
  2
TABLES
  0
TABLE
  2
VPORT
  5
8
330
0
100
AcDbSymbolTable
 70
     1
  0
VPORT
  5
29
330
8
100
AcDbSymbolTableRecord
100
AcDbViewportTableRecord
  2
*Active
 70
     0
 10
0.0
 20
0.0
 11
1.0
 21
1.0
 12
0.0
 22
0.0
 13
0.0
 23
0.0
 14
0.5
 24
0.5
 15
0.5
 25
0.5
 16
0.0
 26
0.0
 36
1.0
 17
2.5
 27
-2.5
 37
0.0
 40
5.0
 41
1.0
 42
50.0
 43
0.0
 44
0.0
 50
0.0
 51
0.0
 71
     0
 72
   100
 73
     1
 74
     3
 75
     0
 76
     0
 77
     0
 78
     0
281
     0
 65
     1
110
0.0
120
0.0
130
0.0
111
1.0
121
0.0
131
0.0
112
0.0
122
1.0
132
0.0
 79
     0
146
0.0
 60
     3
 61
     5
292
     1
282
     1
141
0.0
142
0.0
 63
   250
361
3F
  0
ENDTAB
  0
TABLE
  2
LTYPE
  5
5
330
0
100
AcDbSymbolTable
 70
     1
  0
LTYPE
  5
14
330
5
100
AcDbSymbolTableRecord
100
AcDbLinetypeTableRecord
  2
ByBlock
 70
     0
  3

 72
    65
 73
     0
 40
0.0
  0
LTYPE
  5
15
330
5
100
AcDbSymbolTableRecord
100
AcDbLinetypeTableRecord
  2
ByLayer
 70
     0
  3

 72
    65
 73
     0
 40
0.0
  0
LTYPE
  5
16
330
5
100
AcDbSymbolTableRecord
100
AcDbLinetypeTableRecord
  2
Continuous
 70
     0
  3
Solid line
 72
    65
 73
     0
 40
0.0
  0
ENDTAB
  0
TABLE
  2
LAYER
  5
2
330
0
100
AcDbSymbolTable
 70
     3
  0
LAYER
  5
10
330
2
100
AcDbSymbolTableRecord
100
AcDbLayerTableRecord
  2
0
 70
     0
 62
     7
  6
Continuous
370
    -3
390
F
347
3E
  0
LAYER
  5
40
330
2
100
AcDbSymbolTableRecord
100
AcDbLayerTableRecord
  2
Layer 1
 70
     0
 62
     7
  6
Continuous
370
    -3
390
F
347
3E
  0
LAYER
  5
80
330
2
100
AcDbSymbolTableRecord
100
AcDbLayerTableRecord
  2
Layer 2
 70
     0
 62
     7
  6
Continuous
370
    -3
390
F
347
3E
  0
ENDTAB
  0
TABLE
  2
STYLE
  5
3
330
0
100
AcDbSymbolTable
 70
     1
  0
STYLE
  5
11
330
3
100
AcDbSymbolTableRecord
100
AcDbTextStyleTableRecord
  2
Standard
 70
     0
 40
0.0
 41
1.0
 50
0.0
 71
     0
 42
0.2
  3
txt
  4

  0
ENDTAB
  0
TABLE
  2
VIEW
  5
6
330
0
100
AcDbSymbolTable
 70
     0
  0
ENDTAB
  0
TABLE
  2
UCS
  5
7
330
0
100
AcDbSymbolTable
 70
     0
  0
ENDTAB
  0
TABLE
  2
APPID
  5
9
330
0
100
AcDbSymbolTable
 70
     1
  0
APPID
  5
12
330
9
100
AcDbSymbolTableRecord
100
AcDbRegAppTableRecord
  2
ACAD
 70
     0
  0
ENDTAB
  0
TABLE
  2
DIMSTYLE
  5
A
330
0
100
AcDbSymbolTable
 70
     1
100
AcDbDimStyleTable
  0
DIMSTYLE
105
27
330
A
100
AcDbSymbolTableRecord
100
AcDbDimStyleTableRecord
  2
Standard
 70
     0
178
     0
340
11
  0
ENDTAB
  0
TABLE
  2
BLOCK_RECORD
  5
1
330
0
100
AcDbSymbolTable
 70
     5
  0
BLOCK_RECORD
  5
1F
330
1
100
AcDbSymbolTableRecord
100
AcDbBlockTableRecord
  2
*Model_Space
340
22
 70
     0
280
     1
281
     0
  0
BLOCK_RECORD
  5
1B
330
1
100
AcDbSymbolTableRecord
100
AcDbBlockTableRecord
  2
*Paper_Space
340
1E
 70
     0
280
     1
281
     0
  0
BLOCK_RECORD
  5
23
330
1
100
AcDbSymbolTableRecord
100
AcDbBlockTableRecord
  2
*Paper_Space0
340
26
 70
     0
280
     1
281
     0
  0
BLOCK_RECORD
  5
41
330
1
100
AcDbSymbolTableRecord
100
AcDbBlockTableRecord
  2
block 2
340
0
102
{BLKREFS
331
42
102
}
 70
     0
280
     1
281
     0
  0
BLOCK_RECORD
  5
49
330
1
100
AcDbSymbolTableRecord
100
AcDbBlockTableRecord
  2
block 3
340
0
102
{BLKREFS
331
4A
102
}
 70
     0
280
     1
281
     0
  0
BLOCK_RECORD
  5
4D
330
1
100
AcDbSymbolTableRecord
100
AcDbBlockTableRecord
  2
block 4
340
0
102
{BLKREFS
331
4E
102
}
 70
     0
280
     1
281
     0
  0
BLOCK_RECORD
  5
51
330
1
100
AcDbSymbolTableRecord
100
AcDbBlockTableRecord
  2
block 5
340
0
102
{BLKREFS
331
52
102
}
 70
     0
280
     1
281
     0
  0
ENDTAB
  0
ENDSEC
  0
SECTION
  2
BLOCKS
  0
BLOCK
  5
20
330
1F
100
AcDbEntity
  8
0
100
AcDbBlockBegin
  2
*Model_Space
 70
     0
 10
0.0
 20
0.0
 30
0.0
  3
*Model_Space
  1

  0
ENDBLK
  5
21
330
1F
100
AcDbEntity
  8
0
100
AcDbBlockEnd
  0
BLOCK
  5
1C
330
1B
100
AcDbEntity
 67
     1
  8
0
100
AcDbBlockBegin
  2
*Paper_Space
 70
     0
 10
0.0
 20
0.0
 30
0.0
  3
*Paper_Space
  1

  0
ENDBLK
  5
1D
330
1B
100
AcDbEntity
 67
     1
  8
0
100
AcDbBlockEnd
  0
BLOCK
  5
24
330
23
100
AcDbEntity
  8
0
100
AcDbBlockBegin
  2
*Paper_Space0
 70
     0
 10
0.0
 20
0.0
 30
0.0
  3
*Paper_Space0
  1

  0
ENDBLK
  5
25
330
23
100
AcDbEntity
  8
0
100
AcDbBlockEnd
  0
BLOCK
  5
43
330
41
100
AcDbEntity
  8
0
100
AcDbBlockBegin
  2
block 2
 70
     0
 10
0.0
 20
0.0
 30
0.0
  3
block 2
  1

  0
SPLINE
  5
45
330
41
100
AcDbEntity
  8
Layer 1
370
     0
100
AcDbSpline
210
0.0
220
0.0
230
1.0
 70
    11
 71
     3
 72
    29
 73
    25
 74
     0
 42
0.0000000001
 43
0.0000000001
 12
1.0
 22
0.0
 32
0.0
 13
1.0
 23
0.0
 33
0.0
 40
0.0
 40
0.0
 40
0.0
 40
0.0
 40
1.0
 40
1.0
 40
1.0
 40
2.0
 40
2.0
 40
2.0
 40
3.0
 40
3.0
 40
3.0
 40
4.0
 40
4.0
 40
4.0
 40
5.0
 40
5.0
 40
5.0
 40
6.0
 40
6.0
 40
6.0
 40
7.0
 40
7.0
 40
7.0
 40
8.0
 40
8.0
 40
8.0
 40
8.0
 10
2.475818151559956
 20
-3.192622316708492
 30
0.0
 10
2.475818151559956
 20
-3.192622316708492
 30
0.0
 10
2.383010753004581
 20
-3.19262231670488
 30
0.0
 10
2.383010753004581
 20
-3.19262231670488
 30
0.0
 10
2.361981481632382
 20
-3.192622316704046
 30
0.0
 10
2.344933888893971
 20
-3.175574723952953
 30
0.0
 10
2.344933888908801
 20
-3.154545452580755
 30
0.0
 10
2.344933888908801
 20
-3.154545452580755
 30
0.0
 10
2.344933889119678
 20
-2.855583330904589
 30
0.0
 10
2.344933889119678
 20
-2.855583330904589
 30
0.0
 10
2.344933889134508
 20
-2.834554059557755
 30
0.0
 10
2.361981481856269
 20
-2.817506466840642
 30
0.0
 10
2.383010753203103
 20
-2.817506466831522
 30
0.0
 10
2.383010753203103
 20
-2.817506466831522
 30
0.0
 10
2.475818151376896
 20
-2.817506466791327
 30
0.0
 10
2.475818151376896
 20
-2.817506466791327
 30
0.0
 10
2.49684742270329
 20
-2.817506466782207
 30
0.0
 10
2.513895015418838
 20
-2.834554059476381
 30
0.0
 10
2.513895015436093
 20
-2.855583330802776
 30
0.0
 10
2.513895015436093
 20
-2.855583330802776
 30
0.0
 10
2.513895015681454
 20
-3.154545452557234
 30
0.0
 10
2.513895015681454
 20
-3.154545452557234
 30
0.0
 10
2.513895015698709
 20
-3.175574723944894
 30
0.0
 10
2.496847422947616
 20
-3.192622316709326
 30
0.0
 10
2.475818151559956
 20
-3.192622316708492
 30
0.0
  0
HATCH
  5
46
330
41
100
AcDbEntity
  8
Layer 1
 62
     7
100
AcDbHatch
 10
0.0
 20
0.0
 30
0.0
210
0.0
220
0.0
230
1.0
  2
SOLID
 70
     1
 71
     0
 91
        1
 92
        1
 93
        1
 72
     4
 94
        3
 73
     0
 74
     1
 95
       29
 96
       25
 40
0.0
 40
0.0
 40
0.0
 40
0.0
 40
1.0
 40
1.0
 40
1.0
 40
2.0
 40
2.0
 40
2.0
 40
3.0
 40
3.0
 40
3.0
 40
4.0
 40
4.0
 40
4.0
 40
5.0
 40
5.0
 40
5.0
 40
6.0
 40
6.0
 40
6.0
 40
7.0
 40
7.0
 40
7.0
 40
8.0
 40
8.0
 40
8.0
 40
8.0
 10
2.475818151559956
 20
-3.192622316708492
 10
2.475818151559956
 20
-3.192622316708492
 10
2.383010753004581
 20
-3.19262231670488
 10
2.383010753004581
 20
-3.19262231670488
 10
2.361981481632382
 20
-3.192622316704046
 10
2.344933888893971
 20
-3.175574723952953
 10
2.344933888908801
 20
-3.154545452580755
 10
2.344933888908801
 20
-3.154545452580755
 10
2.344933889119678
 20
-2.855583330904589
 10
2.344933889119678
 20
-2.855583330904589
 10
2.344933889134508
 20
-2.834554059557755
 10
2.361981481856269
 20
-2.817506466840642
 10
2.383010753203103
 20
-2.817506466831522
 10
2.383010753203103
 20
-2.817506466831522
 10
2.475818151376896
 20
-2.817506466791327
 10
2.475818151376896
 20
-2.817506466791327
 10
2.49684742270329
 20
-2.817506466782207
 10
2.513895015418838
 20
-2.834554059476381
 10
2.513895015436093
 20
-2.855583330802776
 10
2.513895015436093
 20
-2.855583330802776
 10
2.513895015681454
 20
-3.154545452557234
 10
2.513895015681454
 20
-3.154545452557234
 10
2.513895015698709
 20
-3.175574723944894
 10
2.496847422947616
 20
-3.192622316709326
 10
2.475818151559956
 20
-3.192622316708492
 97
        0
 97
        0
 75
     2
 76
     1
 98
        0
  0
SPLINE
  5
47
330
41
100
AcDbEntity
  8
Layer 1
370
     0
100
AcDbSpline
210
0.0
220
0.0
230
1.0
 70
    11
 71
     3
 72
    23
 73
    19
 74
     0
 42
0.0000000001
 43
0.0000000001
 12
1.0
 22
0.0
 32
0.0
 13
1.0
 23
0.0
 33
0.0
 40
0.0
 40
0.0
 40
0.0
 40
0.0
 40
1.0
 40
1.0
 40
1.0
 40
2.0
 40
2.0
 40
2.0
 40
3.0
 40
3.0
 40
3.0
 40
4.0
 40
4.0
 40
4.0
 40
5.0
 40
5.0
 40
5.0
 40
6.0
 40
6.0
 40
6.0
 40
6.0
 10
2.433958304863709
 20
-2.817735905589542
 30
0.0
 10
2.432444295266476
 20
-2.817655528632056
 30
0.0
 10
2.430948553159598
 20
-2.817506465911164
 30
0.0
 10
2.429414449323051
 20
-2.817506465911164
 30
0.0
 10
2.382757086962581
 20
-2.817506465911164
 30
0.0
 10
2.34493388291796
 20
-2.855329669955785
 30
0.0
 10
2.34493388291796
 20
-2.901987032316179
 30
0.0
 10
2.34493388291796
 20
-2.901987032316179
 30
0.0
 10
2.34493388291796
 20
-3.108142236804724
 30
0.0
 10
2.34493388291796
 20
-3.108142236804724
 30
0.0
 10
2.34493388291796
 20
-3.154798868465529
 30
0.0
 10
2.382757086962581
 20
-3.19262207251015
 30
0.0
 10
2.429414449323051
 20
-3.19262207251015
 30
0.0
 10
2.430948553159598
 20
-3.19262207251015
 30
0.0
 10
2.432444295266476
 20
-3.192473740488847
 30
0.0
 10
2.433958304863709
 20
-3.192392632831822
 30
0.0
 10
2.433958304863709
 20
-3.192392632831822
 30
0.0
 10
2.433958304863709
 20
-2.817735905589542
 30
0.0
 10
2.433958304863709
 20
-2.817735905589542
 30
0.0
  0
HATCH
  5
48
330
41
100
AcDbEntity
  8
Layer 1
 62
     7
100
AcDbHatch
 10
0.0
 20
0.0
 30
0.0
210
0.0
220
0.0
230
1.0
  2
SOLID
 70
     1
 71
     0
 91
        1
 92
        1
 93
        1
 72
     4
 94
        3
 73
     0
 74
     1
 95
       23
 96
       19
 40
0.0
 40
0.0
 40
0.0
 40
0.0
 40
1.0
 40
1.0
 40
1.0
 40
2.0
 40
2.0
 40
2.0
 40
3.0
 40
3.0
 40
3.0
 40
4.0
 40
4.0
 40
4.0
 40
5.0
 40
5.0
 40
5.0
 40
6.0
 40
6.0
 40
6.0
 40
6.0
 10
2.433958304863709
 20
-2.817735905589542
 10
2.432444295266476
 20
-2.817655528632056
 10
2.430948553159598
 20
-2.817506465911164
 10
2.429414449323051
 20
-2.817506465911164
 10
2.382757086962581
 20
-2.817506465911164
 10
2.34493388291796
 20
-2.855329669955785
 10
2.34493388291796
 20
-2.901987032316179
 10
2.34493388291796
 20
-2.901987032316179
 10
2.34493388291796
 20
-3.108142236804724
 10
2.34493388291796
 20
-3.108142236804724
 10
2.34493388291796
 20
-3.154798868465529
 10
2.382757086962581
 20
-3.19262207251015
 10
2.429414449323051
 20
-3.19262207251015
 10
2.430948553159598
 20
-3.19262207251015
 10
2.432444295266476
 20
-3.192473740488847
 10
2.433958304863709
 20
-3.192392632831822
 10
2.433958304863709
 20
-3.192392632831822
 10
2.433958304863709
 20
-2.817735905589542
 10
2.433958304863709
 20
-2.817735905589542
 97
        0
 97
        0
 75
     2
 76
     1
 98
        0
  0
ENDBLK
  5
44
330
41
100
AcDbEntity
  8
0
100
AcDbBlockEnd
  0
BLOCK
  5
4B
330
49
100
AcDbEntity
  8
0
100
AcDbBlockBegin
  2
block 3
 70
     0
 10
0.0
 20
0.0
 30
0.0
  3
block 3
  1

  0
INSERT
  5
4E
330
49
100
AcDbEntity
  8
Layer 1
100
AcDbBlockReference
  2
block 4
 10
0.0
 20
0.0
 30
0.0
  0
POLYLINE
  5
6E
330
49
100
AcDbEntity
  8
Layer 1
370
     0
100
AcDb2dPolyline
 66
     1
 10
0.0
 20
0.0
 30
0.0
  0
VERTEX
  5
6F
330
6E
100
AcDbEntity
  8
Layer 1
370
     0
100
AcDbVertex
100
AcDb2dVertex
 10
2.167711459701309
 20
-2.613427560272283
 30
0.0
  0
VERTEX
  5
70
330
6E
100
AcDbEntity
  8
Layer 1
370
     0
100
AcDbVertex
100
AcDb2dVertex
 10
2.057159941118685
 20
-2.692793887083629
 30
0.0
  0
VERTEX
  5
71
330
6E
100
AcDbEntity
  8
Layer 1
370
     0
100
AcDbVertex
100
AcDb2dVertex
 10
2.126230521209032
 20
-2.701703333066689
 30
0.0
  0
VERTEX
  5
72
330
6E
100
AcDbEntity
  8
Layer 1
370
     0
100
AcDbVertex
100
AcDb2dVertex
 10
2.016687151248814
 20
-2.78621540240796
 30
0.0
  0
VERTEX
  5
73
330
6E
100
AcDbEntity
  8
Layer 1
370
     0
100
AcDbVertex
100
AcDb2dVertex
 10
2.195941751959519
 20
-2.809337536030524
 30
0.0
  0
VERTEX
  5
74
330
6E
100
AcDbEntity
  8
Layer 1
370
     0
100
AcDbVertex
100
AcDb2dVertex
 10
2.167711459701309
 20
-2.613427560272283
 30
0.0
  0
SEQEND
  5
76
330
6E
100
AcDbEntity
  8
Layer 1
370
     0
  0
HATCH
  5
75
330
49
100
AcDbEntity
  8
Layer 1
 62
     7
100
AcDbHatch
 10
0.0
 20
0.0
 30
0.0
210
0.0
220
0.0
230
1.0
  2
SOLID
 70
     1
 71
     0
 91
        1
 92
        1
 93
        5
 72
     1
 10
2.167711459701309
 20
-2.613427560272283
 11
2.057159941118685
 21
-2.692793887083629
 72
     1
 10
2.057159941118685
 20
-2.692793887083629
 11
2.126230521209032
 21
-2.701703333066689
 72
     1
 10
2.126230521209032
 20
-2.701703333066689
 11
2.016687151248814
 21
-2.78621540240796
 72
     1
 10
2.016687151248814
 20
-2.78621540240796
 11
2.195941751959519
 21
-2.809337536030524
 72
     1
 10
2.195941751959519
 20
-2.809337536030524
 11
2.167711459701309
 21
-2.613427560272283
 97
        0
 75
     2
 76
     1
 98
        0
  0
POLYLINE
  5
77
330
49
100
AcDbEntity
  8
Layer 1
370
     0
100
AcDb2dPolyline
 66
     1
 10
0.0
 20
0.0
 30
0.0
  0
VERTEX
  5
78
330
77
100
AcDbEntity
  8
Layer 1
370
     0
100
AcDbVertex
100
AcDb2dVertex
 10
2.67258450941386
 20
-2.67855136781375
 30
0.0
  0
VERTEX
  5
79
330
77
100
AcDbEntity
  8
Layer 1
370
     0
100
AcDbVertex
100
AcDb2dVertex
 10
2.759377505370341
 20
-2.783373254580586
 30
0.0
  0
VERTEX
  5
7A
330
77
100
AcDbEntity
  8
Layer 1
370
     0
100
AcDbVertex
100
AcDb2dVertex
 10
2.690306925280411
 20
-2.774463808594419
 30
0.0
  0
VERTEX
  5
7B
330
77
100
AcDbEntity
  8
Layer 1
370
     0
100
AcDbVertex
100
AcDb2dVertex
 10
2.774818994616731
 20
-2.884007178558452
 30
0.0
  0
VERTEX
  5
7C
330
77
100
AcDbEntity
  8
Layer 1
370
     0
100
AcDbVertex
100
AcDb2dVertex
 10
2.595564393907125
 20
-2.860885044927777
 30
0.0
  0
VERTEX
  5
7D
330
77
100
AcDbEntity
  8
Layer 1
370
     0
100
AcDbVertex
100
AcDb2dVertex
 10
2.67258450941386
 20
-2.67855136781375
 30
0.0
  0
SEQEND
  5
7F
330
77
100
AcDbEntity
  8
Layer 1
370
     0
  0
HATCH
  5
7E
330
49
100
AcDbEntity
  8
Layer 1
 62
     7
100
AcDbHatch
 10
0.0
 20
0.0
 30
0.0
210
0.0
220
0.0
230
1.0
  2
SOLID
 70
     1
 71
     0
 91
        1
 92
        1
 93
        5
 72
     1
 10
2.67258450941386
 20
-2.67855136781375
 11
2.759377505370341
 21
-2.783373254580586
 72
     1
 10
2.759377505370341
 20
-2.783373254580586
 11
2.690306925280411
 21
-2.774463808594419
 72
     1
 10
2.690306925280411
 20
-2.774463808594419
 11
2.774818994616731
 21
-2.884007178558452
 72
     1
 10
2.774818994616731
 20
-2.884007178558452
 11
2.595564393907125
 21
-2.860885044927777
 72
     1
 10
2.595564393907125
 20
-2.860885044927777
 11
2.67258450941386
 21
-2.67855136781375
 97
        0
 75
     2
 76
     1
 98
        0
  0
ENDBLK
  5
4C
330
49
100
AcDbEntity
  8
0
100
AcDbBlockEnd
  0
BLOCK
  5
4F
330
4D
100
AcDbEntity
  8
0
100
AcDbBlockBegin
  2
block 4
 70
     0
 10
0.0
 20
0.0
 30
0.0
  3
block 4
  1

  0
INSERT
  5
52
330
4D
100
AcDbEntity
  8
Layer 1
100
AcDbBlockReference
  2
block 5
 10
0.0
 20
0.0
 30
0.0
  0
SPLINE
  5
5D
330
4D
100
AcDbEntity
  8
Layer 1
 62
     7
370
     5
100
AcDbSpline
210
0.0
220
0.0
230
1.0
 70
    11
 71
     3
 72
    17
 73
    13
 74
     0
 42
0.0000000001
 43
0.0000000001
 12
1.0
 22
0.0
 32
0.0
 13
1.0
 23
0.0
 33
0.0
 40
0.0
 40
0.0
 40
0.0
 40
0.0
 40
1.0
 40
1.0
 40
1.0
 40
2.0
 40
2.0
 40
2.0
 40
3.0
 40
3.0
 40
3.0
 40
4.0
 40
4.0
 40
4.0
 40
4.0
 10
2.305810592614534
 20
-2.400085483081511
 30
0.0
 10
2.302482952914437
 20
-2.425883047246038
 30
0.0
 10
2.278872310143545
 20
-2.44409852007435
 30
0.0
 10
2.253074745979069
 20
-2.440770880374329
 30
0.0
 10
2.227277181814618
 20
-2.437443240674156
 30
0.0
 10
2.209061708986206
 20
-2.41383259790334
 30
0.0
 10
2.212389348686302
 20
-2.388035033738864
 30
0.0
 10
2.215716988386399
 20
-2.362237469574388
 30
0.0
 10
2.239327631157266
 20
-2.344021996746
 30
0.0
 10
2.265125195321742
 20
-2.347349636446072
 30
0.0
 10
2.290922759486218
 20
-2.350677276146143
 30
0.0
 10
2.309138232314631
 20
-2.37428791891706
 30
0.0
 10
2.305810592614534
 20
-2.400085483081511
 30
0.0
  0
HATCH
  5
5E
330
4D
100
AcDbEntity
  8
Layer 1
 62
     7
100
AcDbHatch
 10
0.0
 20
0.0
 30
0.0
210
0.0
220
0.0
230
1.0
  2
SOLID
 70
     1
 71
     0
 91
        1
 92
        1
 93
        1
 72
     4
 94
        3
 73
     0
 74
     1
 95
       17
 96
       13
 40
0.0
 40
0.0
 40
0.0
 40
0.0
 40
1.0
 40
1.0
 40
1.0
 40
2.0
 40
2.0
 40
2.0
 40
3.0
 40
3.0
 40
3.0
 40
4.0
 40
4.0
 40
4.0
 40
4.0
 10
2.305810592614534
 20
-2.400085483081511
 10
2.302482952914437
 20
-2.425883047246038
 10
2.278872310143545
 20
-2.44409852007435
 10
2.253074745979069
 20
-2.440770880374329
 10
2.227277181814618
 20
-2.437443240674156
 10
2.209061708986206
 20
-2.41383259790334
 10
2.212389348686302
 20
-2.388035033738864
 10
2.215716988386399
 20
-2.362237469574388
 10
2.239327631157266
 20
-2.344021996746
 10
2.265125195321742
 20
-2.347349636446072
 10
2.290922759486218
 20
-2.350677276146143
 10
2.309138232314631
 20
-2.37428791891706
 10
2.305810592614534
 20
-2.400085483081511
 97
        0
 97
        0
 75
     2
 76
     1
 98
        0
  0
SPLINE
  5
5F
330
4D
100
AcDbEntity
  8
Layer 1
 62
     7
370
     5
100
AcDbSpline
210
0.0
220
0.0
230
1.0
 70
    11
 71
     3
 72
    17
 73
    13
 74
     0
 42
0.0000000001
 43
0.0000000001
 12
1.0
 22
0.0
 32
0.0
 13
1.0
 23
0.0
 33
0.0
 40
0.0
 40
0.0
 40
0.0
 40
0.0
 40
1.0
 40
1.0
 40
1.0
 40
2.0
 40
2.0
 40
2.0
 40
3.0
 40
3.0
 40
3.0
 40
4.0
 40
4.0
 40
4.0
 40
4.0
 10
2.693960282305296
 20
-2.450153090579584
 30
0.0
 10
2.690632642605225
 20
-2.475950654744035
 30
0.0
 10
2.667021999834307
 20
-2.494166127572448
 30
0.0
 10
2.641224435669907
 20
-2.490838487872401
 30
0.0
 10
2.615426871505431
 20
-2.487510848172304
 30
0.0
 10
2.597211398676968
 20
-2.463900205401337
 30
0.0
 10
2.60053903837709
 20
-2.438102641236962
 30
0.0
 10
2.603866678077186
 20
-2.412305077072536
 30
0.0
 10
2.627477320848053
 20
-2.394089604244022
 30
0.0
 10
2.653274885012504
 20
-2.397417243944068
 30
0.0
 10
2.679072449177005
 20
-2.400744883644241
 30
0.0
 10
2.697287922005469
 20
-2.424355526415108
 30
0.0
 10
2.693960282305296
 20
-2.450153090579584
 30
0.0
  0
HATCH
  5
60
330
4D
100
AcDbEntity
  8
Layer 1
 62
     7
100
AcDbHatch
 10
0.0
 20
0.0
 30
0.0
210
0.0
220
0.0
230
1.0
  2
SOLID
 70
     1
 71
     0
 91
        1
 92
        1
 93
        1
 72
     4
 94
        3
 73
     0
 74
     1
 95
       17
 96
       13
 40
0.0
 40
0.0
 40
0.0
 40
0.0
 40
1.0
 40
1.0
 40
1.0
 40
2.0
 40
2.0
 40
2.0
 40
3.0
 40
3.0
 40
3.0
 40
4.0
 40
4.0
 40
4.0
 40
4.0
 10
2.693960282305296
 20
-2.450153090579584
 10
2.690632642605225
 20
-2.475950654744035
 10
2.667021999834307
 20
-2.494166127572448
 10
2.641224435669907
 20
-2.490838487872401
 10
2.615426871505431
 20
-2.487510848172304
 10
2.597211398676968
 20
-2.463900205401337
 10
2.60053903837709
 20
-2.438102641236962
 10
2.603866678077186
 20
-2.412305077072536
 10
2.627477320848053
 20
-2.394089604244022
 10
2.653274885012504
 20
-2.397417243944068
 10
2.679072449177005
 20
-2.400744883644241
 10
2.697287922005469
 20
-2.424355526415108
 10
2.693960282305296
 20
-2.450153090579584
 97
        0
 97
        0
 75
     2
 76
     1
 98
        0
  0
SPLINE
  5
61
330
4D
100
AcDbEntity
  8
Layer 1
 62
     7
370
     5
100
AcDbSpline
210
0.0
220
0.0
230
1.0
 70
    11
 71
     3
 72
    29
 73
    25
 74
     0
 42
0.0000000001
 43
0.0000000001
 12
1.0
 22
0.0
 32
0.0
 13
1.0
 23
0.0
 33
0.0
 40
0.0
 40
0.0
 40
0.0
 40
0.0
 40
1.0
 40
1.0
 40
1.0
 40
2.0
 40
2.0
 40
2.0
 40
3.0
 40
3.0
 40
3.0
 40
4.0
 40
4.0
 40
4.0
 40
5.0
 40
5.0
 40
5.0
 40
6.0
 40
6.0
 40
6.0
 40
7.0
 40
7.0
 40
7.0
 40
8.0
 40
8.0
 40
8.0
 40
8.0
 10
2.402125848772357
 20
-2.89222071709302
 30
0.0
 10
2.402125848772357
 20
-2.89222071709302
 30
0.0
 10
2.402125752301875
 20
-2.892220704649314
 30
0.0
 10
2.402125752301875
 20
-2.892220704649314
 30
0.0
 10
2.373060116952451
 20
-2.888471515078411
 30
0.0
 10
2.349297509027186
 20
-2.867224091735882
 30
0.0
 10
2.342333366821979
 20
-2.838757123087134
 30
0.0
 10
2.342333366821979
 20
-2.838757123087134
 30
0.0
 10
2.332867336968219
 20
-2.800063315991136
 30
0.0
 10
2.332867336968219
 20
-2.800063315991136
 30
0.0
 10
2.328227387730749
 20
-2.781096832311682
 30
0.0
 10
2.344068513025099
 20
-2.763380498353349
 30
0.0
 10
2.36343386607536
 20
-2.765878444175087
 30
0.0
 10
2.36343386607536
 20
-2.765878444175087
 30
0.0
 10
2.471611708195698
 20
-2.779832353924651
 30
0.0
 10
2.471611708195698
 20
-2.779832353924651
 30
0.0
 10
2.490977061260891
 20
-2.78233029974836
 30
0.0
 10
2.50180399286824
 20
-2.803486558694557
 30
0.0
 10
2.492503009399722
 20
-2.820654795039521
 30
0.0
 10
2.492503009399722
 20
-2.820654795039521
 30
0.0
 10
2.473527934125336
 20
-2.855679970396042
 30
0.0
 10
2.473527934125336
 20
-2.855679970396042
 30
0.0
 10
2.459568003038309
 20
-2.881447933221984
 30
0.0
 10
2.431191484180191
 20
-2.895969906671502
 30
0.0
 10
2.402125848772357
 20
-2.89222071709302
 30
0.0
  0
HATCH
  5
62
330
4D
100
AcDbEntity
  8
Layer 1
 62
     7
100
AcDbHatch
 10
0.0
 20
0.0
 30
0.0
210
0.0
220
0.0
230
1.0
  2
SOLID
 70
     1
 71
     0
 91
        1
 92
        1
 93
        1
 72
     4
 94
        3
 73
     0
 74
     1
 95
       29
 96
       25
 40
0.0
 40
0.0
 40
0.0
 40
0.0
 40
1.0
 40
1.0
 40
1.0
 40
2.0
 40
2.0
 40
2.0
 40
3.0
 40
3.0
 40
3.0
 40
4.0
 40
4.0
 40
4.0
 40
5.0
 40
5.0
 40
5.0
 40
6.0
 40
6.0
 40
6.0
 40
7.0
 40
7.0
 40
7.0
 40
8.0
 40
8.0
 40
8.0
 40
8.0
 10
2.402125848772357
 20
-2.89222071709302
 10
2.402125848772357
 20
-2.89222071709302
 10
2.402125752301875
 20
-2.892220704649314
 10
2.402125752301875
 20
-2.892220704649314
 10
2.373060116952451
 20
-2.888471515078411
 10
2.349297509027186
 20
-2.867224091735882
 10
2.342333366821979
 20
-2.838757123087134
 10
2.342333366821979
 20
-2.838757123087134
 10
2.332867336968219
 20
-2.800063315991136
 10
2.332867336968219
 20
-2.800063315991136
 10
2.328227387730749
 20
-2.781096832311682
 10
2.344068513025099
 20
-2.763380498353349
 10
2.36343386607536
 20
-2.765878444175087
 10
2.36343386607536
 20
-2.765878444175087
 10
2.471611708195698
 20
-2.779832353924651
 10
2.471611708195698
 20
-2.779832353924651
 10
2.490977061260891
 20
-2.78233029974836
 10
2.50180399286824
 20
-2.803486558694557
 10
2.492503009399722
 20
-2.820654795039521
 10
2.492503009399722
 20
-2.820654795039521
 10
2.473527934125336
 20
-2.855679970396042
 10
2.473527934125336
 20
-2.855679970396042
 10
2.459568003038309
 20
-2.881447933221984
 10
2.431191484180191
 20
-2.895969906671502
 10
2.402125848772357
 20
-2.89222071709302
 97
        0
 97
        0
 75
     2
 76
     1
 98
        0
  0
POLYLINE
  5
63
330
4D
100
AcDbEntity
  8
Layer 1
370
     0
100
AcDb2dPolyline
 66
     1
 10
0.0
 20
0.0
 30
0.0
  0
VERTEX
  5
64
330
63
100
AcDbEntity
  8
Layer 1
370
     0
100
AcDbVertex
100
AcDb2dVertex
 10
2.44740371865027
 20
-1.897346119685317
 30
0.0
  0
VERTEX
  5
65
330
63
100
AcDbEntity
  8
Layer 1
370
     0
100
AcDbVertex
100
AcDb2dVertex
 10
2.581392327511619
 20
-1.80854627953747
 30
0.0
  0
VERTEX
  5
66
330
63
100
AcDbEntity
  8
Layer 1
370
     0
100
AcDbVertex
100
AcDb2dVertex
 10
2.571155924736129
 20
-1.887904107071285
 30
0.0
  0
VERTEX
  5
67
330
63
100
AcDbEntity
  8
Layer 1
370
     0
100
AcDbVertex
100
AcDb2dVertex
 10
2.674477793295055
 20
-1.847303821897362
 30
0.0
  0
VERTEX
  5
68
330
63
100
AcDbEntity
  8
Layer 1
370
     0
100
AcDbVertex
100
AcDb2dVertex
 10
2.622989629851847
 20
-1.969955965056455
 30
0.0
  0
VERTEX
  5
69
330
63
100
AcDbEntity
  8
Layer 1
370
     0
100
AcDbVertex
100
AcDb2dVertex
 10
2.44740371865027
 20
-1.897346119685317
 30
0.0
  0
SEQEND
  5
6B
330
63
100
AcDbEntity
  8
Layer 1
370
     0
  0
HATCH
  5
6A
330
4D
100
AcDbEntity
  8
Layer 1
 62
     7
100
AcDbHatch
 10
0.0
 20
0.0
 30
0.0
210
0.0
220
0.0
230
1.0
  2
SOLID
 70
     1
 71
     0
 91
        1
 92
        1
 93
        5
 72
     1
 10
2.44740371865027
 20
-1.897346119685317
 11
2.581392327511619
 21
-1.80854627953747
 72
     1
 10
2.581392327511619
 20
-1.80854627953747
 11
2.571155924736129
 21
-1.887904107071285
 72
     1
 10
2.571155924736129
 20
-1.887904107071285
 11
2.674477793295055
 21
-1.847303821897362
 72
     1
 10
2.674477793295055
 20
-1.847303821897362
 11
2.622989629851847
 21
-1.969955965056455
 72
     1
 10
2.622989629851847
 20
-1.969955965056455
 11
2.44740371865027
 21
-1.897346119685317
 97
        0
 75
     2
 76
     1
 98
        0
  0
SPLINE
  5
6C
330
4D
100
AcDbEntity
  8
Layer 1
370
     0
100
AcDbSpline
210
0.0
220
0.0
230
1.0
 70
    11
 71
     3
 72
    11
 73
     7
 74
     0
 42
0.0000000001
 43
0.0000000001
 12
1.0
 22
0.0
 32
0.0
 13
1.0
 23
0.0
 33
0.0
 40
0.0
 40
0.0
 40
0.0
 40
0.0
 40
1.0
 40
1.0
 40
1.0
 40
2.0
 40
2.0
 40
2.0
 40
2.0
 10
2.136217858407147
 20
-2.183587903427981
 30
0.0
 10
2.136217858407147
 20
-2.183587903427981
 30
0.0
 10
2.320802577377587
 20
-2.16543490731821
 30
0.0
 10
2.260681086444871
 20
-1.873260681235694
 30
0.0
 10
2.203265038483841
 20
-2.009441914610559
 30
0.0
 10
2.136217858407147
 20
-2.183587903427981
 30
0.0
 10
2.136217858407147
 20
-2.183587903427981
 30
0.0
  0
HATCH
  5
6D
330
4D
100
AcDbEntity
  8
Layer 1
 62
     7
100
AcDbHatch
 10
0.0
 20
0.0
 30
0.0
210
0.0
220
0.0
230
1.0
  2
SOLID
 70
     1
 71
     0
 91
        1
 92
        1
 93
        1
 72
     4
 94
        3
 73
     0
 74
     1
 95
       11
 96
        7
 40
0.0
 40
0.0
 40
0.0
 40
0.0
 40
1.0
 40
1.0
 40
1.0
 40
2.0
 40
2.0
 40
2.0
 40
2.0
 10
2.136217858407147
 20
-2.183587903427981
 10
2.136217858407147
 20
-2.183587903427981
 10
2.320802577377587
 20
-2.16543490731821
 10
2.260681086444871
 20
-1.873260681235694
 10
2.203265038483841
 20
-2.009441914610559
 10
2.136217858407147
 20
-2.183587903427981
 10
2.136217858407147
 20
-2.183587903427981
 97
        0
 97
        0
 75
     2
 76
     1
 98
        0
  0
ENDBLK
  5
50
330
4D
100
AcDbEntity
  8
0
100
AcDbBlockEnd
  0
BLOCK
  5
53
330
51
100
AcDbEntity
  8
0
100
AcDbBlockBegin
  2
block 5
 70
     0
 10
0.0
 20
0.0
 30
0.0
  3
block 5
  1

  0
SPLINE
  5
55
330
51
100
AcDbEntity
  8
Layer 1
370
     0
100
AcDbSpline
210
0.0
220
0.0
230
1.0
 70
    11
 71
     3
 72
    29
 73
    25
 74
     0
 42
0.0000000001
 43
0.0000000001
 12
1.0
 22
0.0
 32
0.0
 13
1.0
 23
0.0
 33
0.0
 40
0.0
 40
0.0
 40
0.0
 40
0.0
 40
1.0
 40
1.0
 40
1.0
 40
2.0
 40
2.0
 40
2.0
 40
3.0
 40
3.0
 40
3.0
 40
4.0
 40
4.0
 40
4.0
 40
5.0
 40
5.0
 40
5.0
 40
6.0
 40
6.0
 40
6.0
 40
7.0
 40
7.0
 40
7.0
 40
8.0
 40
8.0
 40
8.0
 40
8.0
 10
2.457435020561004
 20
-2.993818495257983
 30
0.0
 10
2.457435020561004
 20
-2.993818495257983
 30
0.0
 10
2.295513908372893
 20
-2.972932216314601
 30
0.0
 10
2.295513908372893
 20
-2.972932216314601
 30
0.0
 10
2.200250554473251
 20
-2.960644152357038
 30
0.0
 10
2.128994155571819
 20
-2.879423210783569
 30
0.0
 10
2.129208760214548
 20
-2.783370844561381
 30
0.0
 10
2.129208760214548
 20
-2.783370844561381
 30
0.0
 10
2.131191062678946
 20
-1.89613541555357
 30
0.0
 10
2.131191062678946
 20
-1.89613541555357
 30
0.0
 10
2.131191062678946
 20
-1.89613541555357
 30
0.0
 10
2.13119145886838
 20
-1.896135332892779
 30
0.0
 10
2.13119145886838
 20
-1.896135332892779
 30
0.0
 10
2.387813451128345
 20
-1.842593861772533
 30
0.0
 10
2.654989913846495
 20
-1.877057076927397
 30
0.0
 10
2.889625420975285
 20
-1.993966079474666
 30
0.0
 10
2.889625420975285
 20
-1.993966079474666
 30
0.0
 10
2.889625783220607
 20
-1.993966259966303
 30
0.0
 10
2.889625783220607
 20
-1.993966259966303
 30
0.0
 10
2.889625783220607
 20
-1.993966259966303
 30
0.0
 10
2.666399448751261
 20
-2.852663319242235
 30
0.0
 10
2.666399448751261
 20
-2.852663319242235
 30
0.0
 10
2.642232900698799
 20
-2.945626113236711
 30
0.0
 10
2.552698374460609
 20
-3.00610655921552
 30
0.0
 10
2.457435020561004
 20
-2.993818495257983
 30
0.0
  0
HATCH
  5
56
330
51
100
AcDbEntity
  8
Layer 1
 62
     1
100
AcDbHatch
 10
0.0
 20
0.0
 30
0.0
210
0.0
220
0.0
230
1.0
  2
SOLID
 70
     1
 71
     0
 91
        1
 92
        1
 93
        1
 72
     4
 94
        3
 73
     0
 74
     1
 95
       29
 96
       25
 40
0.0
 40
0.0
 40
0.0
 40
0.0
 40
1.0
 40
1.0
 40
1.0
 40
2.0
 40
2.0
 40
2.0
 40
3.0
 40
3.0
 40
3.0
 40
4.0
 40
4.0
 40
4.0
 40
5.0
 40
5.0
 40
5.0
 40
6.0
 40
6.0
 40
6.0
 40
7.0
 40
7.0
 40
7.0
 40
8.0
 40
8.0
 40
8.0
 40
8.0
 10
2.457435020561004
 20
-2.993818495257983
 10
2.457435020561004
 20
-2.993818495257983
 10
2.295513908372893
 20
-2.972932216314601
 10
2.295513908372893
 20
-2.972932216314601
 10
2.200250554473251
 20
-2.960644152357038
 10
2.128994155571819
 20
-2.879423210783569
 10
2.129208760214548
 20
-2.783370844561381
 10
2.129208760214548
 20
-2.783370844561381
 10
2.131191062678946
 20
-1.89613541555357
 10
2.131191062678946
 20
-1.89613541555357
 10
2.131191062678946
 20
-1.89613541555357
 10
2.13119145886838
 20
-1.896135332892779
 10
2.13119145886838
 20
-1.896135332892779
 10
2.387813451128345
 20
-1.842593861772533
 10
2.654989913846495
 20
-1.877057076927397
 10
2.889625420975285
 20
-1.993966079474666
 10
2.889625420975285
 20
-1.993966079474666
 10
2.889625783220607
 20
-1.993966259966303
 10
2.889625783220607
 20
-1.993966259966303
 10
2.889625783220607
 20
-1.993966259966303
 10
2.666399448751261
 20
-2.852663319242235
 10
2.666399448751261
 20
-2.852663319242235
 10
2.642232900698799
 20
-2.945626113236711
 10
2.552698374460609
 20
-3.00610655921552
 10
2.457435020561004
 20
-2.993818495257983
 97
        0
 97
        0
 75
     2
 76
     1
 98
        0
  0
SPLINE
  5
57
330
51
100
AcDbEntity
  8
Layer 1
370
     0
100
AcDbSpline
210
0.0
220
0.0
230
1.0
 70
    11
 71
     3
 72
    38
 73
    34
 74
     0
 42
0.0000000001
 43
0.0000000001
 12
1.0
 22
0.0
 32
0.0
 13
1.0
 23
0.0
 33
0.0
 40
0.0
 40
0.0
 40
0.0
 40
0.0
 40
1.0
 40
1.0
 40
1.0
 40
2.0
 40
2.0
 40
2.0
 40
3.0
 40
3.0
 40
3.0
 40
4.0
 40
4.0
 40
4.0
 40
5.0
 40
5.0
 40
5.0
 40
6.0
 40
6.0
 40
6.0
 40
7.0
 40
7.0
 40
7.0
 40
8.0
 40
8.0
 40
8.0
 40
9.0
 40
9.0
 40
9.0
 40
10.0
 40
10.0
 40
10.0
 40
11.0
 40
11.0
 40
11.0
 40
11.0
 10
2.864449418130031
 20
-1.981829948994068
 30
0.0
 10
2.861807469651997
 20
-1.98059116950291
 30
0.0
 10
2.859149786871209
 20
-1.979395260103716
 30
0.0
 10
2.856500223780459
 20
-1.978177540054819
 30
0.0
 10
2.856500223780459
 20
-1.978177540054819
 30
0.0
 10
2.770517197927322
 20
-2.245318356806984
 30
0.0
 10
2.770517197927322
 20
-2.245318356806984
 30
0.0
 10
2.756613265672184
 20
-2.28851679750192
 30
0.0
 10
2.719205501239104
 20
-2.319941094715003
 30
0.0
 10
2.67425586247724
 20
-2.326182661675148
 30
0.0
 10
2.627883626760624
 20
-2.332621149830351
 30
0.0
 10
2.58968174976629
 20
-2.365822269248029
 30
0.0
 10
2.576841792966964
 20
-2.410844547388883
 30
0.0
 10
2.576841792966964
 20
-2.410844547388883
 30
0.0
 10
2.471611853649064
 20
-2.779832378315531
 30
0.0
 10
2.471611853649064
 20
-2.779832378315531
 30
0.0
 10
2.471611853649064
 20
-2.779832378315531
 30
0.0
 10
2.404806755798821
 20
-2.831890935095847
 30
0.0
 10
2.404806755798821
 20
-2.831890935095847
 30
0.0
 10
2.404806755798821
 20
-2.831890935095847
 30
0.0
 10
2.385122821464241
 20
-2.98449085719426
 30
0.0
 10
2.385122821464241
 20
-2.98449085719426
 30
0.0
 10
2.385122821464241
 20
-2.98449085719426
 30
0.0
 10
2.457435099980785
 20
-2.993818451352404
 30
0.0
 10
2.457435099980785
 20
-2.993818451352404
 30
0.0
 10
2.552698233975914
 20
-3.006106486944317
 30
0.0
 10
2.64223296112876
 20
-2.945625934302825
 30
0.0
 10
2.666399372698126
 20
-2.852663598165564
 30
0.0
 10
2.666399372698126
 20
-2.852663598165564
 30
0.0
 10
2.881668813884037
 20
-2.024575077086272
 30
0.0
 10
2.881668813884037
 20
-2.024575077086272
 30
0.0
 10
2.881668813884037
 20
-2.024575077086272
 30
0.0
 10
2.864449418130031
 20
-1.981829948994068
 30
0.0
 10
2.864449418130031
 20
-1.981829948994068
 30
0.0
  0
HATCH
  5
58
330
51
100
AcDbEntity
  8
Layer 1
 62
     7
100
AcDbHatch
 10
0.0
 20
0.0
 30
0.0
210
0.0
220
0.0
230
1.0
  2
SOLID
 70
     1
 71
     0
 91
        1
 92
        1
 93
        1
 72
     4
 94
        3
 73
     0
 74
     1
 95
       38
 96
       34
 40
0.0
 40
0.0
 40
0.0
 40
0.0
 40
1.0
 40
1.0
 40
1.0
 40
2.0
 40
2.0
 40
2.0
 40
3.0
 40
3.0
 40
3.0
 40
4.0
 40
4.0
 40
4.0
 40
5.0
 40
5.0
 40
5.0
 40
6.0
 40
6.0
 40
6.0
 40
7.0
 40
7.0
 40
7.0
 40
8.0
 40
8.0
 40
8.0
 40
9.0
 40
9.0
 40
9.0
 40
10.0
 40
10.0
 40
10.0
 40
11.0
 40
11.0
 40
11.0
 40
11.0
 10
2.864449418130031
 20
-1.981829948994068
 10
2.861807469651997
 20
-1.98059116950291
 10
2.859149786871209
 20
-1.979395260103716
 10
2.856500223780459
 20
-1.978177540054819
 10
2.856500223780459
 20
-1.978177540054819
 10
2.770517197927322
 20
-2.245318356806984
 10
2.770517197927322
 20
-2.245318356806984
 10
2.756613265672184
 20
-2.28851679750192
 10
2.719205501239104
 20
-2.319941094715003
 10
2.67425586247724
 20
-2.326182661675148
 10
2.627883626760624
 20
-2.332621149830351
 10
2.58968174976629
 20
-2.365822269248029
 10
2.576841792966964
 20
-2.410844547388883
 10
2.576841792966964
 20
-2.410844547388883
 10
2.471611853649064
 20
-2.779832378315531
 10
2.471611853649064
 20
-2.779832378315531
 10
2.471611853649064
 20
-2.779832378315531
 10
2.404806755798821
 20
-2.831890935095847
 10
2.404806755798821
 20
-2.831890935095847
 10
2.404806755798821
 20
-2.831890935095847
 10
2.385122821464241
 20
-2.98449085719426
 10
2.385122821464241
 20
-2.98449085719426
 10
2.385122821464241
 20
-2.98449085719426
 10
2.457435099980785
 20
-2.993818451352404
 10
2.457435099980785
 20
-2.993818451352404
 10
2.552698233975914
 20
-3.006106486944317
 10
2.64223296112876
 20
-2.945625934302825
 10
2.666399372698126
 20
-2.852663598165564
 10
2.666399372698126
 20
-2.852663598165564
 10
2.881668813884037
 20
-2.024575077086272
 10
2.881668813884037
 20
-2.024575077086272
 10
2.881668813884037
 20
-2.024575077086272
 10
2.864449418130031
 20
-1.981829948994068
 10
2.864449418130031
 20
-1.981829948994068
 97
        0
 97
        0
 75
     2
 76
     1
 98
        0
  0
SPLINE
  5
59
330
51
100
AcDbEntity
  8
Layer 1
370
     0
100
AcDbSpline
210
0.0
220
0.0
230
1.0
 70
    11
 71
     3
 72
    20
 73
    16
 74
     0
 42
0.0000000001
 43
0.0000000001
 12
1.0
 22
0.0
 32
0.0
 13
1.0
 23
0.0
 33
0.0
 40
0.0
 40
0.0
 40
0.0
 40
0.0
 40
1.0
 40
1.0
 40
1.0
 40
2.0
 40
2.0
 40
2.0
 40
3.0
 40
3.0
 40
3.0
 40
4.0
 40
4.0
 40
4.0
 40
5.0
 40
5.0
 40
5.0
 40
5.0
 10
2.765613087302528
 20
-1.93839209290632
 30
0.0
 10
2.765613087302528
 20
-1.93839209290632
 30
0.0
 10
3.022909105489412
 20
-2.053568104435372
 30
0.0
 10
3.022909105489412
 20
-2.053568104435372
 30
0.0
 10
3.090024455448706
 20
-2.083611625416198
 30
0.0
 10
3.110581687569038
 20
-2.169013582611607
 30
0.0
 10
3.064489454860854
 20
-2.226307469170807
 30
0.0
 10
3.064489454860854
 20
-2.226307469170807
 30
0.0
 10
2.904736100732483
 20
-2.424885190645783
 30
0.0
 10
2.904736100732483
 20
-2.424885190645783
 30
0.0
 10
2.878773886911277
 20
-2.45715692160992
 30
0.0
 10
2.826775356070129
 20
-2.442297765583109
 30
0.0
 10
2.821784740473579
 20
-2.4011809208368
 30
0.0
 10
2.821784740473579
 20
-2.4011809208368
 30
0.0
 10
2.765613087302528
 20
-1.93839209290632
 30
0.0
 10
2.765613087302528
 20
-1.93839209290632
 30
0.0
  0
HATCH
  5
5A
330
51
100
AcDbEntity
  8
Layer 1
 62
     7
100
AcDbHatch
 10
0.0
 20
0.0
 30
0.0
210
0.0
220
0.0
230
1.0
  2
SOLID
 70
     1
 71
     0
 91
        1
 92
        1
 93
        1
 72
     4
 94
        3
 73
     0
 74
     1
 95
       20
 96
       16
 40
0.0
 40
0.0
 40
0.0
 40
0.0
 40
1.0
 40
1.0
 40
1.0
 40
2.0
 40
2.0
 40
2.0
 40
3.0
 40
3.0
 40
3.0
 40
4.0
 40
4.0
 40
4.0
 40
5.0
 40
5.0
 40
5.0
 40
5.0
 10
2.765613087302528
 20
-1.93839209290632
 10
2.765613087302528
 20
-1.93839209290632
 10
3.022909105489412
 20
-2.053568104435372
 10
3.022909105489412
 20
-2.053568104435372
 10
3.090024455448706
 20
-2.083611625416198
 10
3.110581687569038
 20
-2.169013582611607
 10
3.064489454860854
 20
-2.226307469170807
 10
3.064489454860854
 20
-2.226307469170807
 10
2.904736100732483
 20
-2.424885190645783
 10
2.904736100732483
 20
-2.424885190645783
 10
2.878773886911277
 20
-2.45715692160992
 10
2.826775356070129
 20
-2.442297765583109
 10
2.821784740473579
 20
-2.4011809208368
 10
2.821784740473579
 20
-2.4011809208368
 10
2.765613087302528
 20
-1.93839209290632
 10
2.765613087302528
 20
-1.93839209290632
 97
        0
 97
        0
 75
     2
 76
     1
 98
        0
  0
SPLINE
  5
5B
330
51
100
AcDbEntity
  8
Layer 1
370
     0
100
AcDbSpline
210
0.0
220
0.0
230
1.0
 70
    11
 71
     3
 72
    20
 73
    16
 74
     0
 42
0.0000000001
 43
0.0000000001
 12
1.0
 22
0.0
 32
0.0
 13
1.0
 23
0.0
 33
0.0
 40
0.0
 40
0.0
 40
0.0
 40
0.0
 40
1.0
 40
1.0
 40
1.0
 40
2.0
 40
2.0
 40
2.0
 40
3.0
 40
3.0
 40
3.0
 40
4.0
 40
4.0
 40
4.0
 40
5.0
 40
5.0
 40
5.0
 40
5.0
 10
2.260681086444871
 20
-1.873260681235694
 30
0.0
 10
2.260681086444871
 20
-1.873260681235694
 30
0.0
 10
1.982580078897109
 20
-1.919375583463786
 30
0.0
 10
1.982580078897109
 20
-1.919375583463786
 30
0.0
 10
1.910037773045966
 20
-1.93140459900466
 30
0.0
 10
1.868481935955439
 20
-2.008794562752983
 30
0.0
 10
1.898526631695101
 20
-2.07590938683077
 30
0.0
 10
1.898526631695101
 20
-2.07590938683077
 30
0.0
 10
2.002660031970423
 20
-2.308525982473763
 30
0.0
 10
2.002660031970423
 20
-2.308525982473763
 30
0.0
 10
2.019583204686417
 20
-2.34632951922822
 30
0.0
 10
2.073650336630281
 20
-2.345151821966763
 30
0.0
 10
2.088911356142224
 20
-2.306647244974076
 30
0.0
 10
2.088911356142224
 20
-2.306647244974076
 30
0.0
 10
2.260681086444871
 20
-1.873260681235694
 30
0.0
 10
2.260681086444871
 20
-1.873260681235694
 30
0.0
  0
HATCH
  5
5C
330
51
100
AcDbEntity
  8
Layer 1
 62
     7
100
AcDbHatch
 10
0.0
 20
0.0
 30
0.0
210
0.0
220
0.0
230
1.0
  2
SOLID
 70
     1
 71
     0
 91
        1
 92
        1
 93
        1
 72
     4
 94
        3
 73
     0
 74
     1
 95
       20
 96
       16
 40
0.0
 40
0.0
 40
0.0
 40
0.0
 40
1.0
 40
1.0
 40
1.0
 40
2.0
 40
2.0
 40
2.0
 40
3.0
 40
3.0
 40
3.0
 40
4.0
 40
4.0
 40
4.0
 40
5.0
 40
5.0
 40
5.0
 40
5.0
 10
2.260681086444871
 20
-1.873260681235694
 10
2.260681086444871
 20
-1.873260681235694
 10
1.982580078897109
 20
-1.919375583463786
 10
1.982580078897109
 20
-1.919375583463786
 10
1.910037773045966
 20
-1.93140459900466
 10
1.868481935955439
 20
-2.008794562752983
 10
1.898526631695101
 20
-2.07590938683077
 10
1.898526631695101
 20
-2.07590938683077
 10
2.002660031970423
 20
-2.308525982473763
 10
2.002660031970423
 20
-2.308525982473763
 10
2.019583204686417
 20
-2.34632951922822
 10
2.073650336630281
 20
-2.345151821966763
 10
2.088911356142224
 20
-2.306647244974076
 10
2.088911356142224
 20
-2.306647244974076
 10
2.260681086444871
 20
-1.873260681235694
 10
2.260681086444871
 20
-1.873260681235694
 97
        0
 97
        0
 75
     2
 76
     1
 98
        0
  0
ENDBLK
  5
54
330
51
100
AcDbEntity
  8
0
100
AcDbBlockEnd
  0
ENDSEC
  0
SECTION
  2
ENTITIES
  0
INSERT
  5
42
330
1F
100
AcDbEntity
  8
Layer 1
100
AcDbBlockReference
  2
block 2
 10
0.0
 20
0.0
 30
0.0
  0
INSERT
  5
4A
330
1F
100
AcDbEntity
  8
Layer 1
100
AcDbBlockReference
  2
block 3
 10
0.0
 20
0.0
 30
0.0
  0
ENDSEC
  0
SECTION
  2
OBJECTS
  0
DICTIONARY
  5
C
330
0
100
AcDbDictionary
281
     1
  3
ACAD_GROUP
350
D
  3
ACAD_LAYOUT
350
1A
  3
ACAD_MATERIAL
350
3B
  3
ACAD_MLEADERSTYLE
350
82
  3
ACAD_MLINESTYLE
350
17
  3
ACAD_PLOTSETTINGS
350
19
  3
ACAD_PLOTSTYLENAME
350
E
  3
ACAD_TABLESTYLE
350
81
  3
ACAD_VISUALSTYLE
350
2A
  0
SUN
  5
3F
330
29
100
AcDbSun
 90
        1
290
     0
 63
     7
421
 16777215
 40
1.0
291
     1
 91
  2455826
 92
 54000000
292
     0
 70
     2
 71
   256
280
     1
  0
DICTIONARY
  5
D
102
{ACAD_REACTORS
330
C
102
}
330
C
100
AcDbDictionary
281
     1
  0
DICTIONARY
  5
1A
102
{ACAD_REACTORS
330
C
102
}
330
C
100
AcDbDictionary
281
     1
  3
Layout1
350
1E
  3
Layout2
350
26
  3
Model
350
22
  0
DICTIONARY
  5
3B
102
{ACAD_REACTORS
330
C
102
}
330
C
100
AcDbDictionary
281
     1
  3
ByBlock
350
3D
  3
ByLayer
350
3C
  3
Global
350
3E
  0
DICTIONARY
  5
82
102
{ACAD_REACTORS
330
C
102
}
330
C
100
AcDbDictionary
281
     1
  0
DICTIONARY
  5
17
102
{ACAD_REACTORS
330
C
102
}
330
C
100
AcDbDictionary
281
     1
  3
Standard
350
18
  0
DICTIONARY
  5
19
102
{ACAD_REACTORS
330
C
102
}
330
C
100
AcDbDictionary
281
     1
  0
ACDBDICTIONARYWDFLT
  5
E
102
{ACAD_REACTORS
330
C
102
}
330
C
100
AcDbDictionary
281
     1
  3
Normal
350
F
100
AcDbDictionaryWithDefault
340
F
  0
DICTIONARY
  5
81
102
{ACAD_REACTORS
330
C
102
}
330
C
100
AcDbDictionary
281
     1
  0
DICTIONARY
  5
2A
102
{ACAD_REACTORS
330
C
102
}
330
C
100
AcDbDictionary
281
     1
  3
2dWireframe
350
2F
  3
3D Hidden
350
31
  3
3dWireframe
350
30
  3
Basic
350
32
  3
Brighten
350
36
  3
ColorChange
350
3A
  3
Conceptual
350
34
  3
Dim
350
35
  3
Facepattern
350
39
  3
Flat
350
2B
  3
FlatWithEdges
350
2C
  3
Gouraud
350
2D
  3
GouraudWithEdges
350
2E
  3
Linepattern
350
38
  3
Realistic
350
33
  3
Thicken
350
37
  0
LAYOUT
  5
1E
102
{ACAD_REACTORS
330
1A
102
}
330
1A
100
AcDbPlotSettings
  1

  2
none_device
  4

  6

 40
0.0
 41
0.0
 42
0.0
 43
0.0
 44
0.0
 45
0.0
 46
0.0
 47
0.0
 48
0.0
 49
0.0
140
0.0
141
0.0
142
1.0
143
1.0
 70
   688
 72
     0
 73
     0
 74
     5
  7

 75
    16
 76
     0
 77
     2
 78
   300
147
1.0
148
0.0
149
0.0
100
AcDbLayout
  1
Layout1
 70
     1
 71
     1
 10
0.0
 20
0.0
 11
12.0
 21
9.0
 12
0.0
 22
0.0
 32
0.0
 14
1.000000000000000E+20
 24
1.000000000000000E+20
 34
1.000000000000000E+20
 15
-1.000000000000000E+20
 25
-1.000000000000000E+20
 35
-1.000000000000000E+20
146
0.0
 13
0.0
 23
0.0
 33
0.0
 16
1.0
 26
0.0
 36
0.0
 17
0.0
 27
1.0
 37
0.0
 76
     0
330
1B
  0
LAYOUT
  5
26
102
{ACAD_REACTORS
330
1A
102
}
330
1A
100
AcDbPlotSettings
  1

  2
none_device
  4

  6

 40
0.0
 41
0.0
 42
0.0
 43
0.0
 44
0.0
 45
0.0
 46
0.0
 47
0.0
 48
0.0
 49
0.0
140
0.0
141
0.0
142
1.0
143
1.0
 70
   688
 72
     0
 73
     0
 74
     5
  7

 75
    16
 76
     0
 77
     2
 78
   300
147
1.0
148
0.0
149
0.0
100
AcDbLayout
  1
Layout2
 70
     1
 71
     2
 10
0.0
 20
0.0
 11
0.0
 21
0.0
 12
0.0
 22
0.0
 32
0.0
 14
0.0
 24
0.0
 34
0.0
 15
0.0
 25
0.0
 35
0.0
146
0.0
 13
0.0
 23
0.0
 33
0.0
 16
1.0
 26
0.0
 36
0.0
 17
0.0
 27
1.0
 37
0.0
 76
     0
330
23
  0
LAYOUT
  5
22
102
{ACAD_REACTORS
330
1A
102
}
330
1A
100
AcDbPlotSettings
  1

  2
none_device
  4

  6

 40
0.0
 41
0.0
 42
0.0
 43
0.0
 44
0.0
 45
0.0
 46
0.0
 47
0.0
 48
0.0
 49
0.0
140
0.0
141
0.0
142
1.0
143
1.0
 70
  1712
 72
     0
 73
     0
 74
     0
  7

 75
     0
 76
     0
 77
     2
 78
   300
147
1.0
148
0.0
149
0.0
100
AcDbLayout
  1
Model
 70
     1
 71
     0
 10
0.0
 20
0.0
 11
12.0
 21
9.0
 12
0.0
 22
0.0
 32
0.0
 14
1.000000000000000E+20
 24
1.000000000000000E+20
 34
1.000000000000000E+20
 15
-1.000000000000000E+20
 25
-1.000000000000000E+20
 35
-1.000000000000000E+20
146
0.0
 13
0.0
 23
0.0
 33
0.0
 16
1.0
 26
0.0
 36
0.0
 17
0.0
 27
1.0
 37
0.0
 76
     0
330
1F
331
29
  0
MATERIAL
  5
3D
102
{ACAD_REACTORS
330
3B
102
}
330
3B
100
AcDbMaterial
  1
ByBlock
 72
     1
 94
      127
  0
MATERIAL
  5
3C
102
{ACAD_REACTORS
330
3B
102
}
330
3B
100
AcDbMaterial
  1
ByLayer
 72
     1
 94
      127
  0
MATERIAL
  5
3E
102
{ACAD_REACTORS
330
3B
102
}
330
3B
100
AcDbMaterial
  1
Global
 72
     1
 94
      127
  0
MLINESTYLE
  5
18
102
{ACAD_REACTORS
330
17
102
}
330
17
100
AcDbMlineStyle
  2
Standard
 70
     0
  3

 62
   256
 51
90.0
 52
90.0
 71
     2
 49
0.5
 62
   256
  6
BYLAYER
 49
-0.5
 62
   256
  6
BYLAYER
  0
ACDBPLACEHOLDER
  5
F
102
{ACAD_REACTORS
330
E
102
}
330
E
  0
VISUALSTYLE
  5
2F
102
{ACAD_REACTORS
330
2A
102
}
330
2A
100
AcDbVisualStyle
  2
2dWireframe
 70
     4
177
     2
291
     0
 71
     0
176
     1
 72
     2
176
     1
 73
     0
176
     1
 90
        0
176
     1
 40
-0.6
176
     1
 41
-30.0
176
     1
 62
     5
 63
     7
421
 16777215
176
     1
 74
     1
176
     1
 91
        4
176
     1
 64
     7
176
     1
 65
   257
176
     1
 75
     1
176
     1
175
     1
176
     1
 42
1.0
176
     1
 92
        0
176
     1
 66
   257
176
     1
 43
1.0
176
     1
 76
     1
176
     1
 77
     6
176
     1
 78
     2
176
     1
 67
     7
176
     1
 79
     5
176
     1
170
     0
176
     1
171
     0
176
     1
290
     0
176
     1
 93
        1
176
     1
 44
0.0
176
     1
173
     0
176
     1
  0
VISUALSTYLE
  5
31
102
{ACAD_REACTORS
330
2A
102
}
330
2A
100
AcDbVisualStyle
  2
3D Hidden
 70
     6
177
     2
291
     0
 71
     1
176
     1
 72
     2
176
     1
 73
     2
176
     1
 90
        0
176
     1
 40
-0.6
176
     1
 41
-30.0
176
     1
 62
     5
 63
     7
421
 16777215
176
     1
 74
     2
176
     1
 91
        2
176
     1
 64
     7
176
     1
 65
   257
176
     1
 75
     2
176
     1
175
     1
176
     1
 42
40.0
176
     1
 92
        0
176
     1
 66
   257
176
     1
 43
1.0
176
     1
 76
     1
176
     1
 77
     6
176
     1
 78
     2
176
     1
 67
     7
176
     1
 79
     3
176
     1
170
     0
176
     1
171
     0
176
     1
290
     0
176
     1
 93
        1
176
     1
 44
0.0
176
     1
173
     0
176
     1
  0
VISUALSTYLE
  5
30
102
{ACAD_REACTORS
330
2A
102
}
330
2A
100
AcDbVisualStyle
  2
3dWireframe
 70
     5
177
     2
291
     0
 71
     0
176
     1
 72
     2
176
     1
 73
     0
176
     1
 90
        0
176
     1
 40
-0.6
176
     1
 41
-30.0
176
     1
 62
     5
 63
     7
421
 16777215
176
     1
 74
     1
176
     1
 91
        4
176
     1
 64
     7
176
     1
 65
   257
176
     1
 75
     1
176
     1
175
     1
176
     1
 42
1.0
176
     1
 92
        0
176
     1
 66
   257
176
     1
 43
1.0
176
     1
 76
     1
176
     1
 77
     6
176
     1
 78
     2
176
     1
 67
     7
176
     1
 79
     5
176
     1
170
     0
176
     1
171
     0
176
     1
290
     0
176
     1
 93
        1
176
     1
 44
0.0
176
     1
173
     0
176
     1
  0
VISUALSTYLE
  5
32
102
{ACAD_REACTORS
330
2A
102
}
330
2A
100
AcDbVisualStyle
  2
Basic
 70
     7
177
     2
291
     1
 71
     1
176
     1
 72
     0
176
     1
 73
     1
176
     1
 90
        0
176
     1
 40
-0.6
176
     1
 41
-30.0
176
     1
 62
     5
 63
     7
421
 16777215
176
     1
 74
     0
176
     1
 91
        4
176
     1
 64
     7
176
     1
 65
   257
176
     1
 75
     1
176
     1
175
     1
176
     1
 42
1.0
176
     1
 92
        8
176
     1
 66
     7
176
     1
 43
1.0
176
     1
 76
     1
176
     1
 77
     6
176
     1
 78
     2
176
     1
 67
     7
176
     1
 79
     5
176
     1
170
     0
176
     1
171
     0
176
     1
290
     0
176
     1
 93
        1
176
     1
 44
0.0
176
     1
173
     0
176
     1
  0
VISUALSTYLE
  5
36
102
{ACAD_REACTORS
330
2A
102
}
330
2A
100
AcDbVisualStyle
  2
Brighten
 70
    12
177
     2
291
     1
 71
     2
176
     1
 72
     2
176
     1
 73
     0
176
     1
 90
        0
176
     1
 40
-0.6
176
     1
 41
-30.0
176
     1
 62
     5
 63
     7
421
 16777215
176
     1
 74
     1
176
     1
 91
        4
176
     1
 64
     7
176
     1
 65
   257
176
     1
 75
     1
176
     1
175
     1
176
     1
 42
1.0
176
     1
 92
        8
176
     1
 66
     7
176
     1
 43
1.0
176
     1
 76
     1
176
     1
 77
     6
176
     1
 78
     2
176
     1
 67
     7
176
     1
 79
     5
176
     1
170
     0
176
     1
171
     0
176
     1
290
     0
176
     1
 93
        1
176
     1
 44
50.0
176
     1
173
     0
176
     1
  0
VISUALSTYLE
  5
3A
102
{ACAD_REACTORS
330
2A
102
}
330
2A
100
AcDbVisualStyle
  2
ColorChange
 70
    16
177
     2
291
     1
 71
     2
176
     1
 72
     2
176
     1
 73
     3
176
     1
 90
        0
176
     1
 40
-0.6
176
     1
 41
-30.0
176
     1
 62
     5
 63
     8
421
  8421504
176
     1
 74
     1
176
     1
 91
        4
176
     1
 64
     7
176
     1
 65
   257
176
     1
 75
     1
176
     1
175
     1
176
     1
 42
1.0
176
     1
 92
        8
176
     1
 66
     8
424
  8421504
176
     1
 43
1.0
176
     1
 76
     1
176
     1
 77
     6
176
     1
 78
     2
176
     1
 67
     7
176
     1
 79
     5
176
     1
170
     0
176
     1
171
     0
176
     1
290
     0
176
     1
 93
        1
176
     1
 44
0.0
176
     1
173
     0
176
     1
  0
VISUALSTYLE
  5
34
102
{ACAD_REACTORS
330
2A
102
}
330
2A
100
AcDbVisualStyle
  2
Conceptual
 70
     9
177
     2
291
     0
 71
     3
176
     1
 72
     2
176
     1
 73
     0
176
     1
 90
        0
176
     1
 40
-0.6
176
     1
 41
-30.0
176
     1
 62
     5
 63
     7
421
 16777215
176
     1
 74
     2
176
     1
 91
        2
176
     1
 64
     7
176
     1
 65
   257
176
     1
 75
     1
176
     1
175
     1
176
     1
 42
40.0
176
     1
 92
        8
176
     1
 66
     7
176
     1
 43
1.0
176
     1
 76
     1
176
     1
 77
     6
176
     1
 78
     2
176
     1
 67
     7
176
     1
 79
     3
176
     1
170
     0
176
     1
171
     0
176
     1
290
     0
176
     1
 93
        1
176
     1
 44
0.0
176
     1
173
     0
176
     1
  0
VISUALSTYLE
  5
35
102
{ACAD_REACTORS
330
2A
102
}
330
2A
100
AcDbVisualStyle
  2
Dim
 70
    11
177
     2
291
     1
 71
     2
176
     1
 72
     2
176
     1
 73
     0
176
     1
 90
        0
176
     1
 40
-0.6
176
     1
 41
-30.0
176
     1
 62
     5
 63
     7
421
 16777215
176
     1
 74
     1
176
     1
 91
        4
176
     1
 64
     7
176
     1
 65
   257
176
     1
 75
     1
176
     1
175
     1
176
     1
 42
1.0
176
     1
 92
        8
176
     1
 66
     7
176
     1
 43
1.0
176
     1
 76
     1
176
     1
 77
     6
176
     1
 78
     2
176
     1
 67
     7
176
     1
 79
     5
176
     1
170
     0
176
     1
171
     0
176
     1
290
     0
176
     1
 93
        1
176
     1
 44
-50.0
176
     1
173
     0
176
     1
  0
VISUALSTYLE
  5
39
102
{ACAD_REACTORS
330
2A
102
}
330
2A
100
AcDbVisualStyle
  2
Facepattern
 70
    15
177
     2
291
     1
 71
     2
176
     1
 72
     2
176
     1
 73
     0
176
     1
 90
        0
176
     1
 40
-0.6
176
     1
 41
-30.0
176
     1
 62
     5
 63
     7
421
 16777215
176
     1
 74
     1
176
     1
 91
        4
176
     1
 64
     7
176
     1
 65
   257
176
     1
 75
     1
176
     1
175
     1
176
     1
 42
1.0
176
     1
 92
        8
176
     1
 66
     7
176
     1
 43
1.0
176
     1
 76
     1
176
     1
 77
     6
176
     1
 78
     2
176
     1
 67
     7
176
     1
 79
     5
176
     1
170
     0
176
     1
171
     0
176
     1
290
     0
176
     1
 93
        1
176
     1
 44
0.0
176
     1
173
     0
176
     1
  0
VISUALSTYLE
  5
2B
102
{ACAD_REACTORS
330
2A
102
}
330
2A
100
AcDbVisualStyle
  2
Flat
 70
     0
177
     2
291
     1
 71
     2
176
     1
 72
     1
176
     1
 73
     1
176
     1
 90
        2
176
     1
 40
-0.6
176
     1
 41
30.0
176
     1
 62
     5
 63
     7
421
 16777215
176
     1
 74
     0
176
     1
 91
        4
176
     1
 64
     7
176
     1
 65
   257
176
     1
 75
     1
176
     1
175
     1
176
     1
 42
1.0
176
     1
 92
        8
176
     1
 66
     7
176
     1
 43
1.0
176
     1
 76
     1
176
     1
 77
     6
176
     1
 78
     2
176
     1
 67
     7
176
     1
 79
     5
176
     1
170
     0
176
     1
171
     0
176
     1
290
     0
176
     1
 93
       13
176
     1
 44
0.0
176
     1
173
     0
176
     1
  0
VISUALSTYLE
  5
2C
102
{ACAD_REACTORS
330
2A
102
}
330
2A
100
AcDbVisualStyle
  2
FlatWithEdges
 70
     1
177
     2
291
     1
 71
     2
176
     1
 72
     1
176
     1
 73
     1
176
     1
 90
        2
176
     1
 40
-0.6
176
     1
 41
30.0
176
     1
 62
     5
 63
     7
421
 16777215
176
     1
 74
     1
176
     1
 91
        4
176
     1
 64
     7
176
     1
 65
   257
176
     1
 75
     1
176
     1
175
     1
176
     1
 42
1.0
176
     1
 92
        0
176
     1
 66
   257
176
     1
 43
1.0
176
     1
 76
     1
176
     1
 77
     6
176
     1
 78
     2
176
     1
 67
     7
176
     1
 79
     5
176
     1
170
     0
176
     1
171
     0
176
     1
290
     0
176
     1
 93
       13
176
     1
 44
0.0
176
     1
173
     0
176
     1
  0
VISUALSTYLE
  5
2D
102
{ACAD_REACTORS
330
2A
102
}
330
2A
100
AcDbVisualStyle
  2
Gouraud
 70
     2
177
     2
291
     1
 71
     2
176
     1
 72
     2
176
     1
 73
     1
176
     1
 90
        2
176
     1
 40
-0.6
176
     1
 41
30.0
176
     1
 62
     5
 63
     7
421
 16777215
176
     1
 74
     0
176
     1
 91
        4
176
     1
 64
     7
176
     1
 65
   257
176
     1
 75
     1
176
     1
175
     1
176
     1
 42
1.0
176
     1
 92
        0
176
     1
 66
     7
176
     1
 43
1.0
176
     1
 76
     1
176
     1
 77
     6
176
     1
 78
     2
176
     1
 67
     7
176
     1
 79
     5
176
     1
170
     0
176
     1
171
     0
176
     1
290
     0
176
     1
 93
       13
176
     1
 44
0.0
176
     1
173
     0
176
     1
  0
VISUALSTYLE
  5
2E
102
{ACAD_REACTORS
330
2A
102
}
330
2A
100
AcDbVisualStyle
  2
GouraudWithEdges
 70
     3
177
     2
291
     1
 71
     2
176
     1
 72
     2
176
     1
 73
     1
176
     1
 90
        2
176
     1
 40
-0.6
176
     1
 41
30.0
176
     1
 62
     5
 63
     7
421
 16777215
176
     1
 74
     1
176
     1
 91
        4
176
     1
 64
     7
176
     1
 65
   257
176
     1
 75
     1
176
     1
175
     1
176
     1
 42
1.0
176
     1
 92
        0
176
     1
 66
   257
176
     1
 43
1.0
176
     1
 76
     1
176
     1
 77
     6
176
     1
 78
     2
176
     1
 67
     7
176
     1
 79
     5
176
     1
170
     0
176
     1
171
     0
176
     1
290
     0
176
     1
 93
       13
176
     1
 44
0.0
176
     1
173
     0
176
     1
  0
VISUALSTYLE
  5
38
102
{ACAD_REACTORS
330
2A
102
}
330
2A
100
AcDbVisualStyle
  2
Linepattern
 70
    14
177
     2
291
     1
 71
     2
176
     1
 72
     2
176
     1
 73
     0
176
     1
 90
        0
176
     1
 40
-0.6
176
     1
 41
-30.0
176
     1
 62
     5
 63
     7
421
 16777215
176
     1
 74
     1
176
     1
 91
        4
176
     1
 64
     7
176
     1
 65
   257
176
     1
 75
     7
176
     1
175
     7
176
     1
 42
1.0
176
     1
 92
        8
176
     1
 66
     7
176
     1
 43
1.0
176
     1
 76
     1
176
     1
 77
     6
176
     1
 78
     2
176
     1
 67
     7
176
     1
 79
     5
176
     1
170
     0
176
     1
171
     0
176
     1
290
     0
176
     1
 93
        1
176
     1
 44
0.0
176
     1
173
     0
176
     1
  0
VISUALSTYLE
  5
33
102
{ACAD_REACTORS
330
2A
102
}
330
2A
100
AcDbVisualStyle
  2
Realistic
 70
     8
177
     2
291
     0
 71
     2
176
     1
 72
     2
176
     1
 73
     0
176
     1
 90
        0
176
     1
 40
-0.6
176
     1
 41
-30.0
176
     1
 62
     5
 63
     7
421
 16777215
176
     1
 74
     1
176
     1
 91
        0
176
     1
 64
     7
176
     1
 65
   257
176
     1
 75
     1
176
     1
175
     1
176
     1
 42
1.0
176
     1
 92
        8
176
     1
 66
     8
424
  7895160
176
     1
 43
1.0
176
     1
 76
     1
176
     1
 77
     6
176
     1
 78
     2
176
     1
 67
     7
176
     1
 79
     5
176
     1
170
     0
176
     1
171
     0
176
     1
290
     0
176
     1
 93
       13
176
     1
 44
0.0
176
     1
173
     0
176
     1
  0
VISUALSTYLE
  5
37
102
{ACAD_REACTORS
330
2A
102
}
330
2A
100
AcDbVisualStyle
  2
Thicken
 70
    13
177
     2
291
     1
 71
     2
176
     1
 72
     2
176
     1
 73
     0
176
     1
 90
        0
176
     1
 40
-0.6
176
     1
 41
-30.0
176
     1
 62
     5
 63
     7
421
 16777215
176
     1
 74
     1
176
     1
 91
        4
176
     1
 64
     7
176
     1
 65
   257
176
     1
 75
     1
176
     1
175
     1
176
     1
 42
1.0
176
     1
 92
       12
176
     1
 66
     7
176
     1
 43
1.0
176
     1
 76
     1
176
     1
 77
     6
176
     1
 78
     2
176
     1
 67
     7
176
     1
 79
     5
176
     1
170
     0
176
     1
171
     0
176
     1
290
     0
176
     1
 93
        1
176
     1
 44
0.0
176
     1
173
     0
176
     1
  0
ENDSEC
  0
EOF
