G04 #@! TF.FileFunction,Copper,L2,Bot,Signal*
%FSLAX46Y46*%
G04 Gerber Fmt 4.6, Leading zero omitted, Abs format (unit mm)*
G04 Created by KiCad (PCBNEW 4.0.7) date 09/19/18 15:31:54*
%MOMM*%
%LPD*%
G01*
G04 APERTURE LIST*
%ADD10C,0.100000*%
%ADD11C,0.010000*%
%ADD12C,2.286000*%
%ADD13C,17.780000*%
%ADD14R,1.800000X1.800000*%
%ADD15C,1.800000*%
%ADD16C,1.600000*%
%ADD17O,1.600000X1.600000*%
%ADD18R,1.397000X1.397000*%
%ADD19C,1.397000*%
%ADD20O,6.000000X6.000000*%
%ADD21C,0.250000*%
G04 APERTURE END LIST*
D10*
D11*
G36*
X79328152Y-88142863D02*
X78991313Y-88263870D01*
X78673844Y-88378339D01*
X78406235Y-88475248D01*
X78218974Y-88543576D01*
X78184375Y-88556350D01*
X77914501Y-88656503D01*
X77914500Y-90207001D01*
X77914500Y-91757500D01*
X82613500Y-91757500D01*
X82613500Y-88963500D01*
X82169000Y-88963500D01*
X82169000Y-91376500D01*
X78295500Y-91376500D01*
X78295500Y-88963500D01*
X82169000Y-88963500D01*
X82613500Y-88963500D01*
X82613500Y-88663805D01*
X81407777Y-88246667D01*
X80202053Y-87829529D01*
X79328152Y-88142863D01*
X79328152Y-88142863D01*
G37*
X79328152Y-88142863D02*
X78991313Y-88263870D01*
X78673844Y-88378339D01*
X78406235Y-88475248D01*
X78218974Y-88543576D01*
X78184375Y-88556350D01*
X77914501Y-88656503D01*
X77914500Y-90207001D01*
X77914500Y-91757500D01*
X82613500Y-91757500D01*
X82613500Y-88963500D01*
X82169000Y-88963500D01*
X82169000Y-91376500D01*
X78295500Y-91376500D01*
X78295500Y-88963500D01*
X82169000Y-88963500D01*
X82613500Y-88963500D01*
X82613500Y-88663805D01*
X81407777Y-88246667D01*
X80202053Y-87829529D01*
X79328152Y-88142863D01*
G36*
X77216000Y-88155129D02*
X77216000Y-88527564D01*
X77218665Y-88735474D01*
X77236982Y-88846659D01*
X77286439Y-88891397D01*
X77382521Y-88899963D01*
X77406500Y-88900000D01*
X77535872Y-88886994D01*
X77587873Y-88821998D01*
X77597000Y-88684543D01*
X77594682Y-88612166D01*
X77597084Y-88555360D01*
X77618246Y-88507112D01*
X77672206Y-88460407D01*
X77773002Y-88408230D01*
X77934673Y-88343568D01*
X78171257Y-88259405D01*
X78496793Y-88148728D01*
X78925319Y-88004522D01*
X79025750Y-87970658D01*
X80232250Y-87563510D01*
X81549875Y-88017367D01*
X82867500Y-88471223D01*
X82867500Y-88717361D01*
X82874803Y-88876663D01*
X82919396Y-88946189D01*
X83035310Y-88963118D01*
X83092781Y-88963500D01*
X83318060Y-88963500D01*
X83299156Y-88574769D01*
X83280250Y-88186039D01*
X80237658Y-87124337D01*
X77216000Y-88155129D01*
X77216000Y-88155129D01*
G37*
X77216000Y-88155129D02*
X77216000Y-88527564D01*
X77218665Y-88735474D01*
X77236982Y-88846659D01*
X77286439Y-88891397D01*
X77382521Y-88899963D01*
X77406500Y-88900000D01*
X77535872Y-88886994D01*
X77587873Y-88821998D01*
X77597000Y-88684543D01*
X77594682Y-88612166D01*
X77597084Y-88555360D01*
X77618246Y-88507112D01*
X77672206Y-88460407D01*
X77773002Y-88408230D01*
X77934673Y-88343568D01*
X78171257Y-88259405D01*
X78496793Y-88148728D01*
X78925319Y-88004522D01*
X79025750Y-87970658D01*
X80232250Y-87563510D01*
X81549875Y-88017367D01*
X82867500Y-88471223D01*
X82867500Y-88717361D01*
X82874803Y-88876663D01*
X82919396Y-88946189D01*
X83035310Y-88963118D01*
X83092781Y-88963500D01*
X83318060Y-88963500D01*
X83299156Y-88574769D01*
X83280250Y-88186039D01*
X80237658Y-87124337D01*
X77216000Y-88155129D01*
G36*
X78422500Y-91249500D02*
X82042000Y-91249500D01*
X82042000Y-90932000D01*
X78422500Y-90932000D01*
X78422500Y-91249500D01*
X78422500Y-91249500D01*
G37*
X78422500Y-91249500D02*
X82042000Y-91249500D01*
X82042000Y-90932000D01*
X78422500Y-90932000D01*
X78422500Y-91249500D01*
G36*
X78422500Y-90805000D02*
X82042000Y-90805000D01*
X82042000Y-90487500D01*
X78422500Y-90487500D01*
X78422500Y-90805000D01*
X78422500Y-90805000D01*
G37*
X78422500Y-90805000D02*
X82042000Y-90805000D01*
X82042000Y-90487500D01*
X78422500Y-90487500D01*
X78422500Y-90805000D01*
G36*
X78422500Y-90360500D02*
X82042000Y-90360500D01*
X82042000Y-90043000D01*
X78422500Y-90043000D01*
X78422500Y-90360500D01*
X78422500Y-90360500D01*
G37*
X78422500Y-90360500D02*
X82042000Y-90360500D01*
X82042000Y-90043000D01*
X78422500Y-90043000D01*
X78422500Y-90360500D01*
G36*
X78422500Y-89852500D02*
X82042000Y-89852500D01*
X82042000Y-89535000D01*
X78422500Y-89535000D01*
X78422500Y-89852500D01*
X78422500Y-89852500D01*
G37*
X78422500Y-89852500D02*
X82042000Y-89852500D01*
X82042000Y-89535000D01*
X78422500Y-89535000D01*
X78422500Y-89852500D01*
G36*
X78422500Y-89408000D02*
X82042000Y-89408000D01*
X82042000Y-89090500D01*
X78422500Y-89090500D01*
X78422500Y-89408000D01*
X78422500Y-89408000D01*
G37*
X78422500Y-89408000D02*
X82042000Y-89408000D01*
X82042000Y-89090500D01*
X78422500Y-89090500D01*
X78422500Y-89408000D01*
D12*
X100354000Y-122594000D03*
X79526000Y-122594000D03*
X100354000Y-119546000D03*
X79526000Y-119546000D03*
D13*
X89940000Y-121070000D03*
D14*
X84630000Y-95860000D03*
D15*
X84630000Y-98400000D03*
D14*
X94550000Y-97120000D03*
D15*
X94550000Y-99660000D03*
D16*
X76430000Y-120810000D03*
D17*
X76430000Y-130970000D03*
D18*
X104600000Y-124270000D03*
D19*
X104600000Y-126810000D03*
X104600000Y-129350000D03*
D20*
X88110000Y-103760000D03*
D21*
X100354000Y-119546000D02*
X100354000Y-117845798D01*
X100354000Y-117845798D02*
X94363201Y-111854999D01*
X94363201Y-111854999D02*
X85516799Y-111854999D01*
X85516799Y-111854999D02*
X79526000Y-117845798D01*
X79526000Y-117845798D02*
X79526000Y-117929554D01*
X79526000Y-117929554D02*
X79526000Y-119546000D01*
X100354000Y-119546000D02*
X100354000Y-121162446D01*
X100354000Y-121162446D02*
X100354000Y-122594000D01*
X79526000Y-122594000D02*
X79526000Y-119546000D01*
X108010000Y-131040000D02*
X108010000Y-130220000D01*
X108010000Y-130220000D02*
X104600000Y-126810000D01*
X108670000Y-131700000D02*
X108010000Y-131040000D01*
X101790000Y-131700000D02*
X108670000Y-131700000D01*
X100354000Y-130264000D02*
X101790000Y-131700000D01*
X100354000Y-122594000D02*
X100354000Y-130264000D01*
X76430000Y-130970000D02*
X80040000Y-130970000D01*
X80040000Y-130970000D02*
X89940000Y-121070000D01*
X84630000Y-95860000D02*
X94440000Y-95860000D01*
X94440000Y-95860000D02*
X94550000Y-95970000D01*
X94550000Y-95970000D02*
X94550000Y-97120000D01*
X83920000Y-110370000D02*
X76430000Y-117860000D01*
X76430000Y-117860000D02*
X76430000Y-120810000D01*
X83920000Y-103100000D02*
X83920000Y-110370000D01*
X82090000Y-101270000D02*
X83920000Y-103100000D01*
X82090000Y-97050000D02*
X82090000Y-101270000D01*
X82390000Y-96750000D02*
X82090000Y-97050000D01*
X83560000Y-96750000D02*
X82390000Y-96750000D01*
X83910000Y-96400000D02*
X83560000Y-96750000D01*
X85060000Y-96400000D02*
X83910000Y-96400000D01*
X83910000Y-96400000D02*
X83850000Y-96460000D01*
X92290000Y-108400000D02*
X92290000Y-108560000D01*
X92290000Y-108560000D02*
X92290000Y-109670000D01*
X94550000Y-101850000D02*
X92290000Y-104110000D01*
X92290000Y-104110000D02*
X92290000Y-108560000D01*
X94550000Y-99660000D02*
X94550000Y-101850000D01*
X84630000Y-98400000D02*
X93290000Y-98400000D01*
X93290000Y-98400000D02*
X94550000Y-99660000D01*
X101970000Y-117160000D02*
X101970000Y-126720000D01*
X101970000Y-126720000D02*
X104600000Y-129350000D01*
X96100000Y-111290000D02*
X101970000Y-117160000D01*
X93910000Y-111290000D02*
X96100000Y-111290000D01*
X92290000Y-109670000D02*
X93910000Y-111290000D01*
M02*
