G04 #@! TF.FileFunction,Profile,NP*
%FSLAX46Y46*%
G04 Gerber Fmt 4.6, Leading zero omitted, Abs format (unit mm)*
G04 Created by KiCad (PCBNEW 4.0.7) date 09/19/18 15:31:54*
%MOMM*%
%LPD*%
G01*
G04 APERTURE LIST*
%ADD10C,0.100000*%
G04 APERTURE END LIST*
D10*
X98727528Y-98259439D02*
X98862649Y-98683448D01*
X97531030Y-99271611D02*
X98430442Y-95811789D01*
X107348826Y-119796007D02*
X108054382Y-120281077D01*
X101502895Y-114932854D02*
X99866336Y-113085241D01*
X104645506Y-118890029D02*
X103775193Y-117811695D01*
X107415990Y-121923683D02*
X106910920Y-122004033D01*
X105921470Y-110727651D02*
X106221622Y-111088104D01*
X104288536Y-113819837D02*
X104710856Y-114203119D01*
X106576654Y-122017443D02*
X106576654Y-122017443D01*
X109392705Y-121494220D02*
X108785002Y-121681285D01*
X106607939Y-115202573D02*
X107585978Y-115308224D01*
X106585557Y-118131769D02*
X107462861Y-118448936D01*
X106221622Y-111088104D02*
X106738928Y-111895826D01*
X103172246Y-112104563D02*
X103549831Y-112753836D01*
X95805347Y-106108872D02*
X96804122Y-102067841D01*
X102942339Y-116709501D02*
X101502895Y-114932854D01*
X106702664Y-119174090D02*
X107348826Y-119796007D01*
X104311054Y-115990858D02*
X104876436Y-116886563D01*
X103932245Y-113337519D02*
X104288536Y-113819837D01*
X96723517Y-109010181D02*
X96160183Y-108279996D01*
X106576654Y-122017443D02*
X105921462Y-120955208D01*
X96985118Y-110037171D02*
X97517042Y-110038738D01*
X103045943Y-111694179D02*
X103172246Y-112104563D01*
X104570699Y-108060675D02*
X103531158Y-108025511D01*
X105044829Y-111823222D02*
X103045943Y-111694179D01*
X106171637Y-111855857D02*
X105044829Y-111823222D01*
X104710856Y-114203119D02*
X105230565Y-114609985D01*
X104999641Y-109623748D02*
X105921470Y-110727651D01*
X103549831Y-112753836D02*
X103932245Y-113337519D01*
X97574485Y-110730206D02*
X96985118Y-110037171D01*
X106910920Y-122004033D02*
X106576654Y-122017443D01*
X105593865Y-117573254D02*
X106585557Y-118131769D01*
X106341914Y-108480551D02*
X105808929Y-108292863D01*
X105808929Y-108292863D02*
X105147636Y-108139791D01*
X96160183Y-108279996D02*
X95598969Y-107485777D01*
X103531158Y-108025511D02*
X103989107Y-108552792D01*
X95598969Y-107485777D02*
X97292558Y-107646316D01*
X108054382Y-120281077D02*
X108693792Y-120655903D01*
X109207471Y-118684319D02*
X108274859Y-118891967D01*
X104876436Y-116886563D02*
X105593865Y-117573254D01*
X105230565Y-114609985D02*
X106013623Y-115012072D01*
X103989107Y-108552792D02*
X104999641Y-109623748D01*
X108274859Y-118891967D02*
X106702664Y-119174090D01*
X98430442Y-95811789D02*
X98727528Y-98259439D01*
X96804122Y-102067841D02*
X97531030Y-99271611D01*
X108785002Y-121681285D02*
X107415990Y-121923683D01*
X106738928Y-111895826D02*
X106171637Y-111855857D01*
X105921462Y-120955208D02*
X104645506Y-118890029D01*
X97292558Y-107646316D02*
X95805347Y-106108872D01*
X99866336Y-113085241D02*
X98806527Y-111974304D01*
X107120100Y-108922079D02*
X106908338Y-108782921D01*
X107585978Y-115308224D02*
X104311054Y-115990858D01*
X107462861Y-118448936D02*
X109207471Y-118684319D01*
X108693792Y-120655903D02*
X109392705Y-121494220D01*
X106013623Y-115012072D02*
X106607939Y-115202573D01*
X99486258Y-99204614D02*
X99890941Y-99271010D01*
X97517042Y-110038738D02*
X96723517Y-109010181D01*
X105147636Y-108139791D02*
X104570699Y-108060675D01*
X98806527Y-111974304D02*
X97574485Y-110730206D01*
X106908338Y-108782921D02*
X106341914Y-108480551D01*
X99030730Y-98911408D02*
X99486258Y-99204614D01*
X98862649Y-98683448D02*
X99030730Y-98911408D01*
X103775193Y-117811695D02*
X102942339Y-116709501D01*
X112488291Y-113548536D02*
X112316733Y-112530018D01*
X112046470Y-116450384D02*
X112322534Y-115887785D01*
X114408708Y-123371300D02*
X114863965Y-122016778D01*
X77624853Y-116141716D02*
X76773355Y-117079983D01*
X112417375Y-126678496D02*
X113131390Y-125757951D01*
X111619123Y-117079548D02*
X112046470Y-116450384D01*
X114937220Y-120041026D02*
X113538814Y-120271986D01*
X113892163Y-116471469D02*
X111619123Y-117079548D01*
X75984021Y-118143087D02*
X75132032Y-119616386D01*
X115095235Y-116249818D02*
X113892163Y-116471469D01*
X114742446Y-117231504D02*
X115095235Y-116249818D01*
X113538814Y-120271986D02*
X113093495Y-120338983D01*
X78628134Y-115086006D02*
X77624853Y-116141716D01*
X114149294Y-118450529D02*
X114742446Y-117231504D01*
X80585600Y-112059385D02*
X80141590Y-113085238D01*
X113530784Y-119364629D02*
X114149294Y-118450529D01*
X113253444Y-119649239D02*
X113530784Y-119364629D01*
X115242194Y-119923775D02*
X114937220Y-120041026D01*
X80879335Y-111382572D02*
X80585600Y-112059385D01*
X114863965Y-122016778D02*
X115091664Y-121039954D01*
X113752718Y-124757680D02*
X114408708Y-123371300D01*
X113131390Y-125757951D02*
X113752718Y-124757680D01*
X111524171Y-132721772D02*
X110007774Y-128754558D01*
X73746068Y-129151426D02*
X73746068Y-132396099D01*
X79429179Y-114056758D02*
X78628134Y-115086006D01*
X74017495Y-122839629D02*
X73795595Y-124362819D01*
X73746068Y-126247258D02*
X73746068Y-129151426D01*
X76773355Y-117079983D02*
X75984021Y-118143087D01*
X110007774Y-128754558D02*
X111005382Y-128041504D01*
X107301422Y-109076475D02*
X107120100Y-108922079D01*
X109973901Y-109833444D02*
X109682423Y-109046111D01*
X111715196Y-110518447D02*
X111005382Y-111536878D01*
X73746068Y-132396099D02*
X111524171Y-132721772D01*
X107618505Y-109401681D02*
X107301422Y-109076475D01*
X108629074Y-107221785D02*
X108114721Y-106550577D01*
X110272332Y-111780870D02*
X110250496Y-111169587D01*
X110229846Y-112124990D02*
X110272332Y-111780870D01*
X75132032Y-119616386D02*
X74722228Y-120516835D01*
X111976473Y-111260099D02*
X111715196Y-110518447D01*
X115091664Y-121039954D02*
X115242194Y-119923775D01*
X112322534Y-115887785D02*
X112538601Y-114656013D01*
X107791347Y-109649803D02*
X107618505Y-109401681D01*
X107945972Y-109999041D02*
X107791347Y-109649803D01*
X108059417Y-109563416D02*
X107945972Y-109999041D01*
X113093495Y-120338983D02*
X113253444Y-119649239D01*
X74317213Y-121658703D02*
X74017495Y-122839629D01*
X80141590Y-113085238D02*
X79429179Y-114056758D01*
X108159248Y-108751157D02*
X108059417Y-109563416D01*
X109682423Y-109046111D02*
X109289288Y-108276380D01*
X110019857Y-112952486D02*
X110229846Y-112124990D01*
X111810325Y-127325654D02*
X112417375Y-126678496D01*
X112316733Y-112530018D02*
X112123739Y-111671963D01*
X108175289Y-108215787D02*
X108159248Y-108751157D01*
X112538601Y-114656013D02*
X112488291Y-113548536D01*
X111005382Y-128041504D02*
X111810325Y-127325654D01*
X108114721Y-106550577D02*
X108175289Y-108215787D01*
X74722228Y-120516835D02*
X74317213Y-121658703D01*
X109289288Y-108276380D02*
X108629074Y-107221785D01*
X73795595Y-124362819D02*
X73746068Y-126247258D01*
X110156822Y-110489420D02*
X109973901Y-109833444D01*
X110250496Y-111169587D02*
X110156822Y-110489420D01*
X111005382Y-111536878D02*
X110019857Y-112952486D01*
X112123739Y-111671963D02*
X111976473Y-111260099D01*
X95111031Y-84661330D02*
X92647919Y-85565307D01*
X104191858Y-90034540D02*
X97348472Y-86897617D01*
X94508344Y-86097013D02*
X95111031Y-84661330D01*
X96743750Y-86684018D02*
X94508344Y-86097013D01*
X100393078Y-99146409D02*
X102108485Y-97170226D01*
X92647919Y-85565307D02*
X92825712Y-83709803D01*
X105081235Y-93303925D02*
X105295222Y-92558908D01*
X105295222Y-92558908D02*
X105267129Y-91856384D01*
X90231851Y-85375741D02*
X88394267Y-85256491D01*
X102108485Y-97170226D02*
X104686116Y-93966162D01*
X92825712Y-83709803D02*
X90231851Y-85375741D01*
X97348472Y-86897617D02*
X96743750Y-86684018D01*
X104989208Y-90978135D02*
X104520328Y-90323883D01*
X85439235Y-85287473D02*
X83756775Y-85496785D01*
X86796975Y-85256491D02*
X85439235Y-85287473D01*
X104686116Y-93966162D02*
X105081235Y-93303925D01*
X105267129Y-91856384D02*
X104989208Y-90978135D01*
X104520328Y-90323883D02*
X104191858Y-90034540D01*
X99890941Y-99271010D02*
X100393078Y-99146409D01*
X88394267Y-85256491D02*
X86796975Y-85256491D01*
X81724245Y-108068664D02*
X81563759Y-109106485D01*
X81651138Y-105637494D02*
X78961765Y-107712330D01*
X81563759Y-109106485D02*
X81280000Y-110236000D01*
X78961765Y-107712330D02*
X81724245Y-108068664D01*
X83756775Y-85496785D02*
X82584520Y-85691169D01*
X78617388Y-95984688D02*
X78961765Y-96426522D01*
X75960297Y-88281519D02*
X75818551Y-89102645D01*
X76232653Y-90657591D02*
X77319137Y-93084615D01*
X82584520Y-85691169D02*
X80385277Y-86055849D01*
X77184600Y-86747749D02*
X76726167Y-87092416D01*
X77715420Y-86531658D02*
X77184600Y-86747749D01*
X81012840Y-95317867D02*
X81279055Y-94543422D01*
X79955403Y-105418762D02*
X81651138Y-105637494D01*
X81724245Y-104148886D02*
X79955403Y-105418762D01*
X81724245Y-93442442D02*
X81724245Y-104148886D01*
X75909815Y-89846720D02*
X76232653Y-90657591D01*
X78961765Y-96426522D02*
X79512353Y-96664442D01*
X76250019Y-87672535D02*
X75960297Y-88281519D01*
X80385277Y-96415700D02*
X80746624Y-95971305D01*
X81279055Y-94543422D02*
X81724245Y-93442442D01*
X76726167Y-87092416D02*
X76250019Y-87672535D01*
X80746624Y-95971305D02*
X81012840Y-95317867D01*
X80095978Y-96582909D02*
X80385277Y-96415700D01*
X75818551Y-89102645D02*
X75909815Y-89846720D01*
X77319137Y-93084615D02*
X78083491Y-94792050D01*
X80385277Y-86055849D02*
X78961765Y-86291897D01*
X79512353Y-96664442D02*
X80095978Y-96582909D01*
X78083491Y-94792050D02*
X78617388Y-95984688D01*
X78961765Y-86291897D02*
X77715420Y-86531658D01*
X81280000Y-110236000D02*
X80879335Y-111382572D01*
M02*
