G04 #@! TF.FileFunction,Legend,Bot*
%FSLAX46Y46*%
G04 Gerber Fmt 4.6, Leading zero omitted, Abs format (unit mm)*
G04 Created by KiCad (PCBNEW 4.0.7) date 09/19/18 15:31:54*
%MOMM*%
%LPD*%
G01*
G04 APERTURE LIST*
%ADD10C,0.100000*%
%ADD11C,0.187500*%
%ADD12C,0.150000*%
%ADD13C,0.120000*%
%ADD14C,0.010000*%
%ADD15C,2.686000*%
%ADD16C,18.180000*%
%ADD17R,2.200000X2.200000*%
%ADD18C,2.200000*%
%ADD19C,2.000000*%
%ADD20O,2.000000X2.000000*%
%ADD21R,1.797000X1.797000*%
%ADD22C,1.797000*%
%ADD23O,6.400000X6.400000*%
G04 APERTURE END LIST*
D10*
D11*
X91312952Y-90204881D02*
X91312952Y-89204881D01*
X91955809Y-91797143D02*
X92003428Y-91844762D01*
X92146285Y-91892381D01*
X92241523Y-91892381D01*
X92384381Y-91844762D01*
X92479619Y-91749524D01*
X92527238Y-91654286D01*
X92574857Y-91463810D01*
X92574857Y-91320952D01*
X92527238Y-91130476D01*
X92479619Y-91035238D01*
X92384381Y-90940000D01*
X92241523Y-90892381D01*
X92146285Y-90892381D01*
X92003428Y-90940000D01*
X91955809Y-90987619D01*
X91574857Y-91606667D02*
X91098666Y-91606667D01*
X91670095Y-91892381D02*
X91336762Y-90892381D01*
X91003428Y-91892381D01*
X90670095Y-91892381D02*
X90670095Y-90892381D01*
X90098666Y-91892381D01*
X90098666Y-90892381D01*
X93598667Y-93532262D02*
X93455810Y-93579881D01*
X93217714Y-93579881D01*
X93122476Y-93532262D01*
X93074857Y-93484643D01*
X93027238Y-93389405D01*
X93027238Y-93294167D01*
X93074857Y-93198929D01*
X93122476Y-93151310D01*
X93217714Y-93103690D01*
X93408191Y-93056071D01*
X93503429Y-93008452D01*
X93551048Y-92960833D01*
X93598667Y-92865595D01*
X93598667Y-92770357D01*
X93551048Y-92675119D01*
X93503429Y-92627500D01*
X93408191Y-92579881D01*
X93170095Y-92579881D01*
X93027238Y-92627500D01*
X92408191Y-92579881D02*
X92217714Y-92579881D01*
X92122476Y-92627500D01*
X92027238Y-92722738D01*
X91979619Y-92913214D01*
X91979619Y-93246548D01*
X92027238Y-93437024D01*
X92122476Y-93532262D01*
X92217714Y-93579881D01*
X92408191Y-93579881D01*
X92503429Y-93532262D01*
X92598667Y-93437024D01*
X92646286Y-93246548D01*
X92646286Y-92913214D01*
X92598667Y-92722738D01*
X92503429Y-92627500D01*
X92408191Y-92579881D01*
X91074857Y-93579881D02*
X91551048Y-93579881D01*
X91551048Y-92579881D01*
X90741524Y-93579881D02*
X90741524Y-92579881D01*
X90503429Y-92579881D01*
X90360571Y-92627500D01*
X90265333Y-92722738D01*
X90217714Y-92817976D01*
X90170095Y-93008452D01*
X90170095Y-93151310D01*
X90217714Y-93341786D01*
X90265333Y-93437024D01*
X90360571Y-93532262D01*
X90503429Y-93579881D01*
X90741524Y-93579881D01*
X89741524Y-93056071D02*
X89408190Y-93056071D01*
X89265333Y-93579881D02*
X89741524Y-93579881D01*
X89741524Y-92579881D01*
X89265333Y-92579881D01*
X88265333Y-93579881D02*
X88598667Y-93103690D01*
X88836762Y-93579881D02*
X88836762Y-92579881D01*
X88455809Y-92579881D01*
X88360571Y-92627500D01*
X88312952Y-92675119D01*
X88265333Y-92770357D01*
X88265333Y-92913214D01*
X88312952Y-93008452D01*
X88360571Y-93056071D01*
X88455809Y-93103690D01*
X88836762Y-93103690D01*
D12*
X97115500Y-127610500D02*
X100481000Y-125642000D01*
X82764500Y-127737500D02*
X79399000Y-125642000D01*
X97140900Y-127610500D02*
G75*
G02X93457900Y-127483500I-1778000J1905000D01*
G01*
X86434800Y-127610500D02*
G75*
G02X82751800Y-127737500I-1905000J1778000D01*
G01*
X86384000Y-127610500D02*
G75*
G02X93496000Y-127483500I3619500J-3492500D01*
G01*
X82320000Y-113196000D02*
X79399000Y-116561500D01*
X100481000Y-116498000D02*
X97496500Y-113132500D01*
X97560000Y-113196000D02*
X82320000Y-113196000D01*
X100481000Y-125642000D02*
X100481000Y-116498000D01*
X79399000Y-125642000D02*
X79399000Y-116498000D01*
D13*
X75120000Y-122680000D02*
X77740000Y-122680000D01*
X77740000Y-122680000D02*
X77740000Y-129100000D01*
X77740000Y-129100000D02*
X75120000Y-129100000D01*
X75120000Y-129100000D02*
X75120000Y-122680000D01*
X76430000Y-121790000D02*
X76430000Y-122680000D01*
X76430000Y-129990000D02*
X76430000Y-129100000D01*
D12*
X105870000Y-123000000D02*
X103330000Y-123000000D01*
X103330000Y-123000000D02*
X103330000Y-130620000D01*
X103330000Y-130620000D02*
X105870000Y-130620000D01*
X105870000Y-130620000D02*
X105870000Y-123000000D01*
X103330000Y-125540000D02*
X105870000Y-125540000D01*
%LPC*%
D14*
G36*
X79328152Y-88142863D02*
X78991313Y-88263870D01*
X78673844Y-88378339D01*
X78406235Y-88475248D01*
X78218974Y-88543576D01*
X78184375Y-88556350D01*
X77914501Y-88656503D01*
X77914500Y-90207001D01*
X77914500Y-91757500D01*
X82613500Y-91757500D01*
X82613500Y-88963500D01*
X82169000Y-88963500D01*
X82169000Y-91376500D01*
X78295500Y-91376500D01*
X78295500Y-88963500D01*
X82169000Y-88963500D01*
X82613500Y-88963500D01*
X82613500Y-88663805D01*
X81407777Y-88246667D01*
X80202053Y-87829529D01*
X79328152Y-88142863D01*
X79328152Y-88142863D01*
G37*
X79328152Y-88142863D02*
X78991313Y-88263870D01*
X78673844Y-88378339D01*
X78406235Y-88475248D01*
X78218974Y-88543576D01*
X78184375Y-88556350D01*
X77914501Y-88656503D01*
X77914500Y-90207001D01*
X77914500Y-91757500D01*
X82613500Y-91757500D01*
X82613500Y-88963500D01*
X82169000Y-88963500D01*
X82169000Y-91376500D01*
X78295500Y-91376500D01*
X78295500Y-88963500D01*
X82169000Y-88963500D01*
X82613500Y-88963500D01*
X82613500Y-88663805D01*
X81407777Y-88246667D01*
X80202053Y-87829529D01*
X79328152Y-88142863D01*
G36*
X77216000Y-88155129D02*
X77216000Y-88527564D01*
X77218665Y-88735474D01*
X77236982Y-88846659D01*
X77286439Y-88891397D01*
X77382521Y-88899963D01*
X77406500Y-88900000D01*
X77535872Y-88886994D01*
X77587873Y-88821998D01*
X77597000Y-88684543D01*
X77594682Y-88612166D01*
X77597084Y-88555360D01*
X77618246Y-88507112D01*
X77672206Y-88460407D01*
X77773002Y-88408230D01*
X77934673Y-88343568D01*
X78171257Y-88259405D01*
X78496793Y-88148728D01*
X78925319Y-88004522D01*
X79025750Y-87970658D01*
X80232250Y-87563510D01*
X81549875Y-88017367D01*
X82867500Y-88471223D01*
X82867500Y-88717361D01*
X82874803Y-88876663D01*
X82919396Y-88946189D01*
X83035310Y-88963118D01*
X83092781Y-88963500D01*
X83318060Y-88963500D01*
X83299156Y-88574769D01*
X83280250Y-88186039D01*
X80237658Y-87124337D01*
X77216000Y-88155129D01*
X77216000Y-88155129D01*
G37*
X77216000Y-88155129D02*
X77216000Y-88527564D01*
X77218665Y-88735474D01*
X77236982Y-88846659D01*
X77286439Y-88891397D01*
X77382521Y-88899963D01*
X77406500Y-88900000D01*
X77535872Y-88886994D01*
X77587873Y-88821998D01*
X77597000Y-88684543D01*
X77594682Y-88612166D01*
X77597084Y-88555360D01*
X77618246Y-88507112D01*
X77672206Y-88460407D01*
X77773002Y-88408230D01*
X77934673Y-88343568D01*
X78171257Y-88259405D01*
X78496793Y-88148728D01*
X78925319Y-88004522D01*
X79025750Y-87970658D01*
X80232250Y-87563510D01*
X81549875Y-88017367D01*
X82867500Y-88471223D01*
X82867500Y-88717361D01*
X82874803Y-88876663D01*
X82919396Y-88946189D01*
X83035310Y-88963118D01*
X83092781Y-88963500D01*
X83318060Y-88963500D01*
X83299156Y-88574769D01*
X83280250Y-88186039D01*
X80237658Y-87124337D01*
X77216000Y-88155129D01*
G36*
X78422500Y-91249500D02*
X82042000Y-91249500D01*
X82042000Y-90932000D01*
X78422500Y-90932000D01*
X78422500Y-91249500D01*
X78422500Y-91249500D01*
G37*
X78422500Y-91249500D02*
X82042000Y-91249500D01*
X82042000Y-90932000D01*
X78422500Y-90932000D01*
X78422500Y-91249500D01*
G36*
X78422500Y-90805000D02*
X82042000Y-90805000D01*
X82042000Y-90487500D01*
X78422500Y-90487500D01*
X78422500Y-90805000D01*
X78422500Y-90805000D01*
G37*
X78422500Y-90805000D02*
X82042000Y-90805000D01*
X82042000Y-90487500D01*
X78422500Y-90487500D01*
X78422500Y-90805000D01*
G36*
X78422500Y-90360500D02*
X82042000Y-90360500D01*
X82042000Y-90043000D01*
X78422500Y-90043000D01*
X78422500Y-90360500D01*
X78422500Y-90360500D01*
G37*
X78422500Y-90360500D02*
X82042000Y-90360500D01*
X82042000Y-90043000D01*
X78422500Y-90043000D01*
X78422500Y-90360500D01*
G36*
X78422500Y-89852500D02*
X82042000Y-89852500D01*
X82042000Y-89535000D01*
X78422500Y-89535000D01*
X78422500Y-89852500D01*
X78422500Y-89852500D01*
G37*
X78422500Y-89852500D02*
X82042000Y-89852500D01*
X82042000Y-89535000D01*
X78422500Y-89535000D01*
X78422500Y-89852500D01*
G36*
X78422500Y-89408000D02*
X82042000Y-89408000D01*
X82042000Y-89090500D01*
X78422500Y-89090500D01*
X78422500Y-89408000D01*
X78422500Y-89408000D01*
G37*
X78422500Y-89408000D02*
X82042000Y-89408000D01*
X82042000Y-89090500D01*
X78422500Y-89090500D01*
X78422500Y-89408000D01*
D15*
X100354000Y-122594000D03*
X79526000Y-122594000D03*
X100354000Y-119546000D03*
X79526000Y-119546000D03*
D16*
X89940000Y-121070000D03*
D17*
X84630000Y-95860000D03*
D18*
X84630000Y-98400000D03*
D17*
X94550000Y-97120000D03*
D18*
X94550000Y-99660000D03*
D19*
X76430000Y-120810000D03*
D20*
X76430000Y-130970000D03*
D21*
X104600000Y-124270000D03*
D22*
X104600000Y-126810000D03*
X104600000Y-129350000D03*
D23*
X88110000Y-103760000D03*
M02*
