G04 #@! TF.FileFunction,Other,User*
%FSLAX46Y46*%
G04 Gerber Fmt 4.6, Leading zero omitted, Abs format (unit mm)*
G04 Created by KiCad (PCBNEW 4.0.7) date 09/19/18 15:31:54*
%MOMM*%
%LPD*%
G01*
G04 APERTURE LIST*
%ADD10C,0.100000*%
%ADD11C,0.050000*%
%ADD12C,0.150000*%
%ADD13C,0.125000*%
G04 APERTURE END LIST*
D10*
D11*
X74830000Y-119760000D02*
X78030000Y-119760000D01*
X78030000Y-119760000D02*
X78030000Y-132060000D01*
X78030000Y-132060000D02*
X74830000Y-132060000D01*
X74830000Y-132060000D02*
X74830000Y-119760000D01*
D12*
X102600000Y-132560000D02*
X106600000Y-132560000D01*
X102600000Y-121060000D02*
X106600000Y-121060000D01*
X106600000Y-121060000D02*
X106600000Y-132560000D01*
X102600000Y-121060000D02*
X102600000Y-132560000D01*
D13*
X103564286Y-121810002D02*
X103564286Y-121976668D01*
X103826190Y-122048097D02*
X103826190Y-121810002D01*
X103326190Y-121810002D01*
X103326190Y-122048097D01*
X103635714Y-122262383D02*
X103635714Y-122643335D01*
X103802381Y-122857621D02*
X103826190Y-122929050D01*
X103826190Y-123048097D01*
X103802381Y-123095716D01*
X103778571Y-123119526D01*
X103730952Y-123143335D01*
X103683333Y-123143335D01*
X103635714Y-123119526D01*
X103611905Y-123095716D01*
X103588095Y-123048097D01*
X103564286Y-122952859D01*
X103540476Y-122905240D01*
X103516667Y-122881431D01*
X103469048Y-122857621D01*
X103421429Y-122857621D01*
X103373810Y-122881431D01*
X103350000Y-122905240D01*
X103326190Y-122952859D01*
X103326190Y-123071907D01*
X103350000Y-123143335D01*
X103492857Y-123310002D02*
X103826190Y-123405240D01*
X103588095Y-123500478D01*
X103826190Y-123595716D01*
X103492857Y-123690954D01*
X103826190Y-123881431D02*
X103492857Y-123881431D01*
X103326190Y-123881431D02*
X103350000Y-123857621D01*
X103373810Y-123881431D01*
X103350000Y-123905240D01*
X103326190Y-123881431D01*
X103373810Y-123881431D01*
X103492857Y-124048097D02*
X103492857Y-124238573D01*
X103326190Y-124119526D02*
X103754762Y-124119526D01*
X103802381Y-124143335D01*
X103826190Y-124190954D01*
X103826190Y-124238573D01*
X103802381Y-124619525D02*
X103826190Y-124571906D01*
X103826190Y-124476668D01*
X103802381Y-124429049D01*
X103778571Y-124405240D01*
X103730952Y-124381430D01*
X103588095Y-124381430D01*
X103540476Y-124405240D01*
X103516667Y-124429049D01*
X103492857Y-124476668D01*
X103492857Y-124571906D01*
X103516667Y-124619525D01*
X103826190Y-124833811D02*
X103326190Y-124833811D01*
X103826190Y-125048096D02*
X103564286Y-125048096D01*
X103516667Y-125024287D01*
X103492857Y-124976668D01*
X103492857Y-124905239D01*
X103516667Y-124857620D01*
X103540476Y-124833811D01*
X103564286Y-125667144D02*
X103564286Y-125833810D01*
X103826190Y-125905239D02*
X103826190Y-125667144D01*
X103326190Y-125667144D01*
X103326190Y-125905239D01*
X103350000Y-126381429D02*
X103326190Y-126333810D01*
X103326190Y-126262382D01*
X103350000Y-126190953D01*
X103397619Y-126143334D01*
X103445238Y-126119525D01*
X103540476Y-126095715D01*
X103611905Y-126095715D01*
X103707143Y-126119525D01*
X103754762Y-126143334D01*
X103802381Y-126190953D01*
X103826190Y-126262382D01*
X103826190Y-126310001D01*
X103802381Y-126381429D01*
X103778571Y-126405239D01*
X103611905Y-126405239D01*
X103611905Y-126310001D01*
X103826190Y-126881429D02*
X103826190Y-126595715D01*
X103826190Y-126738572D02*
X103326190Y-126738572D01*
X103397619Y-126690953D01*
X103445238Y-126643334D01*
X103469048Y-126595715D01*
X103373810Y-127071905D02*
X103350000Y-127095715D01*
X103326190Y-127143334D01*
X103326190Y-127262381D01*
X103350000Y-127310000D01*
X103373810Y-127333810D01*
X103421429Y-127357619D01*
X103469048Y-127357619D01*
X103540476Y-127333810D01*
X103826190Y-127048096D01*
X103826190Y-127357619D01*
X103540476Y-127643333D02*
X103516667Y-127595714D01*
X103492857Y-127571905D01*
X103445238Y-127548095D01*
X103421429Y-127548095D01*
X103373810Y-127571905D01*
X103350000Y-127595714D01*
X103326190Y-127643333D01*
X103326190Y-127738571D01*
X103350000Y-127786190D01*
X103373810Y-127810000D01*
X103421429Y-127833809D01*
X103445238Y-127833809D01*
X103492857Y-127810000D01*
X103516667Y-127786190D01*
X103540476Y-127738571D01*
X103540476Y-127643333D01*
X103564286Y-127595714D01*
X103588095Y-127571905D01*
X103635714Y-127548095D01*
X103730952Y-127548095D01*
X103778571Y-127571905D01*
X103802381Y-127595714D01*
X103826190Y-127643333D01*
X103826190Y-127738571D01*
X103802381Y-127786190D01*
X103778571Y-127810000D01*
X103730952Y-127833809D01*
X103635714Y-127833809D01*
X103588095Y-127810000D01*
X103564286Y-127786190D01*
X103540476Y-127738571D01*
M02*
